<svg width="165" height="181" viewBox="0 0 165 181" fill="none" xmlns="http://www.w3.org/2000/svg">
<path d="M90.3077 179.859C92.5054 178.192 97.1877 180.758 96.7696 179.391C95.7581 179.817 97.0896 178.719 96.6534 178.335C95.4296 177.806 97.9961 177.273 98.3073 177.162C98.2154 175.53 99.1861 175.366 100.192 174.973C99.6892 174.034 99.5377 173.355 100.577 173.019C103.004 173.975 107.098 175.695 109.231 175.715C109.124 176.219 109.358 177.383 108.807 177.866C109.432 178.617 110.409 178.726 110.845 179.938C111.786 180.367 112.502 178.897 113.538 178.922C115.238 179.602 116.808 179.003 117.652 178.256C119.16 178.492 120.453 179.507 122.807 179.156C122.723 180.057 122.978 179.061 123.345 178.922C123.658 179.183 123.543 179.771 124.037 179.86C124.311 178.705 125.722 180.849 125.845 179.547C126.114 178.812 125.007 178.674 125.461 177.906C128.634 177.856 131.837 175.029 132.614 173.254C132.378 172.526 133.305 172.92 133.691 172.863C132.868 172.192 133.739 171.872 134.153 171.378C135.685 172.314 135.454 169.513 135.422 168.799C137.367 169.132 138.047 169.11 138.153 166.844C138.767 166.417 139.864 166.069 140.46 165.006C139.783 163.915 139.343 162.778 140.884 161.841C141.68 160.706 141.826 158.299 143.383 158.714C144.404 157.589 141.733 158.264 142.922 156.994C142.924 155.931 143.748 154.642 143.306 153.828C144.403 153.527 145.175 153.566 144.922 151.991C145.367 148.239 143.431 148.474 147.615 147.379C148.497 147.62 149.751 146.499 149.769 146.208C148.424 146.273 148.535 145.027 147.268 145.228C146.087 143.182 145.458 141.646 145.923 140.07C146.06 138.931 144.66 138.288 146.153 137.568C146.409 136.053 147.534 137.132 146.345 135.653C147.054 134.189 145.895 133.935 146.421 132.565C147.332 132.123 147.81 132.982 148.383 131.666C146.871 130.367 148.822 126.644 147.153 126.311C145.1 127.622 143.405 124.819 143.768 122.911C143.364 121.905 140.604 123.618 141.23 124.67C140.529 124.315 139.768 124.105 139.115 123.693C139.377 121.566 140.865 120.945 141.499 119.511C139.508 118.972 140.935 118.158 140.692 116.892C138.759 116.475 137.704 115.157 134.883 115.213C131.569 116.004 138.532 110.321 135.537 109.545C133.453 108.428 137.15 107.249 135.653 106.417C135.928 105.1 138.599 105.963 138.538 104.971C139.92 104.436 138.028 101.721 140.578 100.634C139.49 99.6651 141.084 98.5429 141.076 97.4274C140.131 97.6334 138.17 97.6553 140.23 96.6074C138.749 96.7806 140.479 95.8136 141.115 95.4345C140.493 94.4151 141.692 92.8919 140.115 92.3858C139.13 93.5165 138.584 91.4899 139.077 90.5097C137.893 89.6079 137.581 87.9789 139.115 87.3445C140.173 86.0742 140.098 87.9933 139.153 88.3592C139.202 89.2183 140.758 89.0236 140.115 90.1579C141.42 90.8509 144.506 90.7344 142.077 88.9068C141.435 88.3169 143.2 88.7793 143.307 89.2589C144.4 89.3898 144.831 87.3128 143.462 87.6173C143.959 86.7695 144.518 85.9421 143.076 85.194C143.743 83.3617 143.797 80.3673 144.691 79.2526C145.449 79.2784 147.15 78.5502 147.423 77.6114C147.089 74.522 143.112 72.2699 148.347 72.3352C149.628 71.4515 146.155 70.7718 145.424 69.2462C145.427 65.0879 145.165 67.4256 143.729 65.4178C143.771 64.665 144.682 64.4481 144.884 63.8536C144.135 63.3083 144.626 62.6927 145.345 62.9937C147.039 62.5079 144.6 62.8635 144.807 61.9384C148.959 62.1006 141.605 57.3247 142.077 55.2938C141.738 53.9106 141.902 54.8408 141.23 54.5121C141.444 53.1726 142.438 54.0313 142.538 52.9092C143.216 52.4832 143.327 51.1089 144.231 50.6422C145.142 51.3399 144.854 49.9754 144.769 49.5478C144.111 49.0288 143.718 48.5406 143.731 47.515C144.314 46.8943 143.527 46.7817 143.845 46.3037C144.88 46.7407 143.928 44.7841 146.077 44.897C147.894 44.6195 145.439 42.3209 146.961 42.8251C147.047 42.0371 147.185 42.0445 147.884 42.2783C148.297 41.9343 148.712 41.9621 148.692 42.63C149.496 42.5538 150.427 41.6396 150.577 40.8708C151.248 41.7092 151.595 41.0979 152.538 41.144C153.259 40.9095 152.988 40.075 153.615 40.05C154.448 39.8323 155.589 41.126 156.385 40.05C156.173 38.9939 157.043 38.9873 157.384 38.2126C160.412 38.655 156.803 35.7854 156 35.5164C156.337 33.6837 154.616 33.6548 153.422 32.7804C154.553 33.0994 153.777 32.0366 154.191 31.2948C156.267 32.2125 156.957 29.7087 158.845 29.5355C159.269 33.5305 161.756 30.0437 164.192 30.6694C164.279 26.9649 164.339 25.8435 160.768 26.2531C161.633 25.1439 160.317 24.0944 159.23 23.7907C160.722 22.3962 152.523 19.7606 155.538 21.992C152.931 22.187 156.211 19.8536 154.923 19.335C154.661 18.6005 153.933 18.0228 153.885 16.9503C154.999 17.3592 155.22 14.6165 154.192 14.9961C153.856 14.3984 154.696 13.936 154.922 14.8405C155.387 14.2866 156.355 14.4758 156.346 13.6288C157.184 12.9112 156.714 12.1256 156.384 11.2442C156.36 10.853 156.742 10.817 156.807 11.3619C157.231 11.1207 157.46 10.2311 157.884 10.0716C157.963 9.25436 157.047 9.35833 158 9.01672C158.075 7.94538 157.666 7.25356 158.769 6.78844C157.41 5.01786 158.72 6.63874 158.962 5.38175C161.111 3.5627 159.38 1.62209 158.462 0.691071C156.655 0.130191 156.802 2.53005 155.192 2.33306C152.6 2.63715 146.654 -1.53955 146.307 1.08193C146.412 6.07396 144.529 1.21013 143.577 4.09192C142.755 4.51795 139.834 8.5004 140.308 5.65535C141.299 6.14666 140.764 4.53476 140.307 4.32722C139.766 6.51641 136.844 7.51192 136.653 9.79843C134.29 8.30106 132.885 12.2788 130.769 12.0251C130.406 9.61317 130.516 9.35911 127.845 8.97724C127.254 10.0286 127.187 11.3376 126 10.1881C124.018 11.1954 122.542 9.56744 120.615 11.8297C119.805 9.8254 116.41 6.3327 113.885 6.94322C113.612 5.123 110.56 3.46967 109.692 5.14567C108.969 6.32098 107.571 3.92151 106.115 5.14645C105.303 4.36317 104.347 3.69207 103.577 3.70106C98.8988 3.94105 104.884 11.7136 103.961 11.9083C103.385 12.8178 102.084 12.5872 101.346 12.1428C100.657 13.0828 99.2911 15.2145 101.116 16.2859C102.115 17.3994 98.9288 21.238 100.693 20.0768C101.529 19.1978 103.3 20.5056 102.115 21.523C100.853 21.4448 99.9108 21.743 99.8077 22.7737C99.9296 23.6629 98.5353 22.9367 98.4619 23.5163C99.1757 24.9207 97.2469 25.1431 96.6154 25.9787C95.4846 26.1136 93.5446 26.6119 93.538 27.9326C92.885 28.2359 92.0631 27.5043 91.3077 27.7771C90.1961 27.7177 90.7015 28.5611 90.2692 29.2229C89.3988 29.9674 89.3912 29.8592 87.6919 30.1992C87.4846 32.8453 83.7612 29.1337 82.1923 29.5746C80.9127 28.8449 79.0058 30.6151 77.8842 30.1605C78.005 29.6794 78.2469 30.0179 78.615 29.9651C78.7589 29.3425 77.6446 29.6188 78.1919 29.0661C79.0142 29.0661 79.6146 28.7331 80.3073 27.7759C79.4338 26.0827 76.4308 23.865 74 24.336C72.4046 26.714 71.5365 23.7575 69.9227 24.2187C67.5865 26.8062 66.2542 23.3143 63.6531 23.8673C60.1742 23.9568 57.1335 22.7768 53.8458 23.439C52.6881 22.3739 52.6577 20.7624 50.7684 21.5234C49.7007 21.138 48.5138 22.0069 49.0384 23.3201C48.2823 24.0893 46.1369 24.1233 45.6915 24.9617C45.7058 29.6434 41.0119 32.5729 39.0766 27.4632C36.7662 27.8818 36.2781 25.9893 35.4619 24.8836C33.3911 26.6244 30.2507 25.9256 27.7688 27.1904C26.2538 27.5738 25.5234 24.9828 25.4607 26.6819C25.4077 28.4767 23.2431 26.2367 25.2692 29.3792C25.085 30.1637 23.9988 30.4208 24.6534 31.3331C25.1631 31.3952 24.9569 33.3378 24.3454 32.9356C23.6977 32.3419 23.2627 33.8361 22.5377 33.7955C21.4957 34.8489 23.1904 34.4451 23.2308 35.2421C20.2192 35.5157 23.6481 37.4911 20.9223 36.9622C20.3484 36.0027 20.1061 37.4555 19.6534 37.6263C18.8665 37.2448 19.39 38.3537 18.8842 38.4471C17.0884 37.5407 17.7261 40.1528 18.5385 41.1436C17.9638 41.8163 17.4338 43.357 16.6538 43.3332C11.8738 40.9353 13.0054 49.497 9.76923 50.2901C9.97846 52.951 11.1196 52.9154 8.11421 53.7679C8.22882 54.6782 6.24306 54.7916 7.19152 55.6835C7.74806 55.8355 8.48306 54.6978 8.99922 55.4099C9.57998 56.8893 7.04421 57.6358 7.73036 59.1621C7.98421 61.0707 5.73576 59.8109 4.8073 60.022C3.20961 60.7592 4.97843 62.0353 5.11497 63.1098C4.78459 64.1561 5.07613 64.878 5.15382 65.8458C1.31344 65.9556 5.72267 68.0897 2.96114 67.9181C1.72037 68.0655 3.79343 70.4403 1.76766 69.5198C-0.492336 70.6752 4.66037 70.9688 3.65306 72.334C1.29729 71.5367 2.83345 74.1828 3.53768 74.9922C4.59422 74.1535 5.9196 73.8978 5.30767 75.618C3.68883 77.5 5.76229 78.7965 5.84537 80.816C5.93422 81.4848 8.33074 80.9329 7.4219 82.3013C4.46382 82.0015 4.8269 86.9611 7.03805 84.9204C7.99767 85.5137 7.96613 87.4074 8.6919 88.4764C10.4877 90.308 6.7869 90.8517 9.26883 92.385C9.75652 93.4137 8.51152 93.8605 7.72998 93.5576C7.07882 94.1317 6.63459 94.8798 5.9219 95.5118C6.11498 96.145 6.99536 95.4192 7.03767 96.02C6.72421 96.4374 5.99653 95.7639 6.42192 96.4894C8.0523 96.3213 6.90998 95.7362 7.34537 97.2715C7.2246 98.738 5.57153 97.9524 4.9223 98.9909C4.27461 100.156 4.4619 102.237 3.50036 102.743C1.15382 101.2 0.952666 103.753 2.53882 105.127C2.6869 105.986 0.604586 107.091 2.92305 106.886C3.57843 108.205 1.48652 107.721 0.88421 107.511C-0.366175 109.367 0.675748 111.744 1.84575 113.296C0.786902 115.047 -1.45732 114.352 1.38499 116.501C-1.03693 125.049 3.50499 118.485 7.76768 122.13C10.1554 123.926 8.63612 131.077 11.498 131.472C12.9704 132.073 14.8519 132.989 15.5373 134.442C16.2781 135.989 15.5281 137.617 15.3454 139.327C15.0385 140.098 14.1923 138.711 13.9992 138.936C13.1485 139.427 13.85 139.669 14.2688 140.109C14.9673 141.761 12.0827 143.124 15.4608 142.766C16.6727 142.535 18.4665 144.365 19.5377 143.353C19.285 142.005 20.0804 142.229 20.9996 141.751C21.685 142.737 19.188 142.153 19.6534 143.158C19.7584 144.51 18.5261 144.333 19.2304 145.463C23.2985 145.628 19.0696 141.384 25.3461 144.292C26.7557 142.467 32.0207 145.558 32.1919 142.181C35.8565 141.75 33.9477 145.328 36.5769 145.972C44.2527 152.817 35.98 152.714 40.4223 155.626C40.2812 157.639 39.5277 157.582 37.1142 157.345C37.065 159.532 38.8765 160.547 40.9992 160.708C43.2654 162.974 40.47 163.014 45.5 164.342C46.0573 169.445 46.7303 162.86 48.9996 164.42C50.8627 164.644 50.5334 166.726 52.2688 166.687C52.7777 164.744 56.7546 165.491 56.6146 163.717C57.635 165.741 60.8177 164.423 62.8458 164.578C63.3808 161.471 63.4819 162.949 65.0781 161.333C68.6861 161.537 71.9257 162.149 70.6534 157.501C72.1292 157.451 72.4446 157.569 72.1919 155.938C76.243 154.455 77.8527 159.255 79.6927 162.075C81.7192 165.48 88.3489 159.859 85.0762 167.04C83.6181 167.669 82.7534 167.631 81.8077 167.038C81.6334 167.355 81.6777 168.943 81.1915 167.664C79.9573 167.672 80.8223 168.385 81.3462 168.445C79.6508 169.823 82.9646 169.955 83.7307 170.283C84.9884 173.99 83.8992 176.629 88.0762 174.268C87.0469 175.411 86.0996 177.609 87.3457 178.061C89.565 176.441 92.1139 176.991 90.3077 179.859ZM9.96114 77.611C9.6246 78.3161 10.1123 77.0904 10.23 76.9074C9.28383 77.0431 7.28151 77.192 6.61459 77.6888C5.78074 78.3177 6.52576 76.9469 5.88422 77.0247C5.48576 78.44 5.60382 75.2475 6.7692 77.3769C8.74151 77.6598 10.0046 75.5895 11.8842 76.1265C12.4292 75.6102 12.5442 72.5291 13.6931 75.1881C16.5231 74.4181 17.4673 77.7611 15.3077 77.534C13.6946 77.4757 10.3369 75.8681 9.96114 77.611ZM14.7304 77.5719C14.6523 77.6352 14.2681 77.5774 14.3457 77.4156C14.3857 77.4472 14.8134 77.4433 14.7304 77.5719ZM15.8073 77.7673C15.9238 77.7063 15.9 77.951 15.9227 78.0018C15.7265 78.0956 15.6354 77.7704 15.8073 77.7673Z" fill="#DBDBDB"/>
</svg>
