<svg width="131" height="192" viewBox="0 0 131 192" fill="none" xmlns="http://www.w3.org/2000/svg">
<path d="M67.5 187.28C68.5216 187.778 67.4562 189.316 69.462 188.843C69.4435 190.867 71.9862 188.603 72.4996 188.999C75.8693 188.39 80.0393 187.196 84.2308 187.203C86.5239 189.599 84.8354 192.376 87.7304 188.765C90.2362 187.171 90.6612 190.898 92.962 191.071C96.2377 187.655 104.683 194.12 105 187.906C104.731 186.679 106.029 187.648 106.654 187.398C106.919 185.611 106.323 183.48 107.231 182.004C107.607 181.46 107.569 181.58 107.307 180.714C107.789 180.618 108.553 180.735 108.27 180.01C107.255 179.536 108.634 178.277 108.001 177.9C107.937 176.878 107.298 176.292 106.423 175.282C104.455 171.93 109.494 173.623 111.577 173.17C111.332 171.274 106.619 171.765 110.769 170.005C110.226 166.684 113.157 165.673 112.847 162.618C112.709 161.443 113.669 161.433 114.5 161.641C114.532 160.431 114.609 158.875 114.77 157.654C116.064 157.444 119.001 159.087 118.308 156.794C119.291 155.159 118.606 154.422 117.923 152.768C117.305 151.168 117.44 149.08 116 151.361C115.02 151.122 113.305 155.687 113.193 153.668C113.355 151.625 111.45 150.808 109.655 150.931C108.131 149.603 110.124 148.636 111.693 148.782C112.594 148.577 115.631 147.438 114.77 147.18C114.49 146.786 114.253 146.631 114.385 145.615C115.025 144.855 114.557 143.801 114.231 145.186C113.572 146.054 112.4 143.818 113.462 143.662C112.25 142.932 113.819 141.863 112.424 141.199C111.386 139.863 112.895 139.48 111.077 138.659C109.5 138.511 108.842 134.822 110.116 134.945C111.357 134.006 109.587 130.974 109.81 129.434C108.41 128.643 106.54 126.177 104.924 128.027C104.1 128.318 104.565 128.039 104.193 127.519C103.624 127.803 103.007 128.025 102.347 127.949C100.556 127.964 100.517 126.927 100.078 127.088C99.3558 126.307 99.3651 124.754 100.885 124.001C101.663 123.527 100.711 122.562 101.732 122.243C103.137 122.005 101.69 121.29 101.77 120.757C102.73 120.16 102.722 119.585 102.501 118.686C103.054 118.039 101.061 118.243 102.233 117.005C101.535 116.035 103.314 116.247 102.962 114.973C104.709 114.289 102.531 114.091 103.308 113.722C103.307 113.16 103.876 112.529 104.347 112.237C104.284 112.584 104.602 113.186 105.31 112.785C104.465 111.619 106.213 111.399 106.232 110.165C105.898 109.255 105.921 107.776 106.848 107.976C106.592 107.45 106.395 106.523 107.31 106.334C109.745 107.771 113.534 109.17 116.27 110.557C119.352 107.891 124.329 103.127 120.117 100.276C117.378 100.52 118.147 107.437 114.002 102.152C112.48 101.492 109.953 103.098 109.31 101.448C108.452 100.776 109.334 102.774 108.502 102.66C108.559 102.337 108.242 102.047 108.002 101.879C108.064 101.56 108.643 101.312 108.04 101.097C107.711 100.115 106.793 100.723 106.579 100.237C105.521 100.523 105.685 99.1535 106.002 98.5559C105.874 98.2049 105.047 97.7108 105.772 97.2266C104.795 96.6227 104.919 95.936 104.771 95.1554C103.715 95.3548 104.899 93.6748 103.964 94.3342C102.245 96.3608 102.813 92.9893 101.156 93.1613C99.0816 95.4232 100.35 91.2777 100.541 90.3088C101.034 89.7467 99.1877 89.8116 101.196 88.9013C104.849 90.6817 106.342 88.204 109.579 87.9629C111.241 87.0307 114.513 89.7753 114.772 87.2996C115.102 83.93 118.02 78.2927 121.54 77.4488C123.297 76.7523 123.961 74.1199 125.349 72.8375C126.927 73.3718 131.387 72.8367 129.81 70.7264C126.065 69.3502 129.414 65.5601 128.272 63.6128C126.082 61.3185 122.596 59.9638 121.041 56.3046C119.508 54.9476 119.38 53.7082 120.041 51.7312C120.285 50.2491 119.447 48.7333 121.387 48.2139C122.667 46.8455 126.995 45.8441 126.773 44.4225C124.86 42.1888 125.752 39.8183 122.349 41.9609C120.14 42.1583 115.255 40.9373 114.272 44.5394C110.641 46.6739 106.478 46.1271 104.272 42.4679C100.564 41.6455 97.7427 40.478 97.3493 36.018C97.1866 34.7164 95.9327 33.1006 95.7327 31.9538C96.302 31.3476 97.1505 30.5467 95.5789 30.6648C90.0335 29.862 88.6127 27.3335 83.2716 30.236C74.7662 28.5971 77.5531 24.2969 74.1181 18.8597C72.5174 15.1618 69.8097 22.7405 67.6174 23.2764C65.6254 23.788 63.4301 23.1619 61.1943 25.1154C59.9935 26.0218 57.857 23.6524 58.8093 22.4955C58.7108 21.5582 57.9708 20.7472 59.0405 20.1116C57.9847 19.5871 57.6805 18.6401 56.4635 19.4476C55.4981 19.2174 54.7327 19.9318 54.3096 18.626C53.355 17.7419 51.9216 18.6987 51.425 17.8451C50.5354 16.3184 48.5289 16.8609 48.5027 14.4039C43.6093 12.7428 49.5589 9.50494 46.8485 7.87741C45.477 6.21197 46.0312 9.3912 46.0789 10.1835C45.1689 10.3289 44.8351 11.2126 44.1943 11.7082C43.3516 10.579 42.1816 9.75822 40.7324 9.91026C35.2078 14.8718 35.2447 6.2706 32.3093 8.46253C31.832 10.3394 29.1512 7.9036 28.0777 7.17426C28.3923 5.08747 27.0016 -1.84634 24.925 1.1148C19.6443 2.91157 17.8347 -1.79669 19.502 6.74471C20.1151 8.51686 22.0346 9.63001 19.6935 10.613C20.1446 11.5405 18.5666 11.7367 18.0012 12.0596C18.97 13.5691 16.7851 13.4151 16.4243 14.2879C15.2862 13.6554 16.5512 12.2151 13.3854 14.0143C9.10468 15.403 11.9678 19.0282 14.1178 21.1665C12.6489 22.5854 7.36892 21.2776 10.6939 24.9587C12.5651 26.3857 11.9316 26.3087 10.3089 27.3425C9.94733 28.4545 8.09353 30.4568 7.92468 28.0065C5.65545 30.3228 6.33775 33.4711 9.9639 32.5788C9.56736 34.1716 8.88391 33.1713 9.77275 34.7688C9.89275 35.8417 10.5608 36.7825 11.5401 37.3093C10.5178 37.8894 7.62431 37.7834 8.65546 39.5368C9.08007 39.9152 7.74929 39.957 7.65583 40.514C8.01391 41.717 6.71083 40.9959 6.0016 41.2961C5.66353 43.2363 5.38507 43.1664 6.4643 44.9307C4.53084 44.9901 3.47541 43.8437 2.92502 46.3377C2.92271 47.0694 6.46775 45.9461 4.57813 47.8617C2.66083 49.7632 0.315422 48.0942 0.271576 51.2235C1.85888 53.9739 -0.68916 54.4539 2.50276 56.2253C2.01122 57.7156 3.13234 58.2003 3.38695 59.4315C3.32618 61.7684 2.16738 64.4782 2.732 66.3105C5.99815 67.8884 9.11199 68.0604 3.54007 70.2973C5.64622 72.0425 1.067 71.4698 2.07892 72.9942C2.23969 75.8635 4.06197 74.6061 5.69467 74.8305C6.06428 75.3003 4.07543 75.337 5.11736 76.1988C1.6462 80.6292 4.63427 81.1303 9.77158 82.2583C11.6343 82.9044 11.1474 81.7643 11.425 80.4205C12.4608 80.8172 13.8085 80.2051 13.617 81.7103C11.5031 86.3822 13.0774 89.7362 14.2343 93.8269C11.9147 93.2953 12.0804 95.3145 11.7335 95.9774C10.5943 94.4878 9.59931 96.8111 9.46277 97.7749C9.91238 98.0208 10.1 98.2608 10.2323 98.7912C10.807 98.7181 11.272 98.5977 10.8093 99.182C11.2374 100.079 11.3766 98.2448 11.9631 98.2049C13.2723 98.5101 14.7196 98.0954 15.5785 99.3384C16.792 99.1871 17.94 98.6004 19.617 99.2215C22.9189 96.962 21.3854 104.458 21.0793 106.53C23.6085 105.813 23.6516 108.506 26.117 107.546C26.8166 109.401 25.7966 109.708 24.1935 109.735C24.7423 112.535 21.9266 115.301 26.4639 115.559C27.0877 116.712 26.6046 117.258 25.617 117.435C26.5373 118.101 26.0223 119.639 25.7323 119.859C23.7693 119.132 25.3885 121.776 23.5785 121.383C23.4377 122.78 22.4966 121.335 21.7324 122.282C20.637 123.174 21.9927 124.245 23.3862 123.61C23.3908 125.967 24.5369 129.378 23.9635 131.272C24.2966 132.379 26.7516 133.495 26.0397 135.024C24.7955 135.59 26.2666 137.451 24.9635 136.979C26.5016 138.049 26.2843 140.88 29.3093 139.871C30.032 142.585 31.5747 138.698 32.6558 139.714C32.8543 141.585 32.6935 143.495 33.3858 145.343C34.2335 144.185 34.5974 146.055 35.0397 146.125C36.4508 146.785 34.2516 146.432 34.732 147.062C34.0862 147.573 34.4843 147.841 33.232 148.314C31.727 148.408 33.7362 150.287 32.6166 150.658C30.5943 155.306 37.047 153.213 40.3093 154.41C41.7047 155.262 40.7112 156.932 41.3085 158.045C42.1077 159.36 42.8016 160.356 41.6927 161.484C41.7985 163.881 46.2889 162.666 46.6931 163.869C46.4743 166.017 55.0554 165.557 53.3085 168.207C52.6331 169.48 54.0274 169.739 52.5781 170.435C53.4654 171.796 53.6531 170.493 54.3858 170.004C53.8004 170.891 54.3427 171.493 53.7316 172.311C52.9077 172.598 53.9608 173.565 54.0004 173.797C54.3508 172.941 54.2489 174.362 54.3089 175.126C55.4093 175.795 57.7901 175.261 59.3858 175.634C63.5054 175.818 66.9431 175.189 65.6928 180.207C70.8612 181.748 66.0931 182.601 67.5 187.28Z" fill="#DBDBDB"/>
</svg>
