<svg width="152" height="166" viewBox="0 0 152 166" fill="none" xmlns="http://www.w3.org/2000/svg">
<path d="M49.4231 165.223C49.3077 163.35 51.1273 161.409 50.9242 159.985C50.6362 158.303 49.3369 157.465 50.4619 156.194C50.9269 155.097 50.2515 152.371 52.7312 152.559C53.0554 151.142 51.0923 152.504 51.0004 151.308C49.1577 149.138 52.2523 147.266 51.1165 145.093C49.2939 144.306 52.6846 142.187 53.3077 141.302C53.7219 140.603 53.2315 139.891 54.2704 139.466C57.15 141.758 56.3931 135.416 57.1927 134.189C58.0892 132.644 58.6273 134.75 59.5392 133.681C60.0015 133.004 60.5535 132.032 61.27 131.804C61.8492 132.846 62.6508 131.525 63.0392 133.016C65.2019 132.045 67.515 133.484 69.0777 133.526C69.9481 131.948 71.9273 130.681 73.1546 130.71C77.5238 133.819 74.9035 129.936 78.6165 129.616C79.7096 129.928 80.4681 130.543 81.655 130.085C82.3773 131.58 82.8777 131.671 83.4239 129.967C85.5931 130.585 85.0381 131.909 85.3469 129.576C86.9046 130.502 87.8519 129.097 89.0396 128.17C91.0927 127.724 93.11 126.31 95.0012 126.215C98.9285 130.864 96.8446 124.394 98.4235 122.659C87.6246 124.279 97.5489 116.667 91.7319 117.929C89.6196 120.174 89.6469 113.655 92.6546 115.898C93.4346 114.433 94.1039 115.701 94.8469 115.82C95.7319 114.063 95.5185 113.358 95.8462 111.793C95.9235 110.522 98.1269 111.07 97.2315 109.917C95.7108 108.579 94.5646 107.986 94.4239 105.735C92.5804 105.305 97.3727 104.68 96.6923 102.725C94.5412 98.4713 98.7016 100.274 97.8477 97.1357C97.3312 95.6446 102.483 95.5633 100.77 96.9399C101.153 100.866 104.457 95.8213 105.462 97.4476C106.707 98.6249 107.892 99.108 109.116 100.028C109.988 99.0697 111.098 100.001 112.232 100.458C113.095 99.9944 113.691 99.6634 113.269 98.2297C113.013 96.848 114.007 96.0085 113.5 94.6733C112.856 93.0333 116.125 93.7833 117.154 93.5394C117.112 92.49 119.47 91.2631 119.347 92.5232C120.042 91.9463 119.177 90.5283 121.078 91.3514C121.5 89.5308 122.15 91.2639 123.347 91.3123C122.771 89.4053 123.528 90.1831 125.385 90.452C124.877 89.8251 125.09 89.7661 125.616 89.7485C126.44 90.3504 126.365 88.3332 126.27 87.8337C128.563 88.325 128.042 85.3908 128.462 83.0258C130.14 75.7984 131.094 83.9775 133.923 79.938C136.1 78.3175 132.749 77.5999 132.615 76.4988C134.671 74.6548 130.582 70.7466 135.462 72.6293C136.452 73.5209 136.115 71.6886 136.769 71.6518C137.159 70.917 138.593 70.9076 139.577 71.3778C141.404 73.4165 142.241 69.8461 143.307 71.6127C144.617 72.1252 144.659 70.3714 144.654 69.8539C145.838 69.4458 146.705 68.8263 148.269 68.525C149.366 68.5183 149.018 66.7641 149.693 65.7894C148.966 64.8771 149.02 63.0975 149.962 62.6226C151.193 62.4358 152.789 62.1266 150.461 61.4114C150.982 59.1264 150.744 57.928 148.152 57.3081C144.388 54.3216 141.941 49.7572 139.23 45.6602C139.774 42.7917 140.943 41.0606 137.768 39.5238C137.118 36.9422 143.39 31.2857 136.268 32.2139C127.727 32.6705 134.416 26.6313 129.885 27.2118C126.873 26.9088 124.669 19.1656 125.077 27.0945C122.26 26.9972 123.116 27.5624 121.77 25.843C119.836 26.7118 116.429 27.9778 113.5 27.4463C111.983 27.3251 114.042 24.9334 113.038 24.2803C112.301 22.9772 109.431 22.7994 109.692 21.5056C106.781 22.4367 106.308 20.5715 106.616 18.0262C107.264 16.6145 104.428 18.183 106.5 16.7372C106.884 15.9515 106.294 14.059 105.578 14.5472C103.311 14.8482 104.824 10.8567 102.961 9.23234C99.6642 7.77483 99.9039 12.4104 96.1927 8.44944C95.6596 7.50669 95.9188 7.01069 96.5773 6.18364C95.6162 5.90613 95.5104 4.82698 94.8077 4.18989C94.3808 6.13753 91.4669 4.21725 91.8458 5.63567C91.6604 8.57765 87.9969 6.72381 86.4612 6.14456C85.8658 5.79318 86.6673 5.40662 85.6539 5.75331C85.5492 5.40114 85.6696 4.8989 85.1923 4.69839C85.1965 3.64894 84.3258 3.22995 83.5004 3.56413C84.0604 2.99934 82.4842 2.06244 83.5 2.27468C82.8731 1.19513 82.1858 1.27565 81.6154 0.985635C81.5115 1.36711 80.9627 0.663956 80.5773 0.829288C80.5462 0.662392 80.055 2.73902 79.4231 1.72748C79.0158 3.81896 79.3662 6.10625 79.0381 8.33296C77.5527 15.5873 75.7208 22.7064 67.5385 21.6213C55.1485 22.4812 60.665 24.6806 54.1935 30.0654C50.4158 35.2149 44.9912 38.6705 40.3085 43.2373C31.7973 52.4518 24.5704 62.9392 17.3069 73.1758C17.54 74.5391 13.8596 75.8254 14.0773 77.945C12.3169 80.1451 10.6339 82.6341 8.46116 84.237C7.11501 89.0231 3.20232 91.0032 1.76924 95.8072C-1.28038 97.8619 1.37424 99.5324 3.34731 100.732C3.90193 105.706 5.92501 110.392 6.07616 115.35C5.54347 117.154 5.58962 119.358 5.46155 121.213C3.33078 122.045 4.24731 123.614 5.92385 123.948C4.57847 124.169 2.8427 130.137 4.96193 127.31C5.14347 126.431 5.9577 126.553 6.38501 126.841C5.89693 127.393 4.85231 128.874 6.00001 128.913C7.71654 130.072 8.03885 127.209 8.53847 130.554C8.89539 131.034 10.0358 131.084 9.42386 131.531C10.2031 131.498 10.0996 132.269 10.5773 132.782C10.7908 132.832 12.4262 132.207 11.7312 133.212C12.1735 133.85 13.2465 133.995 13.6158 133.916C14.1862 134.947 12.0958 135.441 12.5392 136.182C12.1212 136.41 12.3742 137.247 12.8077 137.433C13.0696 137.967 11.9715 138.73 12.6923 138.88C13.2696 138.926 12.4246 140.175 13.8081 140.522C13.2373 141.807 14.8304 142.227 15.2308 143.688C15.0823 146.259 10.8042 144.134 13.5389 148.612C13.8923 150.949 16.4012 151.683 18.0385 152.755C17.7008 154.564 19.3673 157.914 20.6158 155.139C21.8619 154.655 22.7831 154.793 23.9615 154.396C24.7446 153.208 26.2569 154.32 26.9235 154.827C26.59 156.329 27.8431 155.902 28.5004 157.133C29.7019 158.483 29.4196 162.117 31.4223 162.254C32.3008 161.939 33.7608 162.781 34.4996 161.823C35.4035 160.904 34.9446 160.852 36.0769 161.824C37.6565 164.583 38.8535 160.48 39.8846 162.135C40.0831 165.035 43.9042 165.174 45.7304 165.537C46.5735 165.65 46.8258 164.823 47.4996 164.442C47.9965 164.836 48.7446 165.571 49.4231 165.223Z" fill="#DBDBDB"/>
</svg>
