<svg width="95" height="150" viewBox="0 0 95 150" fill="none" xmlns="http://www.w3.org/2000/svg">
<path d="M0.307678 66.0276C1.13114 67.6392 1.62075 69.7541 3.03844 71.6169C2.94844 72.6339 3.13421 76.1305 3.65267 75.9949C7.22382 73.9863 5.40383 77.4786 7.84614 78.77C5.54152 79.144 6.42922 82.0602 6.15383 84.0075C7.62999 83.9406 6.3519 85.9559 7.46151 86.1181C9.0419 86.4921 10.1992 87.8113 11.8461 88.2287C10.9758 90.0783 5.73537 93.2739 8.61537 95.0687C9.78383 98.1237 12.5096 96.8631 14.6923 98.3124C12.9919 99.8782 16.9623 102.579 13.6538 102.026C12.8419 101.397 11.6307 101.007 10.8457 101.322C10.2496 101.491 9.90229 104.137 10.6911 103.824C11.4404 105.678 14.9073 106.482 13.6146 108.748C18.6304 105.263 17.4408 110.957 21.1534 108.553C22.7454 108.028 20.0888 111.538 22.5 111.797C25.1031 113.256 20.8577 113.95 22.3458 116.018C22.9777 117.343 22.9619 120.842 24.8461 118.872C24.9415 117.434 24.3419 116.649 25.9619 115.745C26.8615 115.402 25.2404 114.241 26.1534 114.299C27.0111 115.568 28.3208 112.595 28.4615 114.572C28.6077 115.72 25.6965 122.915 28.0377 120.709C28.1581 118.229 31.3965 119.325 31.4608 121.217C32.1046 121.477 33.4131 120.337 33.2304 121.764C34.7219 122.137 32.9196 119.935 34.8461 119.966C35.8738 119.874 39.8365 122.793 39.1923 120.318C37.8511 118.283 40.2623 119.043 40.9996 120.084C41.0584 121.106 39.0457 121.875 40.7307 122.624C41.9411 122.763 42.2784 124.077 43.2688 124.5C45.2677 124.488 46.5284 125.615 47.6534 127.237C54.025 130.542 45.3596 130.964 50.4608 132.318C53.0107 134.21 45.7838 135.1 51.4996 136.147C53.7684 136.039 54.8154 136.642 55.3065 138.845C56.8077 138.898 56.9357 132.565 59.8077 136.735C60.8338 138.676 62.4234 139.916 61.7681 142.01C64.18 141.477 65.8946 144.426 67.5765 140.915C70.1031 138.02 71.005 144.115 71.9607 137.671C73.9254 137.282 73.1211 140.334 73.385 141.463C71.83 142.679 72.6334 143.99 74.0388 145.019C74.5996 146.927 76.3642 147.597 76.885 145.175C76.6173 143.669 73.8111 141.483 75.9231 140.134C79.945 141.131 75.28 150.47 82.5007 147.442C85.7592 144.603 85.2504 150.782 87.3846 148.734C88.1423 148.582 88.905 149.952 89.7308 149.202C90.6846 146.924 92.1011 147.167 94.0773 146.858C93.8408 145.001 92.5965 147.455 91.9615 146.31C91.6311 145.945 91.1011 144.218 90.3846 144.824C90.6138 145.488 90.6165 146.663 89.5765 146.622C89.7234 145.265 90.4042 145.208 88.4992 144.746C87.5584 143.724 89.4123 143.821 89.5765 143.104C89.5584 142.015 88.9596 143.314 88.4996 142.831C89.1457 141.55 87.0477 142.365 87.7308 140.837C87.4165 140.42 85.2211 140.077 86.115 139.352C86.7931 140.043 88.2869 139.296 87.1534 138.531C86.3888 139.019 84.8592 138.45 86.2304 137.984C88.2165 135.513 84.5992 138.665 84.5 137.398C85.155 137.168 85.4542 135.092 84.6534 135.639C83.7296 136.417 82.6865 135.841 83.3073 134.7C82.7931 134.933 82.1215 134.99 81.8842 134.349C82.1861 133.436 83.5646 134.271 82.4992 132.903C82.6604 132.064 82.7923 131.118 83.1911 130.284C83.1681 129.651 81.7904 129.571 82.1534 128.799C82.5561 128.798 83.0573 129.758 83.3073 128.76C81.9711 128.05 82.9496 128.07 82.8846 126.961C82.313 126.351 81.3288 127.021 81.3077 125.789C81.2873 123.035 82.1569 127.03 82.8073 125.398C82.5096 124.886 82.2461 124.493 82.1531 123.992C82.6954 123.396 84.3173 125.228 83.8457 123.21C83.4661 122.771 83.1946 123.401 82.8454 123.484C82.4465 123.228 82.7227 122.324 81.9223 122.233C82.3369 120.653 81.1934 120.838 80.8446 119.771C82.5919 119.34 79.7642 116.508 82.115 116.292C82.2469 114.02 80.1919 117.65 79.923 115.197C80.3557 114.807 81.1581 115.251 80.4607 114.259C80.3927 113.59 81.0642 113.093 81.1154 112.461C81.9146 111.06 79.3288 111.647 79.5765 110.351C79.7184 109.653 80.2811 110.083 80.6534 110.312C81.545 110.134 81.7688 108.829 80.5765 109.139C79.72 109.297 79.1334 108.29 80.0769 107.928C80.6011 107.874 81.8561 108.702 81.6538 107.224C81.1984 106.707 80.0465 105.856 81.2692 105.504C81.3104 104.631 80.11 104.479 79.9615 103.706C79.3996 102.759 82.66 102.165 81.2311 101.908C79.4034 102.094 82.0158 98.7267 80.5765 97.3748C81.5888 96.8749 79.7427 95.4443 80.5769 94.3648C81.4473 95.4209 81.6919 93.5964 80.3846 93.7007C80.3146 93.2235 80.8211 92.4324 79.9611 91.8637C80.2634 89.7136 81.1919 89.4001 80.9611 87.447C82.3046 87.0042 83.4992 88.242 83.3069 86.4698C84.7954 85.8027 83.06 85.4689 83.115 84.6328C85.1015 85.2035 82.6061 83.7733 84.0004 83.773C83.515 83.0409 83.5242 82.6758 83.5392 81.7401C82.3088 81.1952 81.3934 77.8671 83.1154 78.8474C83.6419 77.8796 81.9642 78.1989 82.9615 77.3625C83.5373 76.6543 82.5604 76.6609 81.9996 76.3068C82.0011 75.869 83.3942 74.1446 82.1538 74.0007C82.4869 72.9587 81.4523 72.596 80.8846 72.3201C80.385 71.1322 80.3781 69.52 80.3069 67.9816C80.1011 66.8555 78.4219 65.8314 77.6923 64.9324C78.6434 63.6031 78.9796 61.9831 80.3077 60.9461C81.7761 62.3301 81.9431 61.7016 81.5381 59.8122C81.2411 58.7081 81.6919 57.9858 80.8834 56.8421C80.8342 56.318 81.66 55.8388 82.1915 55.2388C82.3323 54.3039 82.7738 53.5789 83.6919 54.4188C85.045 54.1456 83.4284 52.4747 84.5761 52.5423C85.1257 51.469 83.3923 50.5642 83.2304 49.4158C82.2631 48.1405 79.2604 48.1737 81.115 46.4457C82.84 45.2688 84.0681 43.2266 82.1915 41.8328C82.8457 39.578 80.1219 38.4902 79.9611 36.4785C79.3354 35.5463 82.1565 34.0133 79.4611 33.6639C78.9384 32.5277 76.4915 31.8038 77.3834 30.7723C79.3911 29.5794 78.4419 28.478 77.8065 26.3158C77.83 24.7133 78.8554 23.3359 80.9611 23.6193C81.3738 21.9065 81.3184 21.1967 79.4988 20.8059C81.2661 19.7474 83.7492 18.4689 80.8454 17.1697C80.5311 13.1396 82.3569 15.1361 84.8461 13.7314C84.875 12.2606 81.85 12.2375 83.1919 10.6037C82.3034 10.6451 82.1165 10.5959 81.4227 9.8607C81.1738 8.89841 82.4688 9.16184 81.4608 7.9455C81.9342 7.65509 81.9604 7.02973 81.1531 6.89097C76.7327 5.70081 85.4123 -0.828854 80.3457 0.285089C78.1811 6.50753 74.5192 -1.8447 71.6915 2.55166C70.3042 4.4868 70.3869 1.34548 68.8458 2.08303C67.9631 0.82564 66.0984 0.0345501 65.4611 1.77074C61.945 5.22748 62.9365 7.65548 57.3069 7.35882C56.7523 7.69925 55.8146 7.04809 55.1534 6.85149C54.9996 7.74538 54.8334 8.12022 53.9611 8.14132C52.5357 6.29413 49.875 11.3909 48.6919 8.92343C45.3061 6.15968 47.0838 12.2774 41.4227 8.64826C38.0065 11.2666 40.8292 12.3387 42.1161 14.1992C41.0592 14.5932 39.9096 14.5174 40.3846 15.8807C37.6073 21.2479 35.5904 16.019 34.3846 22.6034C40.89 25.5243 35.3846 26.3205 38.4604 27.7635C39.5065 28.6195 37.3181 28.3991 36.7692 28.5835C35.5942 30.3381 37.1134 32.5023 35.8454 34.0551C35.9381 35.146 33.2384 34.3221 33.5769 35.1499C31.7461 35.7225 31.6684 35.8156 31.2696 37.4564C30.8204 38.2103 29.8196 37.2699 29.5773 36.8306C28.7061 37.4732 28.6115 38.5101 27.0384 37.8461C26.0323 36.4038 24.2234 37.2508 23.385 37.7296C23.6746 39.4912 21.2184 38.6458 20.4231 37.8468C19.3311 37.7667 20.4219 40.7521 20.3846 41.6378C19.0077 42.3362 19.6854 43.2422 21.1542 43.8274C22.7569 45.6632 19.6546 46.3198 19.1927 47.6964C15.5758 42.1779 15.1734 51.5245 14.8461 53.5593C13.4815 54.7741 13.34 52.1593 13.1931 55.4753C12.8369 56.3035 12.6604 55.6379 12.0769 55.7876C11.6361 55.8083 13.0396 56.7682 11.6915 56.4122C8.05613 54.8738 12.62 58.6979 8.46152 56.5685C8.3819 57.8537 5.6969 56.3719 6.76882 58.3278C6.23959 58.8027 6.42306 58.1405 6.19229 57.8196C5.76383 58.0913 5.27421 58.5345 4.69229 58.2883C4.16575 58.8265 4.42921 59.8509 3.34613 59.539C-0.857718 58.8511 0.69114 62.9336 0.307678 66.0276Z" fill="#DBDBDB"/>
</svg>
