<svg width="97" height="184" viewBox="0 0 97 184" fill="none" xmlns="http://www.w3.org/2000/svg">
<path d="M17.0769 175.857C20.4781 173.454 21.0685 179.666 22.77 181.719C23.2727 183.515 27.3108 183.877 26.9235 181.563C26.7792 180.662 25.5539 179.446 26.1539 178.593C27.8623 177.665 28.5004 181.082 30.5773 180.273C33.3796 179.665 30.4258 177.88 29.8846 176.717C30.1231 174.088 25.9735 177.606 26.6539 174.802C28.4435 171.989 30.1985 176.172 32.0385 176.482C35.4639 175.37 31.41 172.921 32.4223 171.792C34.5327 171.554 33.2616 174.923 34.9231 175.153C38.0531 174.412 33.5585 170.946 36.5 169.955C38.0112 169.299 37.9304 170.991 37.5381 171.909C37.9681 173.731 40.1285 176.755 42.0769 174.88C43.1904 171.095 44.5981 173.989 46.615 171.479C46.9866 173.997 53.1612 175.189 54.6535 173.2C56.3069 170.586 58.6365 173.709 60.6919 173.434C63.0669 172.561 59.1442 169.798 61.5385 168.743C63.3969 168.18 63.6392 171.565 65.5385 170.385C66.1269 168.204 67.9642 168.414 68.0385 166.281C69.0823 165.797 67.8319 162.909 69.5769 163.466C69.7946 162.518 69.8023 161.453 69.1146 160.105C70.0742 158.818 69.8165 158.496 68.6146 157.603C68.3027 156.255 69.3438 157.146 69.6538 156.509C69.3615 155.418 71.3862 154.421 69.7685 153.109C70.0415 150.955 70.6973 147.75 68.7692 145.526C69.0161 143.844 68.5123 142.589 69.3077 141.344C69.1431 140.727 70.6196 141.434 69.7308 140.445C69.2196 136.479 67.3073 137.63 70.1935 132.51C71.1315 129.796 76.5496 132.589 73.6542 130.048C73.2831 129.534 74.7508 128.653 74.8842 127.82C73.6777 126.935 74.6992 126.741 75 126.022C76.1012 126.591 76.4319 126.507 76.6915 125.513C78.0669 127.649 80.35 126.58 79.6919 124.263C80.0646 123.185 81.8615 123.155 82.7304 123.207C83.9865 124.882 85.3365 125.513 86.6919 124.966C88.2796 125.967 88.2319 123.833 88.6534 123.364C89.2046 123.81 89.6269 122.784 89.9234 122.348C89.9511 121.919 89.1081 121.012 89.9615 121.019C91.0719 122.744 90.3173 122.318 91.4996 121.37C92.0154 120.614 91.9085 122.12 92.4615 122.152C93.0465 121.064 93.8773 123.508 94.615 122.308C96.1019 122.171 96.7035 120.358 95.7689 119.221C95.0758 118.745 94.5088 119.518 94.3461 118.361C93.9442 117.143 94.0754 117.106 94.8077 116.407C94.4038 115.563 93.2631 115.121 93.7692 113.905C94.5842 113.335 94.2789 111.835 93.7304 110.739C94.5862 109.074 93.1731 107.579 91.615 106.87C91.4223 105.55 93.4558 105.906 91.4996 105.032C91.2796 104.103 92.1231 104.141 92.7308 104.016C92.5327 103.251 92.8658 102.624 93.115 102.179C94.8827 99.6851 91.5754 102.212 91.3081 99.9118C88.3858 99.9204 87.2092 100.31 88.9235 96.5903C89.7362 97.3525 90.1315 95.8719 90.3461 95.5346C89.4104 95.3744 88.2938 95.6315 87.3842 95.1828C87.5331 93.2238 87.4235 90.7904 89.7304 92.9944C91.0477 92.0032 89.8342 91.3008 90.5377 90.2189C90.2492 89.0339 88.1515 88.9776 88.7689 87.6788C92.0623 83.7229 92.6269 84.1024 89.0754 79.8233C88.2046 77.6079 89.8604 77.7256 91.5381 77.5169C90.8281 76.6413 92.4919 75.8119 92.9223 75.1322C92.1919 75.0744 91.7877 74.5061 91.3454 75.289C88.8019 75.7119 88.55 71.9561 85.6527 71.7717C87.455 68.431 87.0908 68.6174 83.7292 68.5275C83.2423 70.4373 83.4304 68.7601 82.5373 68.5658C82.385 67.0028 80.9154 66.3239 81.4985 64.8136C80.8296 64.037 80.3642 62.4298 81.3835 61.2177C79.6996 61.6504 79.4996 60.674 78.2681 59.693C77.0865 62.6272 76.6281 57.3701 77.6904 57.505C79.8635 55.0086 74.9773 51.1707 78.6138 50.3519C81.5392 53.3193 81.955 46.681 83.1535 49.7261C83.7669 49.9833 84.2708 49.2587 84.3838 48.9061C85.2234 43.8246 80.7231 45.8133 81.2288 43.8254C81.7923 43.2473 81.2212 42.9315 81.3454 42.2615C81.7219 42.2045 82.5058 41.9313 81.8073 41.8316C80.7938 40.1783 82.2577 38.9326 83.9223 38.5879C84.6069 37.8492 82.7615 36.7266 83.5 35.3039C81.9027 34.9302 81.3069 39.8758 81.2292 35.4993C81.4111 34.0403 80.7412 35.617 80.6142 34.8353C80.9246 33.4243 78.7669 33.0186 79.9608 32.0993C80.3562 25.3042 75.8623 35.3254 73.8461 31.0049C73.6673 29.5927 72.6508 29.6091 71.4608 29.4414C72.0066 27.0861 70.0308 29.0916 69.2689 27.4477C68.3139 26.6542 69.8535 27.0357 70.2304 26.0797C69.3204 24.3755 66.6773 22.6397 64.5381 23.305C66.5935 18.3548 60.3188 19.9882 61.1908 16.5822C61.7819 14.1601 63.9592 11.462 63.5377 9.19465C62.3169 9.73286 61.2089 9.45495 61.6919 7.90481C60.0169 6.56222 57.8819 5.93998 58.0381 3.29231C52.4935 3.77228 55.3273 2.92725 53.8846 0.829908C53.4185 -0.325466 53.2369 2.16664 52.2685 1.10351C51.5796 1.94815 50.7061 2.7248 51.3077 4.27025C46.7635 2.79046 48.5665 5.83797 45.9604 6.38165C42.1777 5.6273 41.64 3.51823 39.5377 7.90599C36.5842 5.09808 38.7123 9.2947 35.8065 8.41371C34.9508 8.80808 35.6519 8.62125 35.3069 9.27399C34.7342 9.71956 34.4846 9.60348 34.7685 10.6807C33.1608 11.4276 36.2315 10.751 35.7685 11.1095C35.7023 12.3055 34.3789 11.0235 34.6146 12.0874C33.1327 12.0475 33.5562 11.847 33.4996 10.4845C32.5331 10.4704 33.2504 11.8966 32.5758 12.4388C33.6969 13.0188 32.8719 13.8466 31.9604 13.4163C31.6323 14.5748 32.4327 16.4959 30.6142 15.6438C30.7908 18.7132 28.6012 17.4367 28.3831 19.865C27.9535 20.8496 25.3781 18.9149 25.23 21.3503C24.9739 22.6573 24.2792 23.0751 22.9985 23.4609C23.585 24.2598 23.8381 24.6605 22.7292 24.5557C22.2258 24.2653 22.7681 25.0748 22.6908 25.2593C22.2088 25.6826 21.6446 25.0459 21.5369 25.298C20.8323 25.5391 22.41 26.7734 20.9596 26.3533C20.9735 27.6533 19.4788 27.3242 20.1519 29.0897C20.7862 29.2562 19.6835 29.4528 19.5369 29.0506C18.7269 28.8743 18.6246 29.8964 17.9215 29.6763C17.2715 29.2366 18.4031 29.1858 17.8065 28.777C17.8031 29.5532 16.3 29.305 15.9985 29.4414C15.3865 29.4285 14.6266 28.8817 14.1139 29.402C13.5073 29.4219 13.9085 30.614 12.8442 30.1833C11.8354 31.5231 9.24077 32.7637 9.575 34.7567C8.77731 36.5652 7.11155 36.3006 5.84462 37.0628C5.13886 37.1999 5.00731 36.0102 4.46001 36.9455C5.2927 37.907 3.52385 39.4755 5.69116 39.6033C6.06462 39.2336 5.94078 41.635 7.3454 41.9082C9.72463 44.4335 1.28693 41.7179 4.42231 46.3655C6.74308 48.3507 3.42425 48.5207 2.5754 49.961C4.60502 50.1373 4.225 51.0023 3.96 52.6197C-2.53615 52.7533 3.92039 58.2984 0.499237 59.4593C-0.279609 60.7026 0.484623 60.9433 1.5377 61.3354C1.85078 62.66 3.02539 62.5736 3.88386 63.446C1.93924 65.1138 3.25885 67.0036 4.72962 68.2539C5.25731 70.5823 5.97231 71.3343 6.19116 73.8037C5.00039 74.5159 1.90155 76.6996 4.57578 77.2042C5.77771 77.9953 8.81924 80.8532 7.0377 81.8163C8.04885 83.4712 6.49578 83.2332 5.5377 83.1057C5.2654 83.9101 4.68808 85.3625 3.80693 85.4126C4.51232 87.0936 4.40693 88.2099 4.69116 89.9856C5.30847 90.3131 4.17309 91.0319 3.88386 90.6891C4.03001 89.6299 3.2554 89.9997 2.80732 90.4937C-0.416911 94.6055 1.26309 93.7054 3.19232 96.7857C3.58117 98.3167 3.2427 100.108 3.88386 101.32C4.87924 101.673 5.66347 102.643 5.53808 104.056C4.28539 106.033 6.2604 105.121 6.0004 106.206C6.23617 110.101 5.36347 105.165 5.19155 109.138C5.87847 110.304 6.81808 110.742 6.57539 112.148C7.305 112.465 7.05117 112.839 6.46117 112.929C6.55194 113.168 7.38769 113.961 6.615 113.711C4.93962 113.412 8.14155 115.071 6.30732 115.469C6.44924 116.929 5.6177 116.355 4.23039 116.33C3.27155 116.758 4.61924 117.445 3.76886 117.932C3.82847 118.727 3.32924 119.14 2.96155 120.473C3.68732 121.494 2.89809 122.802 4.30732 123.013C4.33039 124.578 2.5477 122.41 3.6927 125.046C3.62308 126.223 3.88231 126.813 4.07654 128.603C3.71 129.983 2.81578 131.028 4.65385 131.064C2.95193 131.878 2.35963 132.873 4.23117 134.114C3.95386 134.898 3.34001 135.431 4.6154 136.107C5.41078 138.084 0.981927 136.076 3.1527 138.14C4.31462 137.776 4.94078 138.717 3.80693 139.273C3.26808 139.132 2.4577 138.6 2.57616 139.703C4.4027 140.817 4.53501 140.968 3.49847 142.947C3.51424 143.538 4.13001 144.303 2.99886 144.041C2.76425 144.616 3.65924 145.722 4.1527 144.94C5.3804 143.537 5.37039 145.47 4.03655 145.916C4.09347 146.638 4.90809 147.078 4.15232 147.637C4.30386 148.049 4.84963 148.709 3.99847 148.692C3.2677 149.444 5.1627 149.431 5.03694 150.255C4.57924 151.132 5.81847 152.963 6.49808 152.054C8.45424 154.554 3.78309 151.408 5.53732 153.929C6.29694 156.409 3.76348 152.307 4.30655 154.789C4.16194 156.134 6.47924 155.233 5.80655 156.587C4.5954 157.331 7.41962 157.851 5.76924 158.19C5.4527 158.122 5.23539 157.341 5.07693 158.033C5.14155 158.706 6.36846 158.701 6.15385 159.441C5.38462 160.044 6.32386 160.864 5.4227 161.473C5.73847 162.504 6.17771 162.736 4.88425 163.192C4.9004 164.101 6.11077 163.693 6.30808 163.856C5.46616 165.806 7.67654 164.372 8.07693 164.755C8.00231 166.333 6.86269 167.847 9.46193 165.85C10.885 166.669 7.86732 167.049 8.92308 167.726C9.54847 167.957 10.4254 167.078 10.5766 168.117C10.4373 169.133 9.31193 168.265 8.88423 168.508C8.87346 169.497 10.6404 169.135 10.7304 170.071C10.0781 171.384 12.2231 170.535 11.4996 171.83C12.0985 171.973 13.1281 171.353 12.2689 172.534C9.07731 173.535 14.3712 173.994 12.4612 175.192C13.6462 176.772 13.185 173.563 13.7681 173.706C15.8777 177.36 16.265 173.854 17.0769 175.857Z" fill="#DBDBDB"/>
</svg>
