<svg width="145" height="154" viewBox="0 0 145 154" fill="none" xmlns="http://www.w3.org/2000/svg">
<path d="M9.38464 120.603C16.8496 115.479 8.8658 122.513 16.577 123.065C23.6623 119.992 21.6981 122.924 26.9996 125.411C29.0023 126.693 27.8996 130.008 30.8854 131.155C33.1935 134.418 38.6527 130.37 39.8846 134.986C40.1108 136.567 38.0181 139.268 39.8073 140.263C41.3685 141.004 42.3304 138.88 42.7304 137.839C43.4681 138.005 45.5019 138.165 44.7692 139.364C43.9989 144.672 48.9185 141.663 51.0385 139.715C51.5439 139.067 51.8323 140.002 52.1923 140.224C52.76 140.128 52.9277 139.176 53.5769 139.051C55.4542 139.624 55.0073 142.875 54.1154 144.288C53.6292 145.486 51.4096 145.383 51.4227 146.79C50.9177 148.639 53.1719 149.227 54.2692 147.963C54.9469 146.288 55.5712 144.015 57.8077 145.188C59.2735 146.174 58.3612 148.104 57.6919 149.213C58.2308 150.45 58.6943 151.791 59.3843 153.005C64.0877 156.506 59.9366 149.585 62.9616 148.236C63.1577 147.281 61.1323 147.18 63.3465 146.907C64.1527 146.144 64.5446 145.355 65.8081 144.993C66.3592 144.058 66.3435 145.096 65.8462 145.187C67.1508 145.769 68.2616 146.591 70.1154 147.025C69.3489 148.602 72.1935 146.919 71.6927 147.728C71.655 149.621 73.4523 149.223 74.5773 148.784C75.9319 147.607 77.125 150.241 78.3462 148.862C83.2243 148.538 79.6331 153.293 82.1919 153.748C81.8916 151.539 86.2931 152.908 85.4996 149.996C85.4562 145.711 87.3239 147.295 89.6546 147.104C89.9439 147.763 90.5019 149.88 91.1927 148.824C92.235 145.782 91.5785 140.725 95.3077 145.658C95.5827 147.072 98.9404 146.847 97.0773 147.885C96.9777 148.32 99.4077 147.412 99.7304 148.472C100.922 148.741 100.615 147.391 101.846 147.886C103.11 147.707 102.555 146.761 103.307 148.394C104.042 149.4 102.012 148.395 102.154 149.566C101.459 149.742 101.167 148.954 100.385 149.488C100.377 150.194 101.06 150.552 101.615 151.052C102.091 150.885 102.326 150.363 102.923 150.583C103.563 149.992 103.553 151.349 103.846 151.951C104.582 152.265 105.626 151.608 106.154 152.498C107.641 150.822 110.116 153.258 110.039 151.13C110.794 149.567 113.36 149.47 114.923 149.488C115.074 151.751 117.807 151.247 119.153 151.364C121.403 151.348 120.668 151.005 121.807 149.332C122.164 146.876 126.705 153.165 125.038 149.605C126.834 149.198 125.79 145.219 124.846 143.43C126.868 144.057 128.673 142.599 131.038 142.805C132.678 142.745 130.381 140.735 131.577 140.381C132.651 138.46 128.597 134.914 130.768 134.948C131.624 134.326 131.267 132.153 132.692 132.329C133.044 131.165 133.048 130.914 133.038 129.906C131.618 128.872 132.315 128.754 133.461 127.678C135.981 125.847 136.288 124.337 138.576 123.34C140.73 122.467 141.965 121.899 141.73 119.392C142.365 118.515 145.646 117.885 143.038 116.655C144.332 116.094 145.231 116.763 144.538 114.74C143.844 114.44 143.952 113.814 143.884 113.138C144.5 110.434 139.836 112.026 140.961 108.995C142.716 108.825 143.467 108.504 143.076 106.688C142.37 106.989 141.932 106.125 141.807 105.478C141.505 105.314 140.029 104.696 140.73 103.875C138.523 104.531 137.789 100.874 136.076 101.373C135.242 98.4116 137.842 98.9654 136.923 97.6604C136.027 95.4501 132.985 95.0659 130.884 94.1032C132.015 90.2099 126.705 85.3163 128.883 84.2145C129.943 83.7525 126.852 82.9809 126.615 83.5109C126.046 82.569 125.599 81.9358 124.692 81.4394C124.972 78.6291 127.352 76.1331 126.498 74.0526C124.316 74.8812 123.726 75.72 122.653 72.3316C121.702 70.0455 123.22 72.5705 123.922 71.668C123.729 69.8673 124.204 66.9175 126.537 68.4637C125.545 66.733 126.76 66.1921 127.923 65.9619C130.616 65.9071 127.427 64.6951 127.845 63.03C128.517 61.9962 128.598 60.5156 128.731 59.0046C127.922 59.141 127.13 56.7826 127.884 57.245C129.767 57.7246 128.797 56.7216 128.268 55.9563C128.082 54.1896 126.861 53.6721 126.73 56.0732C125.277 54.7786 123.713 55.5901 122.577 53.6882C123.596 52.9021 121.893 51.4673 122.537 50.679C122.959 48.1427 118.263 49.9008 117.653 47.5916C118.009 46.1329 117.052 45.284 116.499 44.2693C116.611 41.9437 119.61 42.15 120.537 39.8127C121.204 38.3556 122.327 37.9976 119.69 36.8039C118.967 35.5981 118.639 34.8559 119.73 33.9502C120.223 33.8205 121.215 34.6984 120.999 33.7157C121.371 33.3073 120.462 32.7992 120.23 33.4812C119.84 33.011 119.225 32.0257 118.538 31.996C119.641 30.2125 116.508 27.1458 116.729 25.5468C115.568 24.1175 119.281 22.6189 117.576 21.4436C113.794 20.0197 111.119 19.2568 109.654 23.4761C108.597 23.4491 108.532 22.291 107.768 23.9451C107.155 22.3473 105.598 23.1102 104.23 22.9285C104.378 24.8597 104.06 27.8791 102.345 24.9223C100.938 26.744 99.1866 26.1198 97.1527 25.899C95.4777 27.0024 95.1669 25.4734 93.6527 25.9377C92.54 25.2041 87.8219 27.0086 88.6912 24.3352C89.4854 23.2146 90.0643 21.4843 88.2296 21.4041C88.4435 20.6431 87.3577 18.9875 86.345 18.7467C86.5935 17.0531 89.0442 16.4277 88.9604 14.3292C90.7231 14.3163 87.9427 12.21 87.2685 11.9849C87.7616 9.65106 85.1677 9.71478 87.5769 7.80232C86.8943 6.93383 87.1069 6.38272 86.2681 6.24006C86.6404 5.30943 86.6762 4.37684 85.8065 3.69871C83.9235 2.95491 81.7873 -2.53742 80.73 2.99477C78.5981 3.54237 74.2139 4.07001 76.0762 6.55078C74.8846 6.03133 74.9939 9.08589 74.1916 8.19317C73.0492 6.37138 72.1689 8.79157 70.3458 7.09798C65.7462 5.00885 68.8462 15.4139 63.4993 6.66883C62.9889 5.97388 60.3019 8.84707 60.3458 6.19901C57.9673 6.42493 57.3216 5.76047 56.9227 8.81892C55.24 10.7771 53.0985 8.11265 50.9608 8.03682C49.3227 9.42554 49.2846 6.98816 48.3077 6.94204C47.7896 10.4836 44.5489 8.13533 41.4227 9.91295C38.9827 11.6573 35.7827 9.9618 33.1539 9.95125C30.5146 10.552 28.9631 12.0114 26.3077 12.1404C22.9923 14.0052 26.9458 13.5729 24.885 15.2282C22.2616 18.0674 19.7173 17.3619 24.5773 21.7168C24.7246 24.2074 22.72 24.9477 21.6539 27.1103C21.5373 27.9518 23.3835 28.2332 23.5381 29.2209C22.7669 30.0792 23.7065 30.3411 23.5004 31.2146C21.9973 32.859 22.4339 30.8179 20.7689 31.097C20.0389 33.5864 20.4077 35.0302 23.2312 34.4189C22.9708 35.9843 18.3535 38.8676 23 38.8743C23.6566 39.5821 23.9423 38.7644 24.6154 39.2651C25.1877 41.348 25.9527 39.2311 26.6927 39.9683C26.3958 42.2024 24.1258 43.1761 24.8069 44.4632C26.8696 44.625 23.6066 45.0209 24.7693 46.0657C26.3612 46.4499 27.2085 48.0383 26.9227 49.3884C26.5889 50.156 27.5427 51.5021 27.2296 52.3585C26.7404 53.0702 26.5258 53.6163 26.9623 54.5477C28.8296 55.5135 26.3089 55.925 27.4615 57.4787C27.3773 58.6474 28.2562 57.6557 28.7693 58.2213C29.9012 59.6941 28.8546 61.0081 27.4227 61.5041C26.4808 61.7918 26.1073 60.6056 25.23 60.9577C24.825 60.6419 25.0531 59.8524 24.1919 60.3714C23.9189 63.0347 22.3469 58.0794 22.8066 60.996C23.0812 61.929 22.0554 62.495 21.4996 62.4813C21.0796 62.6345 21.7919 63.5362 20.845 64.0056C20.6331 64.7447 19.84 63.705 19.2304 63.9274C18.2435 64.9355 16.7577 63.3576 15.73 62.2081C10.9766 61.9282 14.1615 64.3734 11.5385 65.9212C10.4842 65.6093 9.4577 63.5311 9.34617 65.53C8.36963 65.0457 7.93848 65.0082 7.15348 65.9212C8.92425 67.7203 5.14194 68.4985 7.73079 70.1808C3.0554 69.3924 3.42001 72.0409 1.1154 75.654C2.05886 76.4673 3.49078 79.7517 2.7304 79.9135C0.363473 81.7685 3.26734 86.4545 3.07618 89.3722C2.73272 90.9263 3.02579 92.3912 3.46156 93.5931C3.05002 93.9164 2.38654 95.2038 2.65231 95.6256C2.19808 95.9089 1.33425 95.4684 1.6531 96.4858C2.1531 97.307 3.63463 97.837 2.15232 98.8306C1.97886 99.7651 3.21656 100.889 2.7681 101.762C2.17579 102.142 1.25811 102.992 1.53695 104.459C1.1408 105.279 -0.0542127 107.23 1.34463 107.429C9.15656 109.777 3.76233 118.916 9.38464 120.603Z" fill="#DBDBDB"/>
</svg>
