<svg width="227" height="126" viewBox="0 0 227 126" fill="none" xmlns="http://www.w3.org/2000/svg">
<path d="M31.423 92.7671C32.9211 93.4984 31.9307 91.4023 32.7307 91.2424C33.7138 91.0474 34.2808 90.0026 35.3846 90.1093C35.9292 90.5498 36.1296 91.1189 37.1542 91.0857C38.2857 90.6444 38.8734 89.9877 40.0769 91.0868C40.4492 90.857 42.0231 89.9358 41.9227 91.1255C44.5354 88.4134 43.2842 91.7055 46.2696 91.7517C46.6496 91.2056 48.8773 92.2645 48.4226 90.9692C49.7011 90.3243 50.6373 90.9914 49.8457 89.2494C52.875 88.5068 54.3477 89.2533 57.3846 88.7417C57.8 93.8791 60.6065 85.7626 61.1923 91.2823C62.1511 91.2866 63.08 90.5658 63.7304 91.3604C63.7815 91.1071 64.9419 90.3153 65.1146 90.8519C65.1823 88.6037 66.7261 89.6485 68.5 89.3276C66.2811 84.0717 74.5758 85.6739 76.6927 86.3164C78.2146 85.7243 78.4704 87.0837 79.1923 88.1159C80.1646 88.9445 78.4207 89.0024 78.9611 89.7966C81.4677 90.6788 81.4977 92.0902 81.9223 94.9176C89.0369 91.4589 85.0862 95.516 88.5762 94.7226C89.5742 95.1056 90.0615 92.3024 90.3842 94.6827C90.6 97.0149 93.5039 93.3178 95.5765 93.8631C95.7604 94.8203 96.0396 96.4134 96.1919 97.3796C95.1873 97.1842 94.1119 98.9579 94.8842 99.3343C98.1884 101.574 95.0815 98.5096 99.0381 98.8258C98.6069 96.0398 98.2227 94.7144 100.076 96.0894C101.755 95.7638 99.7323 93.3956 102.307 93.7064C104.304 92.9418 103.494 96.0362 106.307 94.6428C106.519 95.6763 106.69 97.459 108.692 96.519C111.735 94.8101 112.982 102.24 109.384 101.522C108.146 102.37 109.748 108.141 110.267 109.106C111.201 109.334 111.068 108.178 111.576 107.894C112.563 109.162 115.585 105.801 115.383 109.692C115.155 112.117 117.169 110.809 117.191 113.366C118.089 117.539 114.058 114.208 116.307 119.268C113.139 118.826 113.768 123.67 116.652 122.238C119.618 122.131 121.844 119.6 124.383 120.048C128.539 118.894 128.695 124.414 131.383 125.209C131.602 124.391 134.107 125.192 136.113 124.348C134.354 120.294 139.803 117.109 141.922 121.066C143.124 122.721 144.49 120.636 145.383 121.261C144.445 121.9 146.645 120.898 146.728 121.144C146.552 123.081 150.331 120.785 151.613 121.145C155.343 120.165 159.16 120.663 160.459 116.844C159.981 116.452 158.872 115.086 160.806 115.086C160.809 112.8 159.782 112.735 159.073 111.764C158.942 109.628 165.342 111.822 163.651 108.793C161.444 108.863 161.164 108.754 160.998 106.056C163.397 105.88 166.893 104.336 167.075 106.644C169.561 105.781 174.381 106.331 170.998 102.578C170.155 100.984 173.688 103.221 173.191 101.484C174.809 100.924 175.616 102.062 176.998 100.741C178.253 100.77 177.8 108.569 179.192 104.651C179.055 99.5313 184.198 103.073 183.691 99.9214C185.875 97.3093 186.515 103.654 186.075 99.4527C184.596 96.7605 190.973 97.7978 190.728 95.2303C190.851 95.1205 187.665 96.9923 187.884 95.2315C188.401 93.9651 191.582 95.1056 190.267 92.2602C188.77 92.1074 189.607 89.9021 191.152 90.3067C190.944 91.4433 191.529 92.4278 192.69 91.9076C193.25 92.7151 192.215 97.8045 194.115 95.6219C196.902 92.7804 190.253 92.8683 197.499 91.0876C201.664 91.3045 201.102 88.5185 204.922 87.8826C204.405 86.5372 204.88 87.3033 205.153 85.3807C206.278 86.0588 206.29 86.8937 207.615 85.0676C206.958 81.8161 205.075 81.0043 206.076 77.329C204.643 76.6791 203.093 78.2921 203.922 75.648C202.02 75.7332 203.985 73.6988 203.421 72.4042C208.53 70.09 196.269 54.2931 211.845 57.5521C210.021 54.4236 212.76 53.7502 213.883 55.9097C215.633 54.0453 218.068 53.5008 219.499 52.5487C217.857 48.8981 222.112 50.7867 221.73 47.3894C218.614 48.5436 217.289 46.5479 215.038 44.3794C212.034 45.1416 210.601 42.6397 209.576 40.7448C209.321 36.1991 210.758 39.6152 213.73 38.5564C214.116 37.917 214.296 36.3543 215.23 36.7581C216.21 37.4976 217.423 36.1902 217.383 38.8308C219.106 38.3133 219.522 38.275 221.076 38.4403C222.184 35.5261 222.673 42.9731 224.307 39.9244C223.36 36.2718 226.98 32.6267 226.423 29.1758C223.944 27.8766 222.398 25.9212 219.384 25.8156C218.494 25.637 216.434 26.8139 215.615 25.3059C213.05 21.6022 213.33 23.5252 211.153 25.073C210.769 25.9724 210.874 27.0605 210 28.1201C209.521 27.9102 208.158 27.8782 209.191 28.2776C207.087 29.4592 207.412 24.8412 203.731 28.3953C204.709 23.6128 201.683 25.6311 199.615 25.1508C199.557 27.408 200.056 27.4029 198.076 26.1271C196.874 25.1434 196.697 24.8533 195.346 25.5022C195.554 24.1295 194.687 22.3284 194.268 20.616C194.02 19.7124 196.265 19.6084 195.769 18.2318C194.867 17.556 195.744 16.1431 194.924 15.8863C194.34 14.6477 191.58 13.2914 192.73 13.0338C195.889 12.3381 192.929 10.5644 192.423 8.9302C189.607 3.8815 192.188 11.7229 191.423 13.3848C191.194 14.6699 191.323 14.4284 190.269 13.9715C187.606 17.2387 189.622 11.8268 186.77 13.112C185.957 12.4061 186.491 10.7321 186.423 9.90696C185.051 8.53935 184.799 6.54479 183.462 5.48986C181.484 5.3558 179.651 5.95812 178.578 4.00462C176.024 4.42244 177.735 2.03314 177.001 0.838684C170.252 3.20532 171.532 -2.20491 166.154 4.94308C159.27 11.9855 180.977 8.53662 168.539 14.4018C168.078 14.7571 167.486 14.7266 168.269 14.949C169.095 15.4458 169 18.9838 169.117 19.7953C167.532 19.6162 169.654 21.0589 170.577 21.2422C172.27 20.7239 168.679 22.9725 168.578 22.8834C166.821 23.2145 165.506 23.9923 163.385 24.0947C163.45 22.7028 162.488 23.0964 161.462 23.3137C161.68 22.4843 159.62 21.8543 160.001 22.9616C161.395 25.6452 158.509 24.749 156.77 25.0331C156.49 23.8574 156.047 24.2549 155.539 25.0339C155.21 25.8547 152.933 22.8291 152.885 24.369C153.61 24.4214 152.443 25.4811 153.386 25.7371C152.675 27.3255 151.717 25.5514 151.27 24.5254C151.695 23.1719 151.21 22.3284 150.501 21.0859C150.961 18.6504 149.675 21.2078 149.193 20.2655C148.913 18.9776 149.306 17.5443 148.078 17.8417C147.364 15.3676 146.996 19.2887 145.078 18.9361C143.05 18.1392 144.406 16.4292 143.155 15.105C142.089 14.6105 141.174 13.9257 139.693 14.9506C139.064 13.9382 138.795 14.2017 137.616 14.5187C137.215 15.4063 138.688 16.4139 136.924 16.1216C135.3 15.3668 136.479 23.1128 134.77 21.8672C132.233 20.6301 134.632 23.9915 130.808 23.9774C130.587 25.3849 132.842 26.2362 131.423 28.5122C125.17 29.9884 131.631 27.2149 126.154 28.1596C124.906 25.4619 122.819 30.0596 121 28.6681C120.293 28.9413 119.499 31.9439 118.732 30.6619C120.04 27.5084 113.437 27.3697 112.886 25.3845C111.47 28.6196 106.363 24.7642 106.924 28.9804C107.18 29.931 103.743 29.7691 103.885 28.8639C103.198 29.17 101.221 29.3783 101.77 29.9184C99.4946 31.5577 102.137 28.9218 100.732 28.4731C99.5231 29.8684 100.638 30.4152 100.616 31.8731C99.1446 32.1401 99.6496 34.6048 99.5003 35.5081C98.7734 36.1519 97.3773 36.3457 97.8088 37.6191C95.6919 38.0983 93.5935 39.4694 92.0777 41.0196C93.3439 41.7888 92.0488 43.6067 91.8469 41.7622C91.0519 41.2975 91.9554 42.3465 91.4235 42.6999C90.9204 43.3999 89.9612 43.7298 90.6931 42.5826C89.6169 42.1421 90.5115 45.7067 88.5388 42.8554C87.885 43.6071 88.788 44.1253 86.9996 44.1843C85.2434 41.5371 86.9158 40.8546 83.0385 42.0749C82.8196 41.1048 82.7254 40.472 81.5773 40.8628C80.4865 40.1265 81.0389 41.3409 80.5392 41.5273C79.3508 41.3815 77.9519 40.7987 77.6158 42.778C77.0465 43.3909 77.0734 42.035 76.4615 42.6604C76.215 43.7532 75.4219 42.257 75.4619 43.9111C74.6561 44.4364 74.1412 41.7114 73.8842 43.5199C72.8815 44.0882 72.755 41.8459 71.8854 41.722C71.3146 42.3141 71.1204 40.8754 70.1538 41.1751C69.1404 41.8693 68.5969 40.7765 67.3465 41.1364C64.8265 39.2748 66.9157 41.3584 65.6934 41.2537C62.8392 40.524 64.0592 42.7202 62.5011 42.583C61.3584 41.342 59.7365 43.1361 59.2704 40.7839C58.29 40.8926 57.7596 41.8251 56.0773 40.6662C55.1354 40.4427 55.395 41.7802 53.8457 41.2138C49.738 39.3189 49.0069 45.1236 46.0011 44.6155C50.3177 48.9669 45.7469 48.7163 43.885 51.611C42.7415 52.8282 45.1223 53.2847 45.6931 54.2306C44.8473 54.8395 45.3807 55.9667 45.6154 56.6148C43.2938 60.2302 35.6061 52.0808 35.6546 60.7969C31.6838 60.7004 29.2369 63.0436 26.8088 64.7059C25.6088 64.7536 23.5546 61.6037 22.8465 63.5717C23.7088 65.3528 21.0015 65.4919 21.193 66.933C19.3842 67.4978 18.7434 65.2328 17.3469 64.5101C12.2984 64.6508 12.1342 68.2967 7.26996 69.2782C8.86265 70.9256 1.43151 73.261 3.73112 74.4379C4.76958 75.4662 3.6419 75.5311 3.9242 76.2745C4.33843 77.0637 3.54073 77.4705 2.88573 77.2517C2.65726 78.4563 2.19498 79.6011 1.61652 79.9099C-0.0204066 79.7047 2.03536 81.7465 2.15498 82.2933C2.91921 83.9201 2.39457 85.2291 2.30803 86.5931C3.07342 89.387 7.06803 85.0981 7.80803 89.0172C11.4538 88.0377 8.58419 84.5462 13.6165 86.0874C14.2177 84.9125 14.2592 86.7155 15.0781 87.1404C15.2577 87.9189 14.5307 88.4212 14.7319 89.2514C16.5142 89.0126 16.4934 90.3837 17.155 91.9486C18.3096 92.2813 19.7457 93.147 21.0777 92.6518C22.2907 92.0382 23.6615 93.1478 24.77 91.7911C26.9623 93.09 29.1115 92.6268 31.423 92.7671Z" fill="#DBDBDB"/>
</svg>
