<svg width="218" height="146" viewBox="0 0 218 146" fill="none" xmlns="http://www.w3.org/2000/svg">
<path d="M198.038 113.196C198.202 109.903 195.645 111.385 195.692 108.388C196.455 107.934 199.089 108.645 198.307 107.059C199.771 107.324 201.714 107.762 200.73 105.456C200.745 103.248 199.636 103.937 198.076 104.206C198.264 103.298 196.883 100.576 198.115 100.571C197.386 99.2093 196.888 99.8327 198.346 98.9685C198.357 97.9636 196.953 97.357 197.962 96.467C198.482 95.8319 197.576 95.6595 198.116 94.9036C198.033 94.2501 198.073 94.3962 197.769 94.0046C197.871 93.9757 198.44 94.3439 198.115 93.7697C199.497 93.8041 198.739 92.5608 200.154 93.7705C200.778 93.4445 200.5 93.0322 201.539 93.3401C202.224 92.7046 199.985 93.0118 201.154 92.7148C201.905 92.2297 201.845 92.4142 202.269 93.3401C203.275 92.5745 204.579 94.61 205.307 93.6134C205.734 94.476 205.974 94.9395 206.846 95.4109C206.612 95.622 206.329 96.7488 207.307 96.4275C207.59 95.8831 208.115 96.0875 208.269 96.623C208.908 96.3724 209.268 96.6417 209.923 96.193C209.884 97.5931 211.67 97.3804 212.346 97.6384C215.233 95.4512 214.901 90.5471 213.729 85.6786C213.675 84.9977 214.311 85.7333 214.5 85.9135C215.136 85.7325 214.525 85.0258 214.923 84.78C215.289 85.4917 215.757 84.0018 217.192 84.5068C216.1 81.8661 217.743 73.7883 213.732 75.2818C213.307 73.0719 209.635 76.3484 210.232 71.7637C211.267 71.0781 209.575 70.2987 211.23 69.9669C211.486 69.0656 210.053 66.6462 211.615 66.9569C210.278 64.8123 213.33 67.0824 212.268 64.3382C212.006 63.4732 210.098 59.8347 212.846 60.156C212.163 58.2455 212.634 56.9166 214.577 57.42C217.96 57.1366 211.653 52.1622 209.961 53.3555C208.485 54.1603 208.972 51.3437 208.576 50.6578C205.427 52.247 207.704 47.9874 205.345 48.7031C202.906 47.8807 202.614 49.8718 200.191 50.1895C196.606 51.9742 193.455 41.7697 190.538 47.9609C189.22 47.7834 188.647 47.7838 190.152 48.2739C190.266 48.8532 188.885 49.486 190.191 49.5243C187.33 50.1352 187.87 53.8769 185.999 55.7002C185.382 57.241 185.114 54.7821 183.806 54.4108C180.657 58.8572 181.031 53.7581 183.577 51.7924C182.123 50.4256 179.103 49.5161 180.499 48.0007C180.386 47.1874 182.323 45.4109 180.73 45.1862C179.414 44.1223 172.416 41.2209 174.921 38.4642C173.136 36.3547 175.137 37.2928 174.538 35.5316C174.897 34.0233 172.313 33.0567 171.191 33.1872C167.972 33.7942 172.236 30.4946 168.114 30.0213C166.403 28.871 169.633 27.8032 166.845 26.5817C166.992 25.7863 169.64 24.1893 167.767 23.6503C166.764 23.5882 162.72 14.6634 162.806 18.1385C162.286 19.0695 162.562 18.697 163.152 18.9987C162.884 19.2489 162.782 19.9759 162.46 19.2723C161.483 20.1651 159.858 18.3726 159.614 20.21C158.33 20.6063 158.591 20.7701 158.268 21.7746C157.137 21.5041 156.929 21.279 156.268 22.2042C155.21 21.4506 156.535 23.1727 155.844 23.2591C154.977 23.3052 154.561 22.3652 155.383 22.0087C153.799 19.8551 154.904 22.4363 153.267 20.8752C152.074 22.9476 152.157 20.2827 151.653 19.9368C150.666 20.1823 150.645 20.3538 150.614 21.4619C149.801 21.5788 149.464 22.2307 149.383 21.5006C150.492 19.037 147.623 19.698 147.075 19.3118C146.696 20.9499 145.31 20.0814 145.96 18.7642C145.37 18.3593 144.157 18.8185 143.691 18.2166C143.176 19.1621 143.405 19.3748 142.614 18.9987C141.107 19.4494 139.897 18.0048 138.114 19.3517C138.444 18.4851 138.173 18.9495 137.575 18.7259C137.642 17.7288 135.981 18.5098 136.807 17.3966C135.698 17.3051 135.704 16.5785 135.269 15.95C135.073 15.9082 134.133 16.3452 133.807 15.7937C133.387 15.2743 134.378 14.2967 132.729 14.817C131.759 13.4732 130.402 13.8902 130.192 12.3542C129.653 11.6549 129.053 11.5674 128.191 11.2598C129.261 10.3467 128.634 9.40163 127.614 9.18861C125.946 9.87261 126.769 7.50832 124.691 7.50754C124.739 8.03207 123.973 9.19213 123.845 8.21108C118.871 7.34768 126.407 6.9064 122.922 5.7096C120.338 4.85714 124.204 4.444 122.576 3.91166C121.613 2.92865 120.463 3.69121 119.615 4.45885C118.689 3.72522 118.685 3.26049 117.268 3.91166C116.655 4.17861 116.504 4.64645 116.5 5.20107C116.088 5.09437 115.543 4.084 116.115 3.91085C116.409 3.0326 115.549 4.0543 115.577 3.24679C116.156 2.73359 115.131 2.33846 114.884 2.34745C114.18 1.85379 114.538 3.61733 114.153 3.98904C113.655 4.06838 112.976 4.29039 112.499 4.53662C112.407 3.57316 110.374 2.24308 109.691 1.09748C109.61 1.76037 109.285 1.29448 109.577 0.97984C109.452 0.590546 109.063 1.6525 109.23 0.940358C108.745 0.19343 108.513 2.36658 108.076 1.60558C107.124 1.94446 107.749 4.57218 106.191 4.45766C105.681 4.2251 103.811 3.15769 104.96 2.77778C105.295 2.66834 106.837 3.25813 106.23 1.99527C105.296 2.44007 104.15 1.43245 103.538 0.97984C102.676 1.26438 101.385 1.13186 102.307 1.99644C102.266 2.46077 101.979 2.18796 101.652 2.97319C101.19 3.38125 100.938 2.31852 101.191 2.19149C99.4066 1.9644 98.1893 2.94115 99.1535 5.1233C97.4885 4.59135 95.7943 6.61639 94.5758 5.98242C94.0843 8.57888 92.9143 5.69708 92.1531 6.33456C91.6881 6.60543 90.5646 7.12879 90.2685 7.74204C89.8327 7.71546 89.4146 7.37114 89.5373 8.24979C89.2908 8.25995 89.4777 9.06941 89.7297 9.07058C89.6347 9.70768 88.6573 8.55697 88.4989 9.10965C88.2696 11.2097 88.3801 14.3647 85.3831 11.0639C84.6835 12.2877 84.0112 11.5756 83.1912 10.9076C83.0274 11.3371 82.6373 11.9242 82.2685 11.4161C77.3354 7.27615 80.8539 11.2258 78.8446 13.4873C76.6685 14.5531 73.9808 16.8396 76.5373 18.4902C75.02 20.6341 73.8231 23.1524 73.6531 25.9173C74.622 27.136 76.0354 28.6298 76.4219 29.9036C75.5893 30.3766 73.547 31.4424 76.0374 31.6242C75.7047 32.9996 72.8096 31.0039 73.5373 33.8122C72.5389 36.4798 77.4966 33.7247 75.1531 36.0409C73.7589 37.1201 75.0523 37.9459 73.7297 38.9719C73.6943 39.2694 74.0612 40.4306 73.1523 40.4568C74.245 38.3974 71.7247 38.6999 70.5754 38.3469C69.927 37.4359 69.0897 37.4437 68.1908 37.1357C67.5547 35.4507 66.0997 36.1847 64.7677 36.08C62.6904 35.0626 65.2473 30.5107 61.8827 31.9361C60.267 32.0221 59.3681 29.8548 58.4985 28.7706C56.3358 28.3387 53.7343 27.7993 52.3827 25.9955C51.3158 23.7363 48.8151 34.8328 49.3435 35.7267C47.5674 39.02 47.8139 32.7683 46.0374 33.9295C45.5316 35.2733 44.3689 33.6356 42.8446 34.7902C41.5046 34.4915 42.6485 31.6695 40.4208 33.265C38.2135 31.6211 40.1723 36.6674 34.652 34.2011C34.8954 35.6426 34.2155 36.2148 34.8447 37.8377C36.3239 38.0182 35.9089 39.4288 37.0746 40.1449C40.4204 39.6782 42.2889 43.5489 44.8058 43.7408C49.7189 43.1013 44.5562 45.7373 44.2285 46.5522C44.8193 47.509 44.1623 49.3847 43.1135 49.3289C41.8504 49.4082 40.117 50.9763 38.8827 51.9085C37.7954 49.7776 35.0904 50.4002 36.8454 53.5501C27.8935 51.5958 28.1454 55.8577 29.4996 65.3548C29.222 67.2571 30.7997 68.1905 28.4212 68.4031C28.3162 69.6292 28.922 70.0841 27.96 70.9432C27.9008 72.0165 29.5481 71.5432 28.6512 73.2106C32.4224 72.4707 30.0889 74.889 30.9981 76.69C31.1585 78.1702 34.3735 81.641 30.6901 82.4735C30.9831 79.8697 30.0681 82.6424 29.4224 82.8648C29.9562 83.3244 30.4577 83.9221 28.8831 84.0764C29.3093 85.1552 26.2127 84.3176 26.2289 85.3272C26.9696 86.5846 25.7135 86.7038 24.8442 86.773C22.5516 87.6153 17.5281 86.859 19.6131 90.0167C20.4631 89.6618 20.3081 91.2373 19.4981 90.7597C17.27 95.8893 18.4089 84.6444 14.4977 86.5392C15.847 90.5143 15.952 89.5965 12.8816 91.2284C13.0839 93.5129 15.9219 89.9917 15.8054 91.7373C14.2377 93.9558 9.34156 92.6276 11.3062 97.1311C10.9269 96.1926 10.3416 94.417 8.69041 95.9202C8.57926 96.5354 9.32043 97.2178 8.34427 97.2096C5.18312 97.312 4.16424 98.5069 4.11424 101.236C4.17809 102.372 3.31387 101.17 2.76771 101.783C2.22387 102.632 3.2304 103.631 3.15194 104.675C2.0454 109.436 4.17006 107.176 7.22968 107.527C8.24968 109.652 6.29501 110.415 6.99886 112.375C8.33578 114.381 5.72621 114.029 6.11391 115.306C6.03314 116.428 7.46232 118.77 5.61424 118.59C5.70962 119.95 6.22771 120.153 6.65348 120.934C7.89425 123.338 3.29234 121.698 3.38311 123.163C-1.17958 122.61 4.14889 131.098 2.30619 132.231C2.47927 132.798 2.2839 133.579 1.69121 133.09C-1.5111 135.505 6.34078 133.58 8.07501 133.794C7.00078 137.729 16.2073 134.712 15.845 136.217C15.3531 137.571 13.6324 139.571 15.9989 139.266C16.8574 139.099 17.3758 137.636 18.3451 138.016C19.1466 140.428 16.947 140.016 20.0001 142.158C19.5324 143.771 20.76 142.759 21.8843 142.237C21.3743 141.401 19.597 139.645 21.5377 139.657C34.6916 138.606 25.0781 135.28 31.1519 134.145C40.3262 131.192 30.7081 143.868 36.8451 140.713C38.9427 144.95 46.5566 140.837 51.8074 140.83C57.7347 139.246 50.7639 146.893 59.1915 145.051C61.52 145.043 64.5516 144.86 66.8454 144.426C66.945 143.882 63.6196 143.693 65.5381 143.448C68.4531 143.223 71.0812 141.746 73.5373 140.283C77.7685 139.518 82.4516 139.983 86.0377 137.352C93.4666 134.219 100.809 141.813 107.884 139.697C110.392 138.636 110.588 136.312 107.576 137.117C108.28 136.94 110.555 136.753 109 135.827C107.293 136.379 109.483 135.781 108.46 135.163C108.098 134.903 107.413 135.288 108.269 135.006C108.425 134.632 107.27 133.868 108.038 134.108C109.948 132.628 106.677 130.513 106.807 128.597C107.654 125.82 110.335 123.679 109.461 119.607C104.004 121.983 105.533 116.255 106.308 113.392C103.003 112.3 105.902 109.22 102.269 111.555C98.49 106.528 104.316 108.385 103.539 105.732C105.165 105.261 108.049 108.049 106.807 104.128C107.305 102.586 106.404 101.346 104.654 102.097C104.467 99.7162 102.987 98.9157 103 96.4287C106.687 96.8411 103.697 91.7963 103.885 89.5887C111.406 89.5039 101.94 94.6073 112.885 92.6374C114.887 91.3495 116.758 88.7304 120 90.1371C120.947 90.2903 121.752 89.3347 122.5 88.9637C123.869 88.7613 125.11 89.9202 126.423 88.9246C128.188 88.0042 129.64 90.3036 131 90.6049C133.491 90.4005 134.543 92.5975 136.615 92.1684C137.615 92.4889 138.511 92.8559 139.576 92.5592C140.705 93.4516 139.793 95.1682 141.884 93.6532C154.982 84.719 147.527 94.075 155.653 92.2876C155.112 98.6738 163.052 91.382 164.923 93.4578C166.491 93.6243 163.919 94.3771 164.769 95.0607C164.162 96.0855 166.113 95.1611 165.308 95.8823C163.198 99.1444 169.857 93.8963 169.345 96.7418C170.437 99.085 167.649 98.3126 168.46 100.22C170.88 100.437 169.327 103.145 168.999 104.05C171.587 102.048 169.492 108.186 172.154 105.418C172.567 107.814 174.754 111.019 171.385 111.985C168.715 107.295 168.694 113.473 171.654 113.04C172.81 115.478 178.298 109.476 176.615 113.977C176.682 114.994 180.703 113.72 180.846 114.721C181.084 116.495 182.987 115.594 184.308 115.386C184.389 114.982 183.542 113.956 184.038 113.861C188.9 115.014 193.26 115.566 198.038 113.196ZM176.154 44.9517C176.131 44.9196 176.215 44.852 176.231 44.8344L176.154 44.9517Z" fill="#DBDBDB"/>
</svg>
