<svg width="140" height="197" viewBox="0 0 140 197" fill="none" xmlns="http://www.w3.org/2000/svg">
<path d="M3.03845 116.196C7.29345 116.267 -2.05806 123.781 7.73117 120.65C7.9181 124.404 9.48194 125.898 9.92386 129.367C9.38425 131.154 15.7796 128.718 13.8465 129.993C13.9319 131.183 13.4392 131.126 12.2308 131.047C12.5484 131.844 10.62 131.395 10.2692 131.674C10.6896 132.526 10.0873 134.555 11.6542 133.862C15.2827 132.57 7.53153 139.015 16.3854 134.566C21.4535 146.715 20.3188 134.49 25.6931 141.562C27.1811 138.519 31.4277 149.039 34.4238 148.05C35.8288 144.155 35.9608 148.404 38.6542 147.229C39.7127 148.588 37.4077 151.245 36.8081 153.561C35.9777 155.51 37.1496 157.1 34.4227 157.703C34.1754 156.874 33.9746 153.718 32.6931 154.616C30.1723 155.181 33.5619 158.127 30.1523 159.306C28.9854 162.16 26.7215 159.238 24.1154 160.088C19.1407 157.965 23.5338 166.103 23.5761 169.117C21.2581 168.755 20.1788 168.835 17.6923 169.313C18.0265 170.251 19.2189 171.751 20.1535 171.345C20.7527 172.36 20.8012 171.617 21.5 171.734C21.5108 172.508 21.3746 172.417 22.1923 172.048C22.1715 172.194 22.2946 173.054 22.5385 172.517C22.8408 172.977 24.2066 173.625 24.0385 174.315C24.8104 175.615 24.9339 175.093 25.7692 175.252C25.3227 177.002 26.6538 175.529 25.8834 177.52C26.7465 177.612 25.9177 179.013 24.9608 178.927C27.0711 181.025 30.9343 180.523 32.4227 182.287C28.2885 185.133 34.45 186.047 32.2696 187.839C30.8334 188.542 28.3477 189.41 26.7685 191.319C28.1996 192.539 28.4035 196.067 30.6527 194.053C33.1169 192.457 36 191.868 37.8835 189.793C40.1281 188.79 43.3888 192.043 43.3835 194.405C43.2977 195.36 40.8084 196.185 42.0754 196.087C46.4054 191.782 49.9311 185.236 53.2304 180.726C53.9769 180.521 53.7277 179.428 54.73 178.967C55.2604 178.631 57.1962 178.857 56.73 178.068C57.3481 178.698 56.9561 177.809 56.8069 177.443C57.38 177.387 57.28 178.948 57.4223 179.006C58.9442 178.374 60.2265 177.332 62.7685 178.811C64.9023 179.176 67.3465 178.235 69.3839 178.304C72.1081 176.821 74.7123 175.708 77.5377 177.756C79.6734 178.555 78.8227 178.649 78.8831 177.56C79.8781 176.778 81.3858 178.731 82.192 177.873C84.7131 173.771 87.9012 180.148 87.1904 181.624C89.205 179.83 90.5558 177.101 92.5385 175.645C92.8496 173.084 93.4277 169.215 92.8081 167.085C93.2527 165.549 96.4966 167.056 95.73 164.662C96.7104 164.361 98.1631 164.984 98.2297 163.606C98.1381 162.908 97.2327 162.673 98.0384 162.083C98.4396 161.331 97.6111 161.254 98.1531 160.988C97.2115 159.254 88.7708 163.038 93.0385 157.354C93.9108 156.166 93.3012 154.605 95.6539 155.087C96.0904 153.428 97.7492 148.116 95.6923 146.566C96.2265 144.689 95.1965 143.251 95.6531 141.094C97.2492 141.434 96.9596 139.649 96.9608 138.514C98.1804 138.362 99.7196 138.946 99.1138 136.911C98.2815 133.787 103.089 135.62 104.923 135.153C103.986 130.916 110.89 133.61 113.577 132.885C114.355 130.312 116.83 131.608 116.307 128.47C119.014 128.377 119.941 127.946 120.307 129.877C122.557 129.502 122.019 128.382 122.152 125.967C123.258 125.332 122.701 123.127 123.383 122.294C123.397 121.788 122.302 121.169 122.922 120.613C122.708 117.056 126.02 120.583 124.998 116.353C126.543 114.354 128.983 113.316 132.037 114.359C135.638 114.085 138.858 115.726 138.573 110.919C139.681 108.373 139.076 107.747 137.422 107.754C135.805 107.385 137.579 104.563 136.422 103.063C131.619 102.272 124.845 103.586 124.922 100.484C124.397 99.7996 124.219 99.1848 125.153 98.8029C125.297 98.1924 124.752 97.5318 125.383 97.0053C124.583 97.3872 124.495 98.944 123.575 97.4349C124.958 96.7606 123.643 95.9911 124.499 94.4648C123.692 92.9584 121.095 92.879 118.96 92.002C117.473 91.9281 117.91 91.0397 117.499 90.5167C116.292 90.8493 116.238 89.4215 114.691 90.2439C111.028 88.9326 113.774 88.4252 113.153 86.4522C112.223 85.3984 111.858 84.1457 112.191 82.7003C111.172 79.3308 104.566 82.1739 103.344 80.0038C103.262 79.3269 103.64 78.8672 103.382 78.0105C104.383 77.2385 103.66 76.603 103.652 75.4308C105.148 75.1099 105.59 74.5959 105.614 73.7505C107.083 73.6168 106.087 73.423 105.767 72.8124C105.14 71.4616 104.085 72.6882 103.807 70.7401C103.95 69.6254 104.06 66.2605 103.076 66.6361C99.9007 69.2549 101.559 66.2488 98.9215 67.1048C97.4777 67.1665 96.8535 64.3875 95.9596 63.9799C96.8535 64.4004 96.6381 63.4745 96.2681 62.8061C97.7735 61.7711 97.0777 60.5509 95.8831 59.4451C94.425 57.8426 95.0758 53.6198 94.3827 50.6118C90.5784 51.1859 92.7546 48.8068 94.4604 48.736C95.0408 47.9895 96.0293 48.5101 95.4981 46.9365C95.9054 46.5887 97.2031 47.0878 97.1527 46.4288C96.4865 46.19 97.7939 45.0178 96.6139 44.4354C97.6535 44.4303 98.1481 43.3117 97.2677 42.403C95.1773 42.8392 93.4281 40.2357 95.4604 39.198C94.9866 37.3867 95.1388 36.2783 97.2685 36.4631C97.7942 33.3015 94.8431 35.9531 94.1915 33.3746C89.9369 35.3398 94.2138 26.1765 91.9988 25.7134C90.25 26.5596 88.1781 25.6423 86.9227 26.3012C85.8719 25.7689 83.0011 24.2203 82.3454 26.1046C81.6958 26.9942 81.9323 25.9874 81.9611 25.6755C80.9504 26.268 81.2819 24.9672 80.6146 24.9324C80.2192 24.0593 81.6712 21.4452 82.7292 22.9785C83.3781 22.4689 82.3196 20.8304 84.4612 20.7897C87.0954 19.9404 81.7323 15.4108 83.6158 13.0902C83.6177 11.3376 84.9427 9.35639 84.4608 7.61785C82.6754 7.73707 82.0861 7.15391 82.23 9.45566C78.9265 9.05113 76.7389 8.72634 74.2296 6.56255C74.7862 5.43845 74.5046 4.32295 76.4996 3.94382C75.1485 2.60709 76.6565 2.36436 76.6919 1.83357C72.5777 3.19102 72.9338 -2.60306 71.5369 3.1226C67.4219 3.04326 61.3566 -0.313786 56.1527 0.855268C49.7727 6.93427 55.71 2.8834 56.3073 8.3214C55.6288 7.77928 54.6204 7.49005 55.8831 8.36127C55.9562 8.34329 58.3139 9.35718 56.8835 9.76719C46.8854 12.9992 58.1581 12.7162 50.1912 15.6312C49.8912 14.2046 47.8338 15.5421 46.4988 16.1776C47.4404 18.2754 45.2277 17.829 45.9219 20.438C44.9585 21.6293 44.9738 18.7596 43.9219 20.5552C41.3508 21.3647 43.5804 20.9445 42.7685 22.0409C42.4596 21.2009 41.6431 22.4825 41.6911 22.8222C42.8858 23.0102 41.8296 22.9895 42.6527 23.7998C43.7365 23.3127 41.2419 25.4019 43.4992 25.4019C44.4912 28.442 39.6354 24.8754 40.1146 28.021C38.6858 27.7462 37.4069 27.5918 37.3454 29.4281C36.0911 30.1004 35.7569 30.7617 36.1919 32.3595C36.7139 38.4264 33.9608 33.4856 31.6919 32.945C29.9373 32.2919 30.5442 36.9877 27.9988 35.6802C26.5946 35.0615 26.9923 36.4092 26.4227 36.7375C23.7581 38.1247 27.9935 39.2456 27.8458 40.4108C27.4019 42.8497 25.01 38.1692 23.7681 37.4793C14.762 35.1932 18.2031 40.768 15.6527 38.8485C12.7839 38.9611 15.3077 36.2833 12.6146 37.128C7.42079 35.1494 9.99961 41.3086 10.73 44.1235C12.3081 46.1067 9.37305 45.4087 10.3454 46.5473C10.0057 47.2879 10.6042 47.4274 10.5384 48.1501C10.6015 48.9549 11.0896 48.4699 10.6523 49.3223C11.5758 49.9973 11.42 52.5879 11.7685 54.0126C14.0331 53.0941 13.7254 54.7592 14.0761 56.4758C17.3642 55.6992 19.9665 57.4772 20.5381 60.3441C18.2769 60.332 16.9219 60.3136 17.8462 63.1591C15.4727 62.9316 16.7735 65.2181 16.7685 66.8327C17.6 66.4759 17.27 68.4688 17.5377 68.943C17.3285 68.9305 16.7042 68.658 16.4227 68.9441C15.3696 69.3111 17.8296 70.0842 15.8446 69.9983C17.0504 72.7644 13.59 75.9768 16.3442 77.5817C21.7212 75.9573 22.08 83.5239 21.8838 87.3926C19.8727 87.8471 20.2411 87.674 19.4992 88.9161C17.6304 87.2554 19.9281 93.9547 19.7289 95.4822C20.4631 98.0016 16.6135 102.585 14.9608 99.5475C14.9881 98.9768 13.7965 99.5983 13.4215 99.6252C12.8608 98.6911 12.5612 99.5815 11.6912 99.3915C11.3112 98.8353 12.1946 98.6387 11.6912 98.2185C10.827 98.0317 10.7461 97.2907 10.3069 96.6156C9.61961 97.6198 8.22999 95.567 7.26807 96.342C6.81769 95.1284 6.89926 95.5556 5.92195 95.678C5.50157 95.918 7.36614 96.1896 6.38306 96.1865C5.63306 96.4007 5.51847 96.2494 5.15308 96.7724C3.93116 95.6424 3.65192 96.9569 2.76808 97.1632C3.05885 97.1437 3.48271 98.4339 2.72964 98.4144C3.48502 99.0468 2.96922 99.4728 2.46038 100.251C2.71384 100.673 3.78037 101.712 3.11422 102.167C1.7596 102.65 2.51151 102.459 3.07613 103.417C2.24228 104.668 2.58153 108.255 5.46037 106.778C5.97691 108.878 6.5058 111.273 3.57579 110.062C3.46003 111.176 2.125 111.215 0.690768 111.39C0.551922 114.354 3.31384 112.951 3.03845 116.196Z" fill="#DBDBDB"/>
</svg>
