<svg width="137" height="101" viewBox="0 0 137 101" fill="none" xmlns="http://www.w3.org/2000/svg">
<path d="M41.6154 7.57577C39.7554 8.43566 39.1277 7.74815 38.6158 5.93379C37.2142 6.57558 36.7481 4.32346 35.3073 3.74578C34.3608 3.30606 34.7131 5.036 33.7308 4.29259C32.4665 3.31036 31.2965 4.03265 30.2312 4.80185C29.3842 3.98692 27.8035 3.59763 27.6538 1.98651C26.8281 1.23841 25.8538 -0.019749 24.7696 0.0314533C21.1962 3.15167 25.5831 8.29418 19.3458 8.74797C19.1742 10.1183 16.8696 12.8637 16.3842 14.3376C17.1019 14.9767 15.9919 15.8045 16.2308 16.4092C16.5977 18.1184 14.9988 18.1567 14.2692 19.106C13.1531 21.6216 14.9754 24.134 13.5769 26.376C11.0823 27.7667 12.3092 28.9529 12.9238 30.8318C11.9404 31.6541 12.3665 33.8519 11.5004 34.7017C9.23423 35.3251 7.22961 37.1957 6.3073 39.3912C0.895765 41.0824 2.135 48.2444 1.03846 53.3455C0.239227 58.2301 0.719612 58.628 4.76923 56.2754C5.58307 57.457 6.29192 57.6544 7.65384 57.5656C7.26269 59.7122 5.74 58.9903 7.50038 61.2014C9.2273 62.6694 11.4062 61.8224 10.3835 64.7976C11.1908 65.7935 11.7462 66.5897 11.7685 68.1586C11.6658 69.1596 13.6331 69.9374 13.3069 71.2855C14.4292 73.237 15.0235 69.803 16.7692 71.1686C16.3615 70.154 18.5596 72.3791 19.3454 70.9329C20.3323 70.1266 20.6888 71.8491 21.1927 72.1446C20.9846 73.6681 22.6888 74.0496 23.5004 75.1546C25.4631 75.4055 23.1612 76.532 24.1927 77.3825C25.515 79.3 25.5538 79.864 25.6535 82.0731C24.7173 83.0124 26.6542 82.9072 27.1538 83.0108C28.4765 84.4656 30.5835 84.0427 31.6923 82.4636C32.7969 82.3248 34.2823 80.7751 34.8077 82.4636C36.4554 83.0679 34.3627 81.1777 35.6927 81.6037C36.7669 82.4632 37.2427 80.3713 36.9615 82.7767C37.6669 81.7687 38.7354 81.4368 38.2704 83.2848C38.4854 85.3587 40.1015 84.3518 40.1542 86.4113C40.1827 87.2063 40.3862 87.2735 40.9623 87.1144C42.0769 87.8105 40.02 89.7566 40.3465 90.593C38.1004 92.0971 39.0627 93.2681 40.7704 93.7977C40.415 95.0246 42.2215 93.7015 41.7696 95.2052C42.5204 95.6226 42.4254 94.6666 43.2696 95.1274C45.6338 94.7103 44.3258 92.2647 43.3846 90.9839C43.6735 88.7642 47.5385 91.8626 48.5 92.3124C49.5685 91.6769 51.1923 90.7099 52.6158 91.1406C52.7365 89.9403 52.7015 89.9102 53.5777 88.6778C53.0438 87.8852 52.9912 87.9168 53.77 87.114C53.6123 86.792 53.2246 85.9164 53.8461 85.8637C54.75 84.7751 53.4012 84.5418 54.7312 83.7139C55.9596 83.9746 55.4277 81.9227 56.6542 82.072C57.8692 80.6778 57.3827 84.1611 59.4235 83.8304C60.9258 84.3616 61.05 83.1245 62.2311 83.3223C62.2985 83.9387 62.0754 84.7837 62.9235 84.808C63.9223 85.6542 62.9838 85.943 62.7308 86.8408C63.3904 88.0744 64.7904 88.1916 65.7308 88.4437C66.0892 88.7674 64.9738 90.5465 66.6158 89.8899C67.3019 90.339 67.9892 91.2395 68.5765 91.2575C69.7485 91.3364 69.5996 93.0429 70.9231 92.5469C71.6558 93.0601 72.9662 93.7871 74.2696 94.1483C75.3265 94.4641 75.8796 91.7871 76.2696 90.867C76.2469 89.1648 77.3115 91.132 78.3077 91.2571C79.6231 91.3716 80.7115 90.6431 81.8842 91.297C82.8142 91.4772 83.2292 93.3717 84.3846 92.7428C86.2719 92.3715 86.9792 91.9427 88.8077 91.9997C89.7135 92.0904 91.1604 92.7463 92.3462 93.1723C92.6681 94.2699 93.2496 96.0885 94.4612 97.12C95.6654 96.6728 97.0477 95.6902 98.6542 95.9478C99.3119 95.8243 99.1115 94.9542 99.4615 94.6181C100.065 94.6318 100.278 94.5372 100.846 94.305C101.277 95.9044 102.819 93.2434 103.654 95.4397C103.84 96.2964 104.897 95.1696 105.462 95.4784C106.883 96.2218 107.45 97.4706 108.307 98.6443C110.369 98.9949 112.924 97.3162 113.962 100.051C115.478 99.7555 117.771 99.3979 119.039 98.1757C119.864 97.0836 120.311 99.0668 121.308 98.488C123.488 97.462 122.91 95.229 125.424 94.2675C126.804 93.8895 129.032 96.2304 130.27 95.2052C134.383 94.8409 131.854 91.8876 134.115 89.5365C134.401 88.2311 137.002 88.3871 135.885 86.7232C135.497 84.8138 133.337 83.5869 132.5 82.4241C132.415 81.653 131.549 81.6354 130.962 81.3684C131.316 80.3827 130.386 79.4427 129.501 78.9451C128.62 77.8581 131.009 77.2949 129.885 76.7563C130.016 75.8022 130.745 75.2988 130.846 74.1763C131.663 73.7659 132.011 73.3961 131.038 72.6519C130.528 71.3152 127.655 72.082 128.616 70.3463C128.935 68.7371 128.385 67.9925 127.038 67.2976C127.275 66.5983 125.532 66.5268 126.078 65.5387C125.455 65.767 124.691 64.639 124.77 64.0535C123.356 64.0675 122.924 62.6769 121.424 62.295C120.949 61.1654 122.025 60.2211 120.577 59.5977C119.714 59.2385 116.435 57.4132 117.808 60.0276C116.724 60.6034 117.054 61.9495 116.27 62.49C114.974 62.1809 113.411 61.1068 111.886 61.3561C112.01 60.0315 110.002 59.7403 110.156 57.9948C109.483 57.5371 110.006 56.4341 110.001 55.6887C109.988 55.2404 108.713 55.2342 109.233 54.5552C108.316 52.8882 110.552 51.5714 108.347 50.2953C110.142 47.2036 108.575 46.2272 106.732 48.536C106.157 49.1376 104.841 48.366 104.271 49.5523C104.123 50.2726 102.727 49.6734 102.271 49.5527C101.332 49.8908 101.655 51.5065 100.732 51.8583C101.76 54.3317 97.8454 53.5941 97.155 51.9369C97.4362 50.3754 98.2481 48.7291 97.4627 47.1293C98.5058 45.7985 97.7642 45.3029 96.8092 45.0574C95.6015 46.0818 92.9331 45.4803 93.0019 43.7293C92.2008 43.3853 91.5608 43.5937 91.0404 42.7127C90.0569 41.3279 91.2662 40.0881 90.8481 38.6091C87.3604 36.3925 87.0465 41.2208 83.6942 35.7554C81.9685 34.7165 82.7488 32.2037 80.2323 32.9029C79.9019 30.4194 76.9008 32.0943 75.6938 30.5187C73.27 32.5742 72.0519 30.7657 69.4246 30.5957C68.0142 30.1654 68.3885 28.0395 67.1946 27.4692C65.9162 29.8038 64.4215 28.455 63.1942 26.9611C62.39 28.9033 60.3638 28.0407 58.5785 28.251C57.5219 25.7589 57.07 22.8692 54.8092 21.6458C55.6246 20.2388 53.6442 20.528 52.925 19.6521C51.8373 20.4326 51.0965 20.9142 49.8096 20.7074C48.2308 21.0967 47.4996 23.4872 46.2712 21.0592C46.1004 19.5559 46.1492 18.639 44.7708 17.9331C42.3777 17.1631 40.8308 14.4279 40.6942 11.9526C41.2673 11.2557 42.1362 10.5502 42.8862 11.0145C43.8019 10.055 42.5762 7.99008 41.6154 7.57577Z" fill="#DBDBDB"/>
</svg>
