<svg width="116" height="154" viewBox="0 0 116 154" fill="none" xmlns="http://www.w3.org/2000/svg">
<path d="M55.7308 133.19C57.1438 132.784 57.4504 135.636 58 134.871C59.9 133.817 59.5177 137.697 61.0388 138.114C62.2623 139.115 61.0004 140.252 61.5381 141.359C61.6388 142.191 62.6827 142.428 63.3461 142.766C63.3154 143.75 63.7792 144.047 64.6927 143.742C65.2646 143.202 65.5608 144.305 66.0388 144.642C66.1919 144.07 66.6208 143.725 67.1154 144.016C67.6419 145.258 68.9615 144.978 70.1546 145.618C69.5388 147.555 71.4315 149.654 72.8842 151.013C73.0446 152.729 73.2161 153.842 75.2696 153.123C75.4184 151.144 76.3773 149.308 76.7304 147.339C77.34 146.474 80.4454 142.67 78.6161 142.219C78.785 140.944 76.69 140.655 76.5008 138.935C77.2246 138.41 77.5792 138.555 77.1158 137.489C76.8715 136.816 75.9715 136.147 75.2311 135.34C74.5773 134.424 76.1523 134.439 75.1931 134.284C75.21 133.577 73.9985 131.285 75.1154 129.907C73.6408 128.099 77.8411 125.421 78.885 123.809C79.9069 123.005 78.3135 122.288 78.4238 121.347C79.4015 119.601 80.2061 121.857 81.4238 121.425C81.4308 118.783 83.2511 120.937 83.4242 118.455C82.0258 116.382 85.7735 118.479 84.0004 116.071C84.5358 114.694 85.7092 115.322 86.5392 115.915C87.5354 115.51 86.9884 114.025 86.27 113.609C85.2946 113.322 86.4238 112.347 85.2696 111.929C86.7004 111.635 87.1596 109.301 88.9623 110.248C90.7546 108.667 91.9661 106.744 92.77 104.463C94.7431 104.189 95.195 101.395 96.8854 100.008C99.8531 97.9938 102.519 97.5619 105.039 97.3884C107.972 96.473 109.697 100.465 112.732 99.1085C113.691 99.1797 112.66 98.645 113.155 98.0919C112.906 97.6471 113.585 96.5547 113.04 96.2549C112.112 97.1613 112.909 94.677 112.424 93.7929C112.069 90.3799 112.693 87.2726 112.193 84.0214C111.661 80.9524 110.273 77.0098 114.002 75.1103C112.702 72.9453 113.498 74.6401 115.04 72.2176C114.647 70.5955 110.607 70.8452 114.194 69.0512C115.012 67.7528 112.555 67.3768 111.963 66.6283C110.76 65.0477 109.655 63.5323 107.578 63.5409C106.182 62.486 102.693 61.2009 104.885 59.6323C105.505 58.2495 101.475 57.0339 103.193 59.3193C103.812 61.8536 99.9204 58.7897 98.8477 58.9675C96.8638 58.9792 98.7754 61.0902 97.2319 60.7654C97.3573 59.3759 96.1565 60.4367 95.4623 60.2183C95.2934 58.2006 92.1727 57.3032 91.9623 59.8274C89.0331 61.9627 94.6496 51.2715 91.4623 53.2215C89.9058 54.8068 90.1623 51.3446 89.9631 54.7462C87.7727 55.6511 89.7735 57.3872 88.3092 58.4598C86.4977 58.4195 87.1523 57.2196 86.7319 55.8793C85.7077 54.2092 85.8696 53.2192 87.4246 52.167C87.4046 50.6313 85.0608 50.7755 85.3092 48.8048C87.0858 45.3958 83.7411 49.0409 83.6935 48.2584C81.9184 48.1345 81.0696 45.3238 79.5011 46.8505C78.0677 47.6033 77.3773 48.2858 77.9631 46.3819C76.9927 44.5156 73.8415 43.6322 74.3854 41.6134C74.3265 38.093 77.9585 42.2795 79.0781 40.7149C79.0092 39.7659 77.7054 39.248 78.3469 38.0957C79.2408 35.5325 73.9404 37.4051 73.1938 34.9685C71.6408 33.1842 71.035 32.2118 73.3477 30.3958C73.2131 28.8605 77.4635 27.4566 75.0785 26.9563C73.585 26.3989 72.5611 25.2303 70.9623 24.9242C71.08 23.1443 69.8769 22.5947 70.1942 20.7804C69.6931 17.1454 73.1011 18.9199 70.4242 16.2863C70.5554 12.2155 67.3015 16.3406 67.3854 14.4493C67.4704 10.9945 65.3527 8.10994 64.5773 5.26372C63.3704 4.96745 62.4327 5.46072 61.0781 4.59849C60.6515 3.74916 59.9158 6.08532 59.3858 4.48085C58.6115 3.55296 56.7334 3.52443 56.3473 2.01924C55.0927 1.55646 53.2188 4.63915 52.3854 3.11363C50.8692 1.6788 53.5342 0.187656 49.6931 1.35515C48.5977 0.178275 49.0073 3.29811 49.0015 3.77847C45.7438 4.6278 47.9996 6.29326 47.5404 8.31282C46.795 11.3123 43.3158 8.3468 46.2711 12.9636C46.115 14.2355 50.4804 15.1016 47.1931 16.1682C46.1031 17.3017 47.1481 18.5153 46.27 19.8032C45.705 21.4038 45.5996 20.7663 44.6161 19.8814C43.4165 21.7821 40.3634 19.2076 41.4631 23.165C49.7065 21.3217 39.0961 27.9948 47.2319 27.8158C50.0681 26.6745 48.5965 28.8531 48.7323 30.6304C49.0246 34.5307 47.1588 32.0851 45.5011 31.1768C43.5561 32.1145 41.195 32.3962 39.3469 33.7564C38.6015 35.047 36.9331 34.6663 36.4238 34.8113C35.6738 35.8018 36.9204 36.6124 35.0004 35.0467C33.6334 34.5827 34.5165 37.0408 33.1935 36.141C32.7508 34.32 30.9627 35.7459 29.6935 34.5772C28.0788 34.6425 27.6011 35.8717 26.3473 37.1581C25.5558 37.0553 25.4638 35.8792 24.1542 35.7119C22.3238 34.9231 19.7477 40.3248 18.5777 37.9789C16.9581 37.4148 15.3811 37.855 14.0396 38.018C13.6888 36.5921 12.8281 37.7811 12.2704 36.8059C11.3573 37.0791 11.0185 38.322 10.155 38.9943C6.36268 37.144 9.13307 43.7671 6.11691 45.1312C5.45307 44.6371 4.07383 44.3209 4.57806 45.9914C3.44345 46.9709 2.63537 48.1752 1.53999 49.157C1.55806 50.2748 3.24153 50.9733 2.11576 52.4007C0.841526 53.9684 1.29076 57.2583 3.65499 56.8955C0.253064 59.5854 2.99345 59.5436 0.694217 62.1338C1.61076 63.4323 2.54653 65.3064 1.46268 66.667C0.894219 67.7993 -0.481935 70.857 1.6546 70.2629C3.00999 70.4732 3.01152 72.5428 4.27037 71.7876C5.26768 71.727 5.5846 72.846 5.3473 73.6637C6.27768 74.0769 6.58614 74.9508 7.38575 75.3444C8.59729 79.7873 12.3627 75.1951 14.0396 78.0022C13.6061 79.7294 13.1231 81.869 15.27 82.6147C16.2858 82.0046 15.7365 83.606 16.3854 83.7092C16.9481 84.6714 18.0665 84.5057 18.9238 84.4909C19.8104 83.8635 21.9973 84.5499 20.6931 85.468C20.425 86.9345 20.9973 87.8296 20.6154 89.4543C19.1261 91.0924 21.8708 93.1308 23.5781 92.2298C24.4892 91.9742 23.6965 91.5357 23.6161 91.0178C24.3023 90.6422 24.3723 89.8057 24.7315 89.1807C25.0804 87.8335 26.5546 89.3828 27.2315 88.7512C27.3946 87.8874 28.7534 87.4528 29.3084 88.0086C29.8592 86.7989 30.4342 87.1417 31.3084 86.1715C33.8354 86.8227 29.8065 89.2578 32.6938 90.666C31.4823 91.9504 31.8542 93.8511 33 94.6903C32.7304 96.1337 32.9554 97.5361 33.7304 98.6774C34.4477 99.1867 34.98 99.54 34.8846 100.358C36.2142 100.008 37.095 101.148 38.5 100.983C39.7919 102.847 39.6834 99.4458 40.7308 99.1074C39.8908 97.5009 41.4669 97.0835 42.4619 98.2862C45.8942 98.5918 42.8038 101.188 45.7692 101.96C46.4892 102.332 46.6373 103.241 47.7696 103.055C47.7954 104.342 49.1069 104.419 49.3077 105.517C51.0446 106.776 52.28 107.784 51.4227 110.247C55.6023 111.638 54.6727 112.495 52.8077 115.367C53.6804 117.521 50.7042 116.475 54.0008 119.392C53.9361 120.383 54.2658 120.638 55.2696 120.839C55.4688 121.983 56.5058 122.463 57.5 123.106C61.6392 129.29 55.6415 125.605 55.7308 133.19Z" fill="#DBDBDB"/>
</svg>
