<svg width="150" height="200" viewBox="0 0 150 200" fill="none" xmlns="http://www.w3.org/2000/svg">
<path d="M6.46159 164.007C9.55505 164.46 9.39198 165.6 11.9612 163.888C13.1558 164.522 15.4308 166.031 15.6923 164.553C17.3796 157.305 18.9743 164.926 23.2689 163.89C23.1043 165.97 23.6204 165.911 25.462 165.882C25.042 166.382 27.1858 168.902 26.462 167.133C28.0858 165.5 28.7123 167.246 29.5381 167.252C30.0123 165.398 30.4974 166.886 31.2689 167.329C33.1316 166.279 35.0681 166.029 37.4227 167.486C40.2781 167.519 43.7585 170.632 45.9228 168.619C44.8004 166.745 48.6185 168.226 47.8458 166.742C50.9716 165.462 47.6585 165.598 47.0759 164.358C54.2382 160.271 50.6185 167.876 54.8839 161.583C56.5743 162.763 58.5731 164.358 58.922 165.843C59.677 163.963 60.7209 166.27 60.5374 164.437C61.9528 164.186 63.9589 166.018 61.8066 166.742C64.382 168.89 62.8689 164.433 65.0377 164.514C66.9039 163.364 70.8412 162.024 70.9993 164.983C69.9639 171.512 73.842 174.383 78.6158 177.256C76.7693 178.302 79.6397 179.209 79.615 180.305C78.262 183.373 83.6205 184.096 85.6528 184.721C84.697 185.197 85.8974 186.011 85.6147 186.559C84.9031 187.085 85.8385 188.716 86.4228 187.888C86.082 186.586 90.1754 189.706 87.0754 191.796C84.9008 193.585 86.9028 199.222 88.9605 197.934C90.7539 198.67 92.207 199.372 93.3451 199.378C93.4528 199.362 94.4993 196.383 94.0762 198.05C93.5616 200.207 96.2874 199.649 95.1143 198.205C95.9093 196.282 94.9319 196.366 96.8458 195.353C98.7766 194.312 97.4551 196.593 97.9985 196.486C99.5047 196.217 100.682 195.095 102.076 195.157C104.19 194.578 107.594 196.251 110.307 195.315C109.042 191.887 111.305 193.526 112.883 193.281C113.992 193.805 113.517 196.08 114.768 193.28C115.359 192.801 116.238 191.876 115.576 191.21C117.225 190.574 118.87 189.688 119.845 188.082C120.719 189.007 122.745 189.185 122.614 188.668C123.895 189.387 125.622 188.896 125.884 188.279C125.338 184.948 128.427 187.05 129.768 185.073C126.974 184.106 128.833 183.498 129.114 181.907C130.174 180.903 131.49 183.1 132.575 183.51C132.628 181.528 131.942 181.41 134.075 181.243C134.434 179.524 135.331 180.319 135.652 181.594C137.273 182.686 142.784 185.593 139.845 181.555C141.953 181.661 143.645 180.331 145.344 180.812C146.374 181.12 145.688 181.781 147.153 182.22C147.643 181.915 147.405 180.349 148.421 180.852C150.923 177.945 147.832 180.289 147.574 178.624C141.792 179.208 145.445 169.656 142.345 169.281C144.489 171.569 136.951 166.286 136.614 165.139C137.139 164.835 135.747 162.988 135.499 163.107C135.512 162.427 135.761 161.565 135.229 160.879C135.312 159.488 132.24 159.398 133.422 158.065C137.377 156.752 130.277 152.555 134.652 152.162C137.569 150.404 138.032 153.525 138.69 150.091C137.315 149.931 136.699 149.779 136.845 148.332C137.579 146.08 136.995 144.538 138.037 142.313C139.37 140.893 135.473 140.971 134.653 139.772C133.294 138.628 135.676 135.897 133.959 134.418C133.992 133.607 131.447 133.721 133.23 132.737C134.567 132.464 130.682 131.024 133.731 130.51C133.482 130.073 133.378 129.351 133.152 128.633C132.666 128.763 131.328 128.925 131.96 128.125C131.376 127.695 128.89 128.162 129.73 126.209C130.577 124.779 131.309 123.782 129.729 122.34C130.568 122.269 129.49 121.22 129.345 120.777C129.815 121.097 130.572 121.571 131.307 121.519C133.302 120.517 134.83 118.972 133.269 117.181C132.672 117.659 132.513 116.445 132.191 116.126C131.45 116.452 129.379 116.542 129.614 115.266C128.411 115.148 126.94 116.013 126.653 116.868C126.26 117.03 125.401 115.885 124.961 116.595C121.97 119.91 122.099 114.959 119.96 114.757C119.726 113.666 122.397 114.705 120.999 112.882C119.995 113.551 121.438 110.947 120.922 110.889C118.391 109.75 118.94 107.544 118.845 105.104C119.464 104.244 119.445 103.902 119.344 102.876C120.223 102.392 119.853 102.219 119.037 101.938C114.951 99.5867 114.015 106.365 113.845 102.798C113.101 102.675 112.718 102.154 112.307 101.586C112.035 101.623 110.832 102.103 110.845 101.43C109.046 101.26 109.016 103.015 107.961 103.892C106.787 103.759 106.684 103.98 106.269 104.948C104.997 105.084 104.313 104.164 103.345 105.181C101.803 109.874 100.991 104.41 99.4604 106.55C88.8285 107.146 97.9093 100.107 90.1147 99.6313C89.3543 103.111 87.6462 99.5469 85.8066 99.7095C85.2543 102.166 80.0439 98.4353 79.0001 98.1081C74.6227 99.5953 76.1224 103.048 70.3462 98.7312C68.7508 97.0966 72.3235 98.7499 70.3843 96.1148C72.2762 95.2189 72.7677 94.5048 72.9616 92.0881C73.4485 92.6979 74.3847 92.0209 74.2697 92.8699C74.9831 93.061 73.9773 92.3008 74.6927 92.2449C74.2197 91.4749 75.4427 91.2845 75.7697 90.5638C75.9189 90.1468 74.8581 90.1436 75.6543 89.8993C75.6173 89.1755 73.852 89.553 74.0005 88.5704C73.5704 88.7158 73.5762 89.2974 72.8847 88.9218C73.7731 86.4645 72.1104 88.6951 71.6154 87.5933C71.1001 85.9591 69.0885 87.3134 69.577 85.0914C69.4955 83.8551 70.5166 84.0678 71.2305 83.1371C70.4112 82.0517 71.3404 79.8129 72.6535 80.1662C74.1866 79.2246 72.3177 76.779 73.9993 76.6493C74.3558 74.3213 71.0005 75.635 71.4228 73.5228C70.4905 72.8263 71.5797 68.9623 69.1151 71.1773C69.0385 69.726 69.1008 68.3514 67.2689 69.1843C67.2055 67.9926 67.2189 66.4483 66.5766 65.3926C66.5716 64.3967 65.6839 65.3391 65.115 65.119C64.4023 65.0854 64.4008 64.4549 63.4612 64.5718C63.4327 62.6582 60.487 63.6584 62.3839 62.5003C64.1993 60.2485 67.0066 61.7236 68.9231 59.7256C70.4381 60.2876 73.2131 60.1633 74.1535 58.2008C77.362 60.0105 83.1616 57.9343 80.6535 53.7838C78.5981 52.0824 80.6054 50.252 79.6923 48.5463C77.9189 47.3628 77.4185 45.9592 75.1923 44.6768C74.2631 42.2218 72.2774 43.9064 70.692 43.779C71.5008 43.0219 71.5927 41.4323 70.9231 40.651C69.0054 41.7872 69.9354 39.5007 69.1539 39.0484C67.2828 36.7256 68.2428 35.716 65.1147 35.6495C64.6212 35.5628 64.152 34.4649 64.7304 34.1236C65.4008 31.2927 61.5093 33.9782 62.3466 30.371C63.217 29.5479 61.6962 26.858 60.7304 26.5809C62.1173 25.5549 63.0381 25.2019 62.1912 23.61C62.6989 22.9565 63.5312 21.6956 63.6528 20.4823C60.4416 18.4874 60.7074 18.4432 60.1931 14.9712C58.4897 15.4543 56.9416 14.6058 57.385 12.7047C56.7127 12.0015 56.0785 12.3486 55.3847 12.0015C54.9512 11.2104 55.2658 10.6089 54.2308 10.7504C54.5781 8.05151 53.6577 4.58657 50.5381 5.51329C49.5431 5.20256 47.8324 4.04992 49.4624 3.09075C48.7612 2.40715 48.4427 1.55039 48.5004 0.588096C46.3093 -0.416798 44.2458 0.530249 42.3462 1.25333C41.7178 -0.708768 39.8766 1.50075 39.4232 1.83923C38.5262 2.84764 37.1304 2.39347 35.9227 2.97272C34.3416 4.05578 34.7704 5.80643 33.3077 4.22346C31.6666 3.67313 33.3623 4.50644 33.692 5.20021C33.2293 6.4619 29.1212 5.36711 29.1528 4.57523C29.4816 3.65593 30.0662 3.21896 30.8078 2.89494C31.6412 1.58361 31.0562 0.698318 29.5378 0.901563C28.2031 0.348501 26.4131 0.311369 27.2297 1.87792C26.562 2.23947 26.0616 2.25549 25.577 3.52031C25.3328 4.06751 24.9335 4.36768 24.692 4.9657C24.4466 4.98876 23.7474 4.2774 24.0762 4.9657C25.1643 5.83105 24.5739 5.65126 23.9223 6.37317C23.9597 6.60104 24.682 7.17404 24.0377 6.91998C23.5746 8.57526 24.1431 9.89245 22.3839 10.2419C23.0501 11.4817 22.795 11.9179 22.1916 13.2519C21.457 12.9376 20.822 14.6226 20.6151 13.2128C19.4128 13.794 20.9466 14.0019 20.9612 14.9716C20.9874 16.0793 19.5966 15.6209 19.9997 16.3787C20.7104 18.7293 21.7093 17.8968 20.6146 20.4827C20.1727 21.0866 21.7089 21.1632 21.5385 20.7176C20.7789 20.9463 20.4466 19.8202 21.3847 19.9359C24.7505 20.9541 26.5335 23.8019 27.4604 25.0569C28.3278 25.1906 29.4247 26.0857 30.1151 25.0944C30.4335 28.584 30.542 29.8305 26.9993 30.1361C25.5439 32.5559 25.3862 27.9536 24.1539 28.6516C23.3305 29.1699 22.4535 30.0861 21.7308 30.4894C20.9924 30.3781 19.4762 29.9892 20.115 31.3099C20.5235 31.6667 19.6681 32.0415 19.5766 31.5835C19.042 32.6005 21.5812 32.0818 21.5762 33.0296C22.1508 33.2454 21.7808 35.4518 23.0762 34.9444C23.3135 36.0631 23.7658 35.1633 24.4228 36.4301C25.1697 38.2253 22.5412 36.486 23.1531 37.9544C21.3439 39.2603 22.6873 39.9591 19.6143 39.048C18.8104 39.0152 19.1689 40.6787 17.7297 40.0643C17.6897 41.4753 16.407 39.1282 16.6916 40.0651C16.0493 40.7283 15.6104 41.3396 14.8454 41.7063C14.4946 41.1399 14.4912 40.8597 13.6535 41.2771C12.9143 40.733 12.9493 41.9162 12.2681 42.1354C13.6651 42.9144 12.2996 43.9768 11.2689 44.1296C10.6873 44.214 10.1285 44.6678 10.3454 45.3803C10.2166 45.933 9.49008 44.8538 9.73008 45.6543C10.4397 46.0284 9.39161 46.5091 9.84623 47.1783C9.77199 48.2023 10.5262 47.9483 10.8074 48.6639C11.3562 50.2633 10.2266 49.2916 9.5762 50.1883C8.92736 51.9452 8.30083 52.3231 7.46122 52.9633C6.94122 53.5942 7.45777 53.8658 7.92239 53.3542C8.07046 54.3853 8.07157 54.9411 8.53773 55.8557C10.37 56.9212 10.4093 59.3234 12.1143 59.8041C13.0416 61.1893 8.922 61.1784 11.9228 61.5622C11.0585 62.8016 10.5524 60.8673 10.5778 63.3214C8.13892 65.4602 11.3074 64.7039 11.3462 65.8608C10.062 69.4126 15.6447 69.9934 14.1927 71.6455C6.99237 70.2588 17.962 77.5725 10.6916 78.251C9.80508 79.9262 8.67388 83.836 10.0766 85.5206C9.89619 86.452 8.85467 86.6036 10.3077 86.7326C10.4674 88.8225 9.26311 87.9556 8.1535 87.6699C7.05004 87.7707 8.97007 88.0217 8.84584 88.5302C9.31776 90.1866 8.06887 89.494 7.42272 89.2728C7.0358 89.7821 5.65889 89.2513 6.26927 88.4524C6.03812 87.94 5.04623 88.0029 5.15315 87.3576C7.92007 84.8456 2.29699 86.3027 4.73083 89.4682C5.04006 94.241 7.42926 88.8315 6.88426 94.1589C7.40926 94.7682 4.36619 95.8091 6.23042 95.6051C3.92427 96.9457 6.60004 96.2473 7.07658 96.6209C6.88619 97.5129 5.60352 98.7816 6.57621 99.6305C5.09736 101.003 4.42584 101.975 5.19276 103.891C2.62046 104.402 2.04119 105.255 0.769652 107.683C4.45811 109.607 -0.270739 112.161 0.113877 114.328C2.21234 114.386 8.01893 114.748 6.19239 117.649C8.82201 118.958 5.98889 119.656 5.57658 121.324C4.6062 122.709 5.77618 123.255 7.03849 123.512C7.03041 123.406 9.2258 120.21 9.69311 122.106C10.8496 129.679 13.6085 120.635 14.2678 130.392C14.4343 132.153 12.8693 130.833 12.192 131.838C12.0466 132.45 12.615 133.223 12.9223 133.597C11.6712 134.099 12.6443 135.141 12.9232 135.511C11.3924 136.575 11.3404 137.829 12.115 139.577C10.457 141.832 14.2527 145.013 15.9993 145.439C6.71312 148.64 13.2581 146.389 10.2697 152.71C8.56889 152.128 9.77892 155.387 8.72969 156.344C7.99431 157.3 10.4854 156.573 9.38388 157.713C7.7885 157.374 7.73469 159.579 6.922 160.761C5.43892 161.635 5.74544 163.019 6.46159 164.007Z" fill="#DBDBDB"/>
</svg>
