<svg width="144" height="80" viewBox="0 0 144 80" fill="none" xmlns="http://www.w3.org/2000/svg">
<path d="M1.26921 79.1235C3.69728 78.7045 6.32922 79.066 7.69229 78.8894C8.24306 77.0578 10.2134 78.2143 11.4231 76.7392C12.1588 75.7269 12.7957 73.6561 14.5388 73.8864C14.5827 71.857 16.0561 70.9647 16.3088 69.157C18.4565 68.4437 16.8061 65.5158 18.7304 65.2472C19.9273 65.9426 21.2531 64.8361 22.3461 63.6455C27.0265 63.3176 33.3327 62.1817 38.3846 61.3797C41.6215 59.6943 44.8908 62.0364 48.0769 61.3789C49.9965 61.0971 50.9469 58.0879 53.0769 59.3856C54.0388 60.1376 55.0677 59.5747 55.3077 58.4471C57.3634 59.0393 59.1342 58.5425 61.2692 58.0559C64.4284 57.3676 67.0573 58.7821 70 57.0005C71.5531 55.697 70.6284 53.0119 72.115 51.8807C72.8996 51.0064 74.6592 50.6659 74.8077 49.4578C75.0527 46.8039 77.1757 44.8558 78.0781 42.8136C76.8169 40.9383 79.2842 41.9854 78.8846 40.8198C80.3046 42.1214 79.6869 39.6023 80.8073 40.3891C80.4585 41.5742 81.3911 41.0184 82.423 40.4681C82.9573 39.5515 83.5719 41.0802 83.8842 40.3508C83.0846 39.3858 84.4204 39.8579 84.8842 39.4128C85.1754 38.8843 84.8731 38.6686 85.7692 38.5142C86.2431 39.3416 86.6461 38.187 87.3458 38.6311C88.2188 39.353 88.6631 38.9989 89.5765 38.7874C89.8308 36.6721 90.9473 39.3651 91.0384 37.8884C90.1127 34.9382 94.0023 37.6242 93.5769 36.325C92.9704 35.1091 93.8419 35.9916 94.1915 36.0518C94.6292 35.0434 92.9969 34.0991 93.8838 33.5108C95.5061 32.2355 95.8858 29.7066 97.8073 29.4846C97.8188 28.613 96.5231 26.9905 97.73 26.749C98.9119 27.879 99.6923 31.8931 101.192 29.7586C101.996 33.9666 105.628 32.3269 104.922 29.4455C105.048 25.9681 102.564 30.2562 98.7311 23.2696C98.3754 21.7804 100.373 23.0409 100.961 23.5049C101.877 21.893 102.965 21.5248 104.923 22.0591C106.75 22.2307 109.457 21.642 108.653 24.4824C108.833 25.0749 111.11 27.3716 110.615 25.7328C113.811 26.7705 113.56 27.2649 115.152 24.9108C117.12 25.6749 117.627 24.74 116.345 22.8002C116.868 22.1728 115.472 21.8992 115.076 21.7065C115.502 20.2209 118.028 22.6188 118.114 20.7294C119.866 20.2783 119.589 26.2346 122.538 25.3802C124.174 24.4257 125.773 23.1289 127.191 25.655C128.105 25.1719 129.105 25.0304 129.96 25.7718C130.21 23.0824 131.444 20.1787 132.807 19.4399C136.764 19.6502 133.048 23.4068 136.922 22.2932C140.811 23.5475 138.033 18.1486 142.384 18.4241C144.576 17.4982 140.669 16.9955 140.653 14.9443C140.391 11.9488 140.495 7.43673 137.576 5.75956C133.987 3.29013 134.286 4.02692 131.922 6.62065C130.547 6.28177 127.98 2.68196 127.691 6.38572C130.16 10.2654 126.073 9.58644 123.845 8.10392C122.141 8.06054 121.613 9.674 120.23 10.2548C117.468 10.3177 114.44 9.23469 113.115 7.47896C112.919 9.61147 111.181 8.20164 110.076 8.80786C108.998 13.0619 105.289 11.2929 104.538 7.9089C105.723 5.5493 102.884 5.20572 102.307 7.32338C102.599 8.5839 103.954 10.032 102.384 11.0752C100.533 11.6494 101.253 8.93997 100.423 8.14379C98.7796 7.07519 98.8207 8.84696 100.077 9.47272C101.053 16.1032 96.7184 9.38322 94.423 10.0191C91.3346 13.438 96.4035 10.6386 96.8458 12.2474C96.72 13.6588 98.67 13.9293 98.7688 15.2969C98.4919 16.8869 95.6069 16.4941 95 15.2578C90.8396 12.0422 94.9792 17.8804 93.5388 18.8142C88.4604 21.2492 88.9054 11.7577 85.5 11.2312C83.9715 12.6492 81.3042 11.0987 80.4996 13.1855C79.7623 15.094 78.5911 14.0332 77.3842 13.7323C75.9773 15.4778 75.7277 12.7786 75.0381 11.9347C73.1319 11.4043 71.1742 13.6561 69.115 12.716C66.32 11.6635 69.4019 3.724 65.3838 5.56338C64.5323 7.40939 66.5554 8.55148 66.8842 10.1759C65.8461 13.5392 64.6184 10.7739 63.3461 9.39376C61.9188 8.34314 62.5931 7.35858 63.4615 6.2677C63.0519 5.20886 63.8146 1.70521 61.8073 2.86684C61.3946 8.9177 59.7573 3.08142 57.5761 5.91552C55.8873 9.4559 54.1738 6.45685 51.7688 7.00992C52.2304 4.72536 50.3234 1.52034 48 0.365356C46 0.633484 45.8492 6.86335 44.7684 2.16407C37.4492 -1.96573 36.5742 5.46994 38.3465 10.958C38.548 12.6023 38.3923 14.5132 38.1915 16.43C38.1207 18.2877 39.0181 20.5914 38.4619 22.2537C39.935 22.4656 38.7692 23.3388 39.115 24.912C37.7231 26.2929 34.7161 24.5383 33.3846 23.4259C31.4069 23.2805 29.7011 23.2102 28.615 23.8172C27.2858 24.0224 25.4388 24.1826 24.115 25.3028C21.8404 26.321 21.1265 28.7396 19.6919 30.11C17.9415 31.1473 17.4257 34.1245 15.5761 35.6992C15.1623 36.556 14.3288 35.9959 13.6146 36.051C12.6938 36.606 12.3361 37.7153 11.2684 37.9271C11.72 38.4153 12.2931 38.4001 11.7296 39.1779C12.3184 39.8345 13.3488 40.2496 13.0373 41.4448C12.6119 42.6162 11.8731 41.0552 11.23 41.2881C9.86498 41.0817 9.95728 42.5373 10.5384 43.242C7.66844 43.0681 10.8742 46.2043 7.69113 45.9784C7.37613 46.7105 7.90613 48.0519 6.42151 47.3073C4.35959 45.45 4.32805 48.1852 5.23036 49.3788C4.64536 50.5573 3.73036 50.4275 3.26767 51.6071C2.28805 53.0177 0.941132 53.5595 0.651901 55.1245C1.50805 56.0422 0.168821 56.9341 0.806514 58.3689C1.20498 59.3859 0.986128 59.3781 1.07574 60.0492C1.63767 60.6074 1.67305 60.1337 1.07574 60.7137C1.30036 61.8832 2.5619 62.5066 2.99844 63.216C3.47536 63.2664 3.02075 64.4136 3.38344 64.4663C3.10844 64.9142 2.4469 64.3807 2.53729 65.1703C3.11498 65.7319 2.93729 67.0315 3.99883 66.8115C4.79537 67.8285 4.47536 68.0462 4.99844 68.4144C5.80998 69.4756 3.53651 72.1603 2.80728 73.2215C2.32036 75.2055 1.46998 77.1066 1.26921 79.1235Z" fill="#DBDBDB"/>
</svg>
