<svg width="169" height="245" viewBox="0 0 169 245" fill="none" xmlns="http://www.w3.org/2000/svg">
<path d="M34.9231 13.0828C34.0892 13.4623 33.9588 13.4861 34.8081 13.5909C35.1277 13.6769 34.4631 14.4219 35.1542 14.6067C33.9916 16.932 35.5746 18.5513 37.4235 18.5552C38.2881 18.5423 36.9069 18.7909 36.8465 19.3752C36.2869 20.1589 38.7711 21.9119 39.1535 22.8933C41.8096 19.6445 43.5439 24.2976 46.0004 24.3395C49.1716 25.0446 46.7923 21.648 47.9996 22.2281C48.9892 23.7716 48.4754 21.5644 47.7696 21.4866C57.0008 14.8901 50.3608 31.96 57.3077 28.7163C61.0561 28.5166 51.4723 33.0662 54.77 35.713C56.0727 37.1021 59.6923 32.8848 57.3462 38.4498C55.5746 41.6849 53.3638 41.9664 55.6173 45.7584C55.0723 46.1931 53.5669 49.9351 55.9608 49.0405C55.2289 50.2584 54.3589 50.2318 55.0385 51.5423C52.04 57.9114 47.5177 53.3196 51.4615 60.1803C52.9896 59.4302 53.7004 58.6712 53.2308 60.8455C53.7681 62.3081 53.2615 63.0542 51.7688 64.0892C51.9669 65.5014 53.5285 62.8924 53.5004 63.6593C53.4935 64.9878 52.6104 68.2601 54.8081 65.5749C58.1027 60.67 55.1692 69.6273 57.1931 66.8647C57.9396 66.1522 58.7812 65.8231 59.7308 65.4186C62.3258 64.5 59.3323 74.1558 64.4996 70.5368C64.6392 74.5799 63.5754 75.6958 66.4627 77.7298C71.755 77.0685 67.9169 73.1462 71.3454 71.7887C76.6239 69.6457 74.5877 77.2166 75.8081 80.5838C71.3939 80.2047 74.3458 84.9411 74.3458 87.7369C75.845 90.9716 72.4677 91.2593 70.1531 90.7465C70.13 92.8767 72.0958 92.6789 72.0761 95.3582C73.4561 95.6162 73.0466 94.8419 73.0381 93.8726C74.7915 93.7573 76.9615 92.4323 76.8842 95.0455C77.9642 98.0575 75.0885 98.761 75.7315 102.355C75.3292 105.597 70.6254 107.362 78.0392 105.13C77.4927 110.41 82.3019 105.848 82.4623 108.099C84.5688 113.521 84.6754 113.29 90.3088 110.874C93.7385 110.459 89.0161 119.065 94.8842 114.275C95.1134 114.74 96.1008 114.908 96.1154 115.721C97.3581 116.681 92.57 116.224 94.77 118.379C97.2427 121.797 95.8223 126.489 94.7312 130.261C95.2312 131.224 95.6262 132.988 95.27 133.935C93.5442 134.839 94.4873 136.097 94.6165 136.475C95.2662 138.29 90.6988 137.237 91.1527 138.469C91.8427 137.201 92.1015 139.807 92.1535 139.798C93.3723 139.991 92.3988 140.251 92.5761 140.736C94.2454 140.563 92.9462 141.926 94.5385 141.791C93.6504 142.295 94.5392 142.558 95 142.026C95.3635 141.857 95.3084 140.392 95.7308 141.322C93.7592 145.354 98.1181 138.593 96.9996 142.377C98.7785 141.9 95.0058 143.53 98.9235 144.487C98.5792 144.877 97.8285 144.546 97.3846 144.684C97.1358 146.034 99.8085 144.85 98.8077 146.364C99.2319 146.936 100.933 145.824 101.116 146.637C99.465 147.308 102.338 148.678 101.923 147.341C102.166 146.499 102.532 147.632 102.731 147.81C103.655 147.697 101.695 146.136 103.038 146.794C103.294 148.033 103.733 146.957 104.423 147.81C105.225 148.243 104.375 149.133 105.192 148.944C106.124 146.787 107.016 147.509 105.962 149.139C101.408 153.17 102.699 148.407 98.9227 151.17C96.5277 150.783 92.1542 148.904 91.615 152.892C88.1388 155.667 85.2908 141.979 82.7696 144.487C85.4104 150.742 77.3108 143.845 79.5773 149.49C81.7381 155.7 72.9681 154.264 74.0008 148.513C67.3008 148.444 72.1311 144.886 67.615 141.947C66.2469 143.819 63.69 145.653 64.7696 147.849C63.6546 146.437 63.4592 141.047 61.5773 141.946C60.9981 142.956 62.1546 144.197 60.1531 144.565C60.3104 145.877 59.8615 146.967 60.8461 148.67C58.7584 149.17 57.9246 148.216 57.27 150.859C56.7031 151.95 55.2385 151.621 54.4615 150.975C54.9335 150.067 57.3635 148.752 56.0773 147.81C54.0485 144.736 58.1585 143.494 56.27 141.321C56.9554 137.306 54.5569 136.37 52.0381 138.702C52.8527 141.537 50.1215 140.465 48.2692 140.774C45.5077 140.326 45.8331 142.996 43.1158 142.689C39.1027 143.298 48.0923 143.718 43.3465 145.034C34.3296 143.934 46.0661 155.569 41.9996 157.463C38.9211 161.322 43.1311 163.046 45.8085 165.358C47.9615 167.637 41.6785 171.622 40.5012 174.349C41.5215 175.806 44.4727 177.731 42.8073 179.663C42.4354 182.571 38.9761 181.976 36.8461 182.83C22.22 183.298 37.9527 195.548 26.7315 196.315C29.0623 200.952 23.0269 200.011 20.3073 200.105C22.4427 203.825 20.3454 203.387 17.8461 203.036C16.4269 201.883 16.9004 204.906 16.2304 205.695C14.5319 207.218 14.5515 209.137 16.885 208.586C17.2658 211.611 20.235 215.954 15.5 215.856C17.3439 219.933 16.54 222.92 12.1142 222.423C12.3954 219.707 7.20116 218.256 5.03847 218.006C3.50539 219.681 -1.55579 223.983 1.99883 224.535C4.44614 224.871 4.42077 227.274 4.30693 229.185C5.25693 231.297 6.46152 233.403 7.65306 235.4C13.1519 237.403 18.1096 241.595 23.9992 241.615C26.1373 242.613 27.7481 243.789 29.9227 242.238C35.9915 241.624 27.1381 239.537 30.4227 237.862C31.49 238.076 32.9369 237.428 32.5381 236.181C32.1634 235.977 30.8677 235.527 31.3839 234.97C32.6696 233.099 33.7112 234.833 34.9227 235.673C36.9092 235.489 37.5723 237.447 39.115 238.409C42.3496 239.78 38.4704 234.46 42.9615 234.384C45.2815 232.289 48.0011 231.652 50.8073 230.474C53.2592 229.833 54.9138 226.148 57.615 226.918C59.5881 228.317 60.0992 224.793 61.7304 225.745C62.9858 227.044 64.9308 226.155 66.4611 225.98C68.6988 228.129 72.4446 227.653 74.8073 229.771C83.1462 237.296 77.7181 238.533 80.1139 244.116C80.9273 245.435 81.3577 243.441 82.1923 244.193C82.5611 243.547 85.1058 243.777 84.3846 242.083C83.3577 238.747 87.0708 236.225 84.9223 233.015C83.8946 230.038 88.6873 222.342 83.5769 224.221C84.2869 222.499 83.68 221.656 82.0769 223.596C81.5938 224.214 81.6792 224.451 80.6919 224.025C80.2558 224.475 79.9765 225.08 79.7304 224.142C71.0562 220.364 90.5458 209.621 94.6915 205.068C99.9173 200.297 105.653 196.036 110.847 191.272C114.59 186.064 119.422 179.841 123.27 175.715C127.889 169.723 132.087 161.89 135.153 155.234C135.97 153.979 137.011 152.127 138.577 151.833C138.219 149.868 139.835 148.14 139.653 146.166C139.044 144.854 139.379 143.495 139.077 142.374C138.919 143.436 137.167 142.438 137.384 140.811C137.752 138.251 140.212 136.328 142.961 137.763C145.546 136.675 147.965 135.352 150.807 134.832C158.582 131.302 165.212 133.9 160.538 123.262C160.193 121.323 161.572 119.641 160.384 117.751C161.017 115.335 160.211 113.904 157.73 113.921C157.592 111.644 156.719 109.893 154.23 109.622C154.477 108.25 154.092 107.245 153.153 106.221C151.86 102.108 162.35 103.368 165.346 102.156C162.729 96.9545 170.71 102.188 168.038 94.8462C167.711 78.6436 158.747 95.2597 158 86.2872C159.75 87.9515 161.208 86.5819 160 83.7853C162.661 83.9268 161.117 81.1158 161.347 79.8377C159.034 80.2305 156.884 80.8176 155.27 81.5582C152.984 82.5584 152.851 81.532 152.462 79.4859C150.587 80.2422 151.948 79.0442 151.654 78.001C145.252 80.6155 148.22 76.3637 145.155 75.6148C143.614 73.5023 147.773 74.2832 146.77 72.8808C144.349 71.2799 146.248 68.9879 145.924 66.7834C141.832 68.0975 145.603 64.6157 144.077 62.2108C143.892 60.4211 146.167 60.4938 145.347 58.3417C146.118 56.8549 144.161 57.2621 143.038 57.7163C142.103 55.2523 138.093 58.5125 138.193 54.2756C140.572 54.3229 140.072 52.4663 139.615 50.6805C140.22 50.1224 140.81 49.5713 140.539 48.4921C133.62 49.4005 138.398 49.8073 135.809 52.3624C132.114 53.4001 134.55 51.0104 133.578 49.7424C130.27 50.5285 127.382 49.7331 123.27 51.033C123.022 50.5003 123.242 48.8575 122.347 49.352C118.689 50.5957 120.468 43.4618 118.961 41.0271C118.49 38.7914 121.702 40.1071 120.269 37.1569C122.794 37.3335 120.494 35.8061 120.654 34.3431C113.178 38.0421 114.963 28.8296 113.847 24.7663C111.484 22.9402 111.039 21.2447 109.924 18.6302C113.404 17.8098 110.277 14.8065 108.885 13.9798C109.817 13.4232 110.927 14.1111 111.231 12.337C112.074 12.5016 112.944 12.4805 113.615 11.5557C115.643 11.9001 114.919 11.9172 114.846 10.8526C115.374 11.4717 117.365 11.9309 117.078 10.2659C113.203 10.2647 116.005 7.68661 111.808 7.37431C110.768 8.3968 108.87 7.29497 107.77 6.78763C106.67 7.98014 105.728 7.39387 104.424 7.41263C103.368 8.40932 102.458 7.27623 101.308 7.56898C99.9677 6.96979 99.8288 5.68153 98.9631 4.32447C97.3538 4.71728 97.6085 3.67682 98.155 2.40967C97.3404 1.56463 97.0577 -0.310718 96.3089 1.62793C94.7777 1.25857 93.5735 -0.728921 92.9242 2.01998C91.6342 5.65495 90.9846 3.38992 89.0777 2.01801C85.9419 2.79816 83.0958 2.8431 79.9623 3.69947C77.4465 2.30958 80.7881 6.27602 79.885 7.25551C79.5885 8.26822 80.3346 9.79529 79.0388 9.60103C79.6538 10.5645 79.7896 10.5172 78.5004 10.3444C77.7404 9.69133 77.66 9.08314 76 8.5848C76.0004 10.1025 74.5473 9.87698 75.1931 11.1649C73.6004 10.9792 71.6785 12.0759 69.8084 10.8131C68.6819 9.5936 67.6181 8.99014 65.4619 9.99347C63.6892 10.0556 64.7077 11.8504 63.4242 12.1033C62.2273 11.3564 60.9738 12.5504 59.0011 12.0638C57.5854 12.2534 57.6735 11.0468 57.2704 10.3046C56.3265 10.5606 55.465 11.5889 54.8089 10.2659C53.7104 9.50644 55.1046 8.95925 56.0012 9.6409C56.235 9.34385 56.3527 8.60277 56.8088 8.97565C58.1308 9.11128 56.8465 7.91799 56.8473 7.1781C56.4542 8.51991 55.505 7.5764 54.7319 7.84258C54.5196 9.18478 52.2888 7.49706 50.8858 7.95983C52.27 7.9399 51.4062 6.22755 50.5012 6.98269C47.5715 3.29221 45.6804 1.77293 45.8081 7.4517C45.205 8.97917 44.5558 9.859 43.9627 7.8031C39.2331 5.21328 40.2865 7.63464 39.0023 11.8684C38.2011 12.4281 35.5185 12.2268 36.1938 13.7441C35.7423 14.2948 35.4315 12.8526 34.9231 13.0828Z" fill="#DBDBDB"/>
</svg>
