<svg width="162" height="153" viewBox="0 0 162 153" fill="none" xmlns="http://www.w3.org/2000/svg">
<path d="M86.8846 143.473C88.5 141.739 90.3166 140 92.1146 137.765C94.3677 135.266 93.7039 131.283 96.5004 129.128C97.8558 127.177 105.365 127.272 100.808 123.46C100.005 120.017 110.84 123.198 109.038 117.949C108.779 116.618 112.355 116.46 110.077 114.588C110.401 113.205 116.921 120.531 117.692 117.089C116.759 114.844 118.409 115.114 120.038 114.822C121.827 114.279 123.147 114.059 123.038 116.386C127.457 116.454 126.252 113.628 126.884 111.031C130.568 116.085 135.453 109.382 135.461 115.839C140.213 115.925 142.95 113.777 149.153 113.064C149.112 111.683 148.503 112.367 147.576 112.321C147.3 111.119 147.484 110.832 146.191 111.149C142.842 112.443 141.985 109.218 145.576 109.194C148.141 109.406 147.19 107.479 148.806 107.2C153.959 106.874 145.812 104.525 149.192 101.221C151.873 103.233 153.588 104.503 155.076 100.555C156.17 98.6261 162.506 92.4216 158.616 90.9418C155.469 89.6078 157.985 94.0296 156.5 95.2405C155.769 96.9247 153.97 95.4676 153.385 98.2517C147.327 94.5956 144.476 93.6345 149.384 87.6973C149.324 85.4296 151.742 86.0647 152.307 85.5476C152.773 86.3892 152.669 87.4046 154 86.9938C153.303 85.7806 155.112 86.1023 155.499 85.2349C155.857 84.9226 154.965 83.0328 155.846 83.7888C156.295 83.7446 155.402 82.9985 156.307 83.5546C157.861 82.3477 157.402 85.3241 158.884 84.9613C160.982 84.4095 156.631 82.7698 160.192 82.4215C165.27 82.7499 155.398 78.2214 157.922 77.3005C156.675 74.7604 159.019 75.5886 159.462 74.4481C159.015 64.9487 152.372 75.5608 153.807 65.5357C155.993 65.5787 153.288 62.9971 155.73 62.722C156.211 64.3768 154.559 68.9233 157.345 67.6855C161.082 67.918 158.139 63.5498 158.884 61.7444C161.462 52.0148 157.094 62.0403 156.768 56.5073C158.437 50.9021 153.493 53.4266 149.845 53.3805C149.451 52.3506 150.812 52.1067 151.153 52.2079C152.375 50.467 150.54 45.4324 150.423 42.4752C153.567 41.5125 157.346 41.7286 154.652 37.9416C155.707 37.2779 155.577 35.994 155.114 34.3059C155.561 32.9535 156.777 32.7686 155.883 30.3973C158.207 21.5456 152.735 30.5032 151.46 24.9644C153.48 24.3093 150.931 21.3642 152.039 19.6886C151.211 15.1801 152.281 16.2135 148.807 16.172C147.459 17.0851 145.011 16.7134 144.998 17.5764C146.179 18.294 146.848 21.4267 144.692 21.0558C143.5 20.3972 141.347 22.1737 140.846 21.1735C140.128 21.0601 141.098 20.0489 139.884 20.2745C137.034 20.9522 134.042 20.1224 135.423 23.988C136.701 23.8457 137.757 23.1512 137.96 24.8483C127.326 28.0353 137.996 24.4227 133.191 33.9158C130.903 36.1812 124.665 35.7438 120.884 36.9653C120.363 35.9021 120.725 35.9822 119.422 36.4962C118.615 36.4012 119.63 36.2211 119.384 36.0659C118.805 36.2039 117.582 36.2273 117.499 36.9254C115.115 36.2355 114.923 33.1587 111.883 34.5814C108.267 34.8726 112.032 40.2207 107.537 39.8568C105.27 40.5201 106.879 38.9129 105.038 40.1316C99.6196 33.1552 100.205 34.2191 90.9219 37.1615C88.6077 38.2207 88.327 36.7921 88.1147 34.7366C88.4812 34.6252 91.297 34.4818 90.1143 33.5257C89.292 32.5767 89.8165 31.9658 89.7296 30.7893C90.0492 30.7655 92.1031 30.9805 91.3446 30.2034C91.2931 28.898 90.8592 27.4983 90.7677 26.2554C89.6004 26.7952 89.4546 26.2362 89.3835 25.1606C89.7477 21.2864 86.7643 23.4873 85.3058 23.0507C83.5081 26.928 83.3181 18.5266 82.7292 16.6798C85.7489 16.6258 85.9016 15.4228 85.0746 12.7313C85.5504 9.22494 81.0654 13.2832 80.69 11.0901C80.5935 9.26246 79.6265 9.74011 77.9981 10.0739C78.4838 8.02347 74.7927 8.20013 74.9208 9.60448C74.3354 9.599 75.4116 11.3579 74.075 11.0893C74.3773 12.3874 72.8919 9.18976 72.5754 11.0901C74.1092 14.8119 71.2431 12.899 70.805 14.8033C70.3412 16.1357 68.4304 13.8859 68.7673 13.2402C71.7527 11.1284 69.3831 7.74906 65.8062 9.60603C64.6577 13.1179 64.3562 7.14872 63.575 9.21401C62.2396 10.3452 60.4727 10.4933 60.7681 8.15907C57.5192 9.58843 55.1369 10.8548 55.2296 6.16494C54.9808 4.87629 51.4523 5.66971 53.5369 3.54618C51.9062 -0.553913 47.7131 1.6951 44.8827 0.576073C39.8493 0.415822 44.6512 5.33203 40.075 4.36778C39.0435 4.21066 39.2919 5.0072 39.2677 5.81393C38.2423 5.47545 37.9669 6.61558 36.8831 5.93041C35.4642 6.85948 34.8431 5.83818 34.8065 4.3283C33.9619 5.12956 33.0581 3.17997 33.2292 4.64099C31.5569 7.92458 32.1881 3.07246 30.4216 3.85926C27.8719 4.16061 26.5931 3.54346 23.8442 4.25092C25.3208 6.52062 22.1919 4.87589 22.4208 6.55657C19.3092 8.25993 17.5765 2.90597 16.1139 6.51631C15.9981 4.80631 14.6 6.04964 13.9212 5.9316C12.4054 4.72229 11.7508 6.5171 10.075 5.89212C8.0004 2.91848 2.35425 10.8759 8.07502 10.2689C8.39425 11.9234 6.34463 11.5009 5.84463 10.8556C5.15694 11.232 7.02346 11.7948 6.03692 11.7546C4.20038 11.2691 3.76462 12.7044 2.22885 12.3397C2.26962 14.2522 0.102693 13.309 -0.00192261 14.099C5.46192 17.5276 -0.526539 17.5381 2.19038 21.1348C1.24423 22.8526 4.8327 23.7457 5.38232 25.4346C4.16809 26.717 5.89231 29.634 5.76655 31.4143C5.91847 36.0632 8.01309 35.2525 11.6531 34.3449C11.5342 35.8658 13.7715 37.2721 11.2677 37.1595C12.1485 39.0896 11.3562 39.1404 10.2673 39.8951C9.28695 41.7849 11.5508 46.0578 11.3046 48.5726C11.2658 51.0842 14.5873 47.7228 14.2665 51.0353C17.4462 50.4053 20.8365 49.5309 22.8442 50.3314C26.9469 48.286 22.425 53.6185 26.5365 52.4029C29.3504 51.5837 25.3581 48.7254 29.9989 48.8473C32.5385 47.8326 31.5015 50.0949 30.6135 50.684C30.7735 51.8311 31.6016 53.8737 30.3062 54.0449C27.1935 55.3868 31.7281 57.7796 33.7285 56.6629C34.7935 58.8927 36.9927 55.4594 36.6892 60.1826C33.9462 60.1384 35.5608 63.3935 35.7669 65.3407C33.7758 65.2078 35.0392 68.1267 36.9208 66.7861C37.0765 69.064 35.5354 71.1844 37.7681 72.8838C38.2877 73.8332 33.5546 75.1211 37.2281 75.3861C36.7185 82.0514 43.5043 75.5835 42.3069 79.7235C44.0139 78.9793 43.6169 80.896 44.075 82.0694C46.6346 82.112 50.7404 78.6295 52.6135 80.622C52.8016 83.4519 50.5081 83.6129 51.6127 86.7593C49.7369 87.8537 48.52 84.6975 49.3827 87.9709C47.2708 89.5656 52.6246 88.5541 53.8823 88.909C56.1269 83.6715 58.9546 90.3044 59.0354 93.9511C61.7458 102.767 53.6654 96.7508 56.3439 102.159C52.8173 103.611 40.3604 101.699 45.2285 107.748C44.9735 111.787 48.4827 108.271 48.8439 114.042C53.9285 113.739 50.6993 121.275 51.6908 124.359C53.1397 125.002 53.1646 128.116 52.9988 129.285C51.0915 130.589 54.0231 132.109 55.6138 132.723C57.5496 132.931 60.8115 133.326 62.2285 133.468C62.0839 131.632 64.1381 131.596 65.3443 132.333C66.0643 131.072 66.8935 131.836 68.7673 131.629C76.6208 133.263 69.3684 134.362 71.7281 137.101C74.6942 140.643 78.6442 143.28 81.3439 147.147C83.21 148.531 83.1466 151.832 85.19 152.697C85.7431 150.283 81.9673 148.112 81.4985 146.638C79.1143 143.427 84.5265 141.937 86.8846 143.473Z" fill="#DBDBDB"/>
</svg>
