<svg width="197" height="149" viewBox="0 0 197 149" fill="none" xmlns="http://www.w3.org/2000/svg">
<path d="M16.8847 91.4727C16.5781 95.9023 18.7662 102.898 14.1928 104.839C9.90931 113.326 0.858521 111.069 2.15429 101.087C1.18429 98.4483 0.441188 104.095 1.34657 105.113C2.5258 108.319 5.61044 110.46 8.73083 111.445C25.207 114.982 41.1212 119.76 57.2304 124.54C66.187 126.278 75.0243 129.471 84.2693 129.15C85.5408 128.455 87.5751 129.095 85.3078 128.37C83.1201 127.086 81.6835 128.53 78.7308 126.142C77.4916 128.725 75.2862 124.901 74.3846 125.203C70.8416 128.682 66.2443 126.58 61.6539 125.241C56.3085 124.496 54.9527 123.623 61.1162 121.919C62.9004 120.854 64.9012 122.083 66.9231 121.176C69.1724 119.909 68.9846 120.246 71.3466 120.553C73.2566 121.033 75.4385 120.552 77.3846 121.296C79.5393 121.058 82.1924 121.192 84.2312 120.748C82.3974 120.773 82.6866 120.276 83.5008 118.754C82.2604 116.973 84.4424 117.377 85.6928 117.581C85.8489 119.297 87.9216 119.424 89.0385 119.849C89.9743 119.343 90.7554 118.18 91.7312 117.464C92.2627 117.553 92.0039 115.638 92.9616 115.94C95.4543 117.187 92.8589 118.035 93.1531 119.809C92.9516 120.37 92.267 121.255 93.3847 121.372C93.4043 120.776 92.8347 119.822 93.577 119.418C95.4866 118.345 99.7304 119.012 98.7308 122.076C98.3946 122.701 97.5674 122.633 97.1924 122.076C96.8185 123.718 97.9727 124.023 99.3462 123.835C97.89 123.677 99.0162 120.326 100.115 120.864C99.9777 122.499 102.237 122.251 102.077 123.17C101.353 124.333 106.846 129.498 104.999 126.65C106.694 126.689 107.116 125.023 108.154 127.001C112.308 130.002 105.265 121.365 111.424 123.756C114.078 124.406 110.652 122.526 109.923 121.802C109.55 120.673 109.421 119.622 110.538 120.513C112.724 120.334 110.317 118.955 112.269 118.91C113.642 119.29 111.797 116.783 114.308 117.307C119.517 123.342 112.949 110.495 117.077 111.485C122.303 117.617 124.479 111.469 129.347 114.766C133.022 116.221 136.634 122.74 140.692 120.318C145.133 123.069 148.438 127.734 154.424 124.185C159.436 128.314 161.763 140.207 167.076 130.244C172.515 128.962 175.917 136.618 179.924 139.352C179.432 143.042 179.733 145.988 183.923 146.465C193.988 152.239 184.96 141.158 184.385 136.03C182.432 130.788 182.119 125.097 181.384 119.614C180.355 117.491 180.762 116.37 181.385 114.063C184.287 108.88 191.249 110.916 195.192 107.302C195.567 106.811 196.143 106.227 196.385 105.66C194.067 107.304 193.6 100.239 194.499 99.7577C195.509 99.9493 193.308 92.752 193.733 91.2769C190.03 92.24 188.368 87.8186 184.962 89.2445C185.807 79.4222 176.652 90.9931 175.154 80.2141C179.263 80.2031 177.619 73.2975 173.577 75.5648C173.882 73.7048 171.728 74.8269 170.768 74.7432C169.088 71.5566 172.447 72.273 172.193 70.4833C176.718 70.4931 178.571 68.0412 177.577 63.8383C181.225 64.1299 180.66 61.9564 180.115 59.0304C173.775 60.7599 180.807 51.7018 171.23 51.5267C168.84 52.0403 169.725 46.7985 167.231 47.5005C166.958 43.898 166.462 41.2914 164.46 39.8808C164.758 37.004 161.502 30.227 164.191 29.2084C166.085 29.31 164.545 27.5684 164.577 26.4337C162.521 27.7482 161.489 23.4221 163.692 23.6977C164.299 23.7743 164.709 23.2107 163.923 22.9555C164.421 22.0932 163.924 22.0451 163.077 22.4473C159.723 22.5333 158.621 23.8931 158.192 26.1222C156.571 26.9555 155.861 25.1286 154.308 25.8478C153.663 26.4505 153.16 28.1675 152.269 27.1767C152.511 23.7016 150.119 19.9939 150.383 17.6402C149.662 12.4543 149.165 9.79685 143.384 11.7789C140.353 12.0154 136.515 12.3011 133.73 12.0122C133.538 10.7736 133.965 7.59595 132.539 7.43843C127.482 8.52071 122.053 9.00379 116.961 10.0185C116.686 8.42298 116.767 7.02217 114.768 7.90825C113.523 10.3445 113 3.25976 115 3.76475C114.766 2.69458 113.799 0.654319 112.693 0.675425C104.588 0.70044 110.635 4.44601 106.616 5.4466C104.894 6.25997 99.1562 5.66354 99.8839 7.90666C101.54 9.15506 99.9916 10.2886 98.6531 9.86253C99.3693 9.71166 98.9512 8.56721 98.4612 8.49373C95.8439 8.37022 98.942 4.9592 96.7693 4.97601C95.8662 5.62132 94.5943 7.03624 93.6151 5.91409C94.3904 5.67723 93.5127 4.68485 94.115 4.54648C94.8692 4.30415 95.1581 1.60098 94.2305 2.70906C92.9781 3.10695 91.8604 3.03971 90.7304 3.06159C85.857 0.104369 85.1604 8.50742 89.6147 5.21171C90.6901 7.76049 88.1074 7.57599 88.8839 9.74486C88.2127 10.9378 90.227 14.7666 88.77 15.4123C84.7158 17.1966 85.9493 13.5858 85.7308 10.7212C83.5389 12.785 81.1224 20.8632 88.5378 17.7563C88.4855 20.2195 90.8677 23.2756 87.5 23.385C87.1808 27.2514 89.8242 27.3069 91.6931 30.225C90.6093 30.9856 90.8339 29.8556 89.8078 30.7722C87.1293 30.0526 90.8858 33.1783 88.6539 32.9997C87.0643 32.3395 88.035 30.8812 85.8077 31.3984C86.1762 32.003 85.8658 31.7294 85.5389 31.5539C85.2781 32.071 85.6812 32.6909 85.5004 33.2346C85.1258 33.9495 84.3327 33.8189 83.8466 34.2899C83.9162 35.0118 84.0839 34.9192 83.385 35.1111C82.2635 35.0427 82.9908 33.6419 82.0008 33.4691C82.1708 34.7406 79.8785 33.081 79.6928 34.6417C79.4051 35.9737 78.7185 37.0974 77.5389 37.7685C77.6266 38.562 77.3866 39.5618 76.5005 39.9964C76.0847 40.3232 77.2051 40.5132 77.2697 40.9345C76.9897 41.5274 76.8593 42.4354 77.6931 42.6152C80.0616 43.7319 83.6131 48.3283 84.7308 43.7877C88.0154 45.3207 86.2054 40.1782 87.2693 39.0588C94.25 38.0738 84.7112 49.0084 82.9243 51.6432C80.772 49.9133 77.27 47.9883 78.885 52.5046C80.0185 54.813 82.4231 54.6637 77.6916 55.3966C79.1835 58.2999 70.1458 56.4484 74.1154 59.5397C75.9327 59.3228 77.3623 58.3233 77.7689 60.3214C82.0085 60.6188 74.1658 62.1627 72.6543 62.2745C71.6058 62.6068 71.1062 63.1969 69.6539 63.2517C70.3773 64.547 68.4797 63.4502 68.0004 63.4873C64.3927 65.2493 66.0743 61.4084 64.3858 60.7498C60.9804 61.6913 58.76 60.9503 57.1927 59.4998C56.5939 57.0148 56.7097 63.936 55.9624 63.8774C51.7231 65.0011 53.37 60.9612 47.385 63.2927C49.9447 71.0856 37.9362 59.2356 40.6931 63.4475C41.4223 64.0595 39.5774 65.2153 38.9239 65.2067C38.7808 66.0271 40.0185 68.0764 38.8085 68.1382C36.7281 68.1413 36.8458 69.9584 34.7701 69.897C33.7428 69.3776 28.3905 70.2289 31.6158 71.3057C33.867 76.6823 28.1304 74.5341 26.5005 77.1287C23.7151 79.2831 24.3608 83.2678 22.1162 85.7662C20.4158 88.0668 18.43 89.6439 16.8847 91.4727Z" fill="#DBDBDB"/>
</svg>
