<svg width="169" height="158" viewBox="0 0 169 158" fill="none" xmlns="http://www.w3.org/2000/svg">
<path d="M59.6924 157.344C63.2866 151.465 66.6232 145.268 71.0001 140.03C73.4313 137.911 77.0858 137.626 79.5766 135.378C81.6716 132.651 88.7055 128.454 84.3847 125.724C87.1413 129.96 91.6293 124.045 94.8466 122.832C97.3355 121.388 100.372 121.73 103.154 121.19C105.78 121.964 107.817 121.909 110.347 121.111C120.322 121.419 112.109 136.001 109.615 132.057C110.455 132.555 109.177 130.726 109.616 132.839C109.378 134.493 108.697 134.295 110.232 134.987C114.159 131.205 115.994 125.384 119.078 120.839C121.68 116.799 126.508 115.3 130.847 113.96C134.462 112.817 138.425 110.837 142.117 113.217C143.577 114.082 148.786 118.886 144.886 120.175C145.054 116.853 144.8 119.546 144.924 121.112C144.264 121.152 143.879 121.584 143.501 122.832C141.902 122.334 143.469 123.338 142.194 123.379C143.935 127.863 148.377 111.364 150.5 109.387C154.035 103.835 162.2 106.35 156.77 100.319C161.128 95.249 164.561 99.3335 161.077 93.0883C165.58 88.9284 155.035 90.5087 155.347 87.7711C157.13 87.3775 155.452 86.4559 156.194 85.2313C154.464 85.0785 157.263 84.0533 154.501 84.1373C154.035 82.7916 152.632 80.8256 151.386 81.4005C151.715 80.3925 151.17 80.6239 150.694 81.0491C150.385 80.8483 150.249 80.045 149.809 80.5406C145.197 77.9023 150.443 77.5608 153.309 78.1173C154.297 76.3647 149.984 69.5501 152.578 68.3842C152.82 70.5531 157.307 67.434 157.579 69.7917C159.386 70.2529 160.492 67.3695 162.27 66.7821C161.43 64.9157 161.051 63.3664 163.578 63.4211C164.667 69.7706 166.578 64.5659 167.347 61.2315C167.939 59.1932 170.492 56.1707 167.655 56.2285C167.179 56.3149 166.612 56.3005 165.924 56.2676C166.154 52.789 164.269 59.3144 162.579 56.2672C160.014 55.566 157.441 48.0026 155.694 50.56C154.528 49.2353 152.679 46.7006 151.232 48.7237C147.288 52.0022 148.949 40.0541 142.694 45.2869C139.698 43.99 145.986 42.3504 140.655 42.9785C139.232 38.826 144.127 41.3721 144.193 38.64C142.089 38.7533 139.313 40.0514 139.579 36.2948C139.225 34.3777 137.855 33.8871 138.04 31.37C138.439 27.1796 132.145 33.0984 133.232 28.4781C136.954 21.2632 127.429 28.7951 123.656 26.8357C122.08 26.6266 120.257 25.2379 118.809 26.1322C119.675 27.0647 119.165 27.5709 118.001 27.6964C116.632 27.9664 116.083 27.7644 115.655 26.3284C115.283 26.464 111.512 26.5984 111.732 25.9774C111.152 25.5388 112.827 22.9603 110.424 24.9994C107.229 25.8734 104.867 25.5138 104.155 22.4976C106.281 21.5071 105.234 23.8472 106.386 23.984C108.105 24.1849 107.62 22.3522 108.694 21.4813C108.325 21.6197 107.491 20.9889 108.155 20.6605C106.92 19.2867 108.262 16.2161 105.809 18.3549C105.745 15.869 104.902 16.0445 103.808 15.425C106.68 14.5804 103.445 12.3099 103.078 11.0462C107.175 9.40502 102.601 6.89143 99.8482 9.05405C100.05 8.00186 101.099 7.21036 99.6551 7.56761C99.9489 7.28033 99.5216 6.74955 99.5782 6.47321C99.9486 6.08665 100.775 6.10188 100.27 5.41749C98.3851 3.36549 90.6016 10.2758 90.7705 4.87068C84.5524 5.34909 86.8812 0.0678503 84.0013 1.70359C72.2378 8.93562 78.9486 4.20546 69.6936 4.32232C69.3997 2.5236 66.7493 3.01218 65.5401 2.33014C63.7701 1.39286 62.2804 0.0268106 60.0785 1.39364C58.327 0.557204 57.0147 1.19976 55.3863 2.17495C53.0286 1.54802 49.5232 1.6809 48.8474 4.48022C37.4778 7.15368 45.2243 0.983225 40.3097 2.09521C37.7066 -0.629842 39.8962 6.76243 40.0012 8.07571C37.7062 7.67665 37.6912 10.6577 38.8089 11.3996C40.0086 12.5639 38.8751 14.8806 41.5785 13.7823C42.5158 15.8624 41.8062 20.6316 40.0389 17.3793C38.8631 17.6505 38.3316 17.7604 38.6174 19.1772C35.2139 19.0115 36.2174 21.196 36.8093 23.7893C39.0713 22.6312 39.487 22.018 39.732 25.001C44.2174 23.6897 36.0712 35.1344 44.4631 31.6049C45.7966 35.5534 42.3508 35.6003 43.3855 39.188C39.1974 39.5319 43.9078 43.1192 43.5778 45.3635C43.5955 46.4962 42.607 45.8567 42.8854 46.3406C44.0208 46.8718 42.0651 47.2603 43.4624 47.1618C43.3013 47.6883 46.102 48.7288 43.1931 48.9598C41.5831 49.4831 45.8832 48.0967 44.8082 50.0929C39.8851 55.643 31.8085 48.3848 25.6166 48.687C22.4504 47.9494 19.912 50.4888 17.1555 51.2271C11.5351 51.0497 6.76203 53.5254 1.65549 55.2925C-2.49682 55.7748 3.72585 56.705 5.07816 55.9553C6.22969 61.9734 6.96432 67.1045 8.80817 72.5285C10.5959 69.9465 11.7139 71.3606 14.1947 71.1225C14.5405 69.0092 15.8705 67.3719 19.0789 67.4481C19.8055 67.2034 20.5382 66.9251 19.9632 67.7991C19.8439 68.102 20.967 68.6301 20.0008 68.6199C17.9451 68.1012 18.2217 71.6662 19.5397 71.6299C20.6567 70.6422 21.847 74.2342 20.617 74.1306C17.0605 74.5781 20.8581 81.9563 20.4616 84.8788C20.6597 86.6708 23.4405 85.5913 22.7305 88.8272C23.2058 92.291 25.0781 95.3948 27.2312 96.5275C30.0801 95.1755 29.2112 99.1443 32.5397 97.5812C31.6243 103.88 36.4485 103.242 36.8105 108.369C29.9085 108.842 38.3443 114.288 26.3855 116.772C26.0839 120.675 30.042 120.305 32.9635 120.096C33.3543 121.918 34.3647 125.661 31.1566 125.214C32.5181 135.901 42.2028 124.466 40.8101 134.282C51.5166 133.981 50.3728 140.877 50.4243 148.354C50.969 151.735 56.857 153.953 59.6924 157.344Z" fill="#DBDBDB"/>
</svg>
