<svg width="228" height="146" viewBox="0 0 228 146" fill="none" xmlns="http://www.w3.org/2000/svg">
<path d="M61.5001 136.972C65.1355 138.334 62.4697 144.196 67.0385 142.835C68.5562 143.164 67.7435 146.003 70.3462 145.257C71.9458 145.586 73.3477 144.588 74.7693 144.046C76.7793 143.789 78.6266 144.582 80.4997 144.984C81.9324 145.373 83.0032 144.286 84.2309 143.851C85.6382 144.276 86.4054 142.42 87.8077 142.522C89.3435 142.028 90.5835 142.683 90.8454 140.606C92.0846 137.595 92.4389 136.381 95.9616 136.386C98.1585 136.437 97.7178 133.695 99.1916 133.141C99.9947 131.667 102.569 134.132 102.23 132.047C102.255 130.976 102.169 129.585 103.538 129.506C103.448 127.911 104.644 126.742 105.154 125.402C106.554 120.629 111.083 118.02 115.307 116.49C117.317 114.347 120.554 114.27 122.922 112.464C124.9 112.396 127.013 111.236 129.153 112.074C130.285 111.85 131.083 111.359 132.115 112.114C132.524 111.199 132.921 112.501 132.807 111.761C133.595 111.692 132.83 111.012 133.653 110.94C134.624 110.798 135.343 109.983 136.422 110.275C137.048 110.213 137.109 111.414 137.537 110.784C139.207 110.288 140.674 111.822 140.537 113.324C141.129 113.176 141.95 113.99 142.23 113.833C142.904 112.875 143.686 112.681 144.422 111.76C146.225 106.433 144.795 105.761 150.922 104.023C151.255 103.111 151.577 102.507 151.229 101.638C151.135 100.313 153.529 99.7028 153.845 100.7C154.421 99.5473 155.833 100.452 156.691 100.465C157.316 100.676 156.79 101.161 157.422 101.247C157.95 101.242 158.617 102.292 158.691 101.599C159.46 100.775 157.645 101.753 157.729 100.896C155.69 98.2312 158.957 97.9044 160.883 96.7917C156.545 94.5923 159.568 91.9986 163.152 89.4034C170.672 84.2741 181.71 91.4608 183.306 97.7681C185.86 97.3307 187.276 95.4499 189.805 96.5962C191.973 95.154 193.61 92.8808 196.729 94.0166C199.314 94.5806 202.343 95.0168 204.536 95.5011C205.475 94.7944 205.645 93.5183 207.152 93.4687C210.742 92.9105 214.606 93.3298 216.844 90.1459C217.136 88.8882 215.013 88.7545 215.267 87.3322C214.902 85.639 214.235 84.1815 214.228 82.4074C213.428 80.9909 217.182 75.5951 215.575 76.3483C216.197 77.5361 215.048 77.8394 215.266 76.8967C216.149 76.8556 214.285 76.2463 214.845 75.5677C215.253 73.9469 218.153 74.4851 218.344 73.3794C219.794 72.5195 218.02 72.9212 217.882 71.7764C218.248 70.9279 216.455 71.6064 217.613 71.0334C218.672 69.6654 218.302 68.5398 220.383 69.744C221.204 70.79 222.854 70.3971 224.42 70.4475C225.468 70.7411 225.53 69.2945 226.46 68.9627C225.982 67.8898 227.814 68.2048 227.228 67.3207C224.797 66.3255 225.899 65.1237 224.805 63.6075C222.956 61.8854 223.3 65.5919 220.959 64.1934C219.464 62.9071 218.44 61.6951 216.459 61.7322C216.162 62.5339 215.245 63.1272 214.305 62.5913C213.272 62.1282 210.574 59.3304 210.767 60.3239C209.894 61.527 208.828 60.152 208.036 60.0504C207.279 59.8498 206.442 60.4142 205.613 60.4803C202.582 60.7523 198.459 60.8098 196.151 63.2163C196.06 64.5886 196.546 66.2044 195.035 67.3203C191.24 70.8427 185.835 66.7629 183.92 63.0209C183.595 61.7881 187.102 61.1611 184.074 60.6749C183.182 60.3134 182.145 61.5395 182.382 62.4342C183.609 62.7336 182.038 64.2692 181.382 64.623C175.485 68.6386 181.881 66.7614 177.805 69.939C176.985 70.0762 177.741 71.0772 176.959 71.5021C175.397 71.7327 173.715 72.2783 172.228 72.6355C169.832 72.8294 167.684 75.9954 165.382 75.216C157.886 71.436 152.884 64.023 148.613 56.9626C144.553 52.1542 140.726 47.0883 138.113 41.2888C137.144 37.4279 134.296 36.7955 130.92 35.4654C124.662 34.396 128.191 26.3296 121.803 23.3884C113.629 12.0492 112.892 26.6387 108.42 22.2169C104.446 19.0177 103.424 10.3033 96.5739 14.6336C91.4032 14.2951 89.9901 7.87288 84.3816 9.90416C72.3209 -2.6576 71.8685 7.5692 63.997 0.484131C60.5416 0.889841 64.917 7.23033 62.457 8.92392C63.392 11.6728 64.6423 11.7466 62.612 14.0453C61.9381 16.4862 63.3874 19.1671 63.3432 21.7065C63.4751 22.3799 61.8639 23.0245 63.0358 23.3872C64.5935 22.1345 67.5189 22.1654 69.69 22.9182C69.9977 22.4753 70.5274 24.0458 70.6512 24.1685C70.9647 24.0071 72.0493 23.5842 71.19 23.9738C70.3366 25.1023 70.0901 24.7431 68.7282 24.5598C67.592 25.275 67.0366 26.4218 65.9974 26.1228C65.1412 27.1523 67.1735 33.057 65.6897 30.3839C64.4081 29.0737 63.7297 28.6552 62.4208 27.5701C61.3435 27.345 60.6054 29.9684 60.1516 29.1734C58.9108 29.1562 58.9762 33.08 58.0359 31.5178C58.1132 30.2194 56.837 31.705 56.2285 31.4791C56.0593 31.0788 55.7485 30.7079 55.767 30.3452C56.2701 30.2604 56.3535 29.9438 55.8054 30.2279C54.9108 30.695 54.6839 30.9069 54.5755 31.909C53.6001 31.757 53.5305 32.699 52.9212 32.9643C51.6889 31.6397 52.5612 32.9077 51.7289 32.9643C51.1035 32.6786 53.2201 31.4756 53.767 31.2446C52.7235 31.1183 48.6581 36.1705 46.0378 37.1066C43.2162 38.9132 39.3297 39.0688 38.0758 35.7375C37.8793 38.2183 37.3785 42.4716 34.1524 41.4839C31.9478 42.9199 29.8081 43.8063 27.7681 45.0403C24.8827 46.8589 21.7974 49.045 19.1916 51.6848C22.0005 52.0264 19.3843 54.277 19.7304 54.5772C19.1027 55.0615 19.5504 53.8634 18.9996 53.7954C18.3204 54.9152 18.0101 53.5977 17.5005 53.5996C15.6912 54.5275 13.1712 55.7243 13.1159 57.235C10.7978 58.8156 13.5116 55.5915 11.615 57.1174C9.03658 58.3529 5.97891 59.8037 4.30737 61.9245C3.18814 62.816 1.57891 64.9802 0.654297 66.3025C0.281989 67.8675 2.11427 67.0842 2.46235 68.2963C3.23158 69.4766 0.625458 70.2521 1.7693 70.7587C3.98353 70.9498 5.09931 71.7858 7.03893 71.9703C10.6693 73.9191 10.7673 72.2638 13.962 70.0938C24.3893 64.6984 31.6174 75.6897 37.9231 82.4844C38.987 83.4658 40.5408 83.2586 41.6158 84.3601C43.5066 87.6335 44.2293 85.9083 45.8078 84.047C47.4397 84.3703 49.1524 83.7746 49.5004 82.4449C53.9901 82.3202 57.2789 87.9282 59.6162 91.356C61.7793 95.2626 61.5874 99.3401 62.2693 103.512C62.3054 106.172 62.3251 111.04 59.0004 110.274C59.177 111.854 58.4047 113.074 58.0766 114.339C58.4858 117.686 59.1501 120.98 58.462 124.424C57.5608 126.487 59.5743 124.699 59.577 126.652C59.7605 127.087 59.8666 126.602 60.0774 126.613C60.042 126.817 60.2293 127.294 59.8078 127.238C60.0489 127.539 62.1074 127.904 61.5001 128.176C62.0355 128.922 59.6524 127.095 59.8078 128.333C60.5593 128.282 60.2504 128.83 60.0385 129.153C59.677 129.612 61.1508 131.121 59.962 131.069C59.3031 129.546 57.5527 129.681 57.8458 130.561C57.5089 131.015 58.2074 130.633 58.0001 131.186C57.7689 131.574 58.3978 132.706 57.8462 132.788C57.1959 133.028 57.5139 132.35 57.2693 131.889C55.6208 131.821 57.4543 130.372 55.3081 131.225C54.6962 130.266 54.9435 131.712 54.4239 131.264C53.5393 131.663 53.5477 128.529 53.1543 131.186C51.7627 130.142 53.4785 129.062 52.0008 129.075C52.1739 130.584 53.0616 132.105 51.5393 129.896C51.4708 130.634 51.295 132.729 51.2312 130.834C50.5324 130.986 50.9658 131.279 50.7316 129.974C46.7843 129.763 55.1754 134.663 55.1927 136.462C55.5523 137.343 56.1197 135.836 56.8851 136.58C57.8074 136.457 58.5654 137.972 59.6543 137.517C61.0797 137.327 61.8816 137.097 61.0773 135.758C60.1323 136.421 60.3904 135.438 61.0778 135.251C60.9831 134.924 61.4766 134.566 61.5781 135.25C61.7339 135.505 62.8151 135.128 62.6928 135.564C61.6693 135.782 62.7066 136.077 61.6158 136.189C61.3331 136.429 62.0912 136.871 61.5001 136.972ZM61.7704 129.27C61.9743 129.532 62.3812 130.156 61.7704 129.817C61.6058 129.582 61.6039 128.562 61.7704 129.27Z" fill="#DBDBDB"/>
</svg>
