<svg width="137" height="149" viewBox="0 0 137 149" fill="none" xmlns="http://www.w3.org/2000/svg">
<path d="M82.6538 148.175C81.3154 146.203 83.4754 145.896 85.5385 144.383C84.0027 142.672 84.1327 140.899 85.6923 140.162C86.0404 142.721 88.7415 141.417 87.5381 139.263C86.9404 138.106 86.0142 139.519 85.6535 138.56C86.1584 137.794 85.2004 135.681 84.6154 136.019C83.5211 135.85 84.1308 135.078 84.6535 134.534C85.7627 133.448 80.825 132.655 81.4219 131.837C85.3465 134.284 86.775 128.988 83.1146 127.068C82.6277 124.099 84.7331 126.052 86.9231 125.27C86.2919 126.704 88.9169 125.744 89.5765 126.326C90.4784 127.608 93.1692 126.281 93.6538 124.997C94.8473 124.179 89.8861 115.427 94.0388 119.251C94.2584 120.311 98.8938 120.811 98.1158 119.604C97.1108 118.986 97.7923 118.309 96.6923 117.923C95.4015 118.265 96.61 117.141 95.8077 117.415C95.3184 116.958 96.3408 116.188 97.1538 116.516C97.6869 115.855 98.03 114.303 96.9231 113.78C97.24 111.975 97.7192 114.393 98.4227 114.757C99.1034 115.259 101.77 116.157 101.654 114.758C102.128 114.116 105.287 113.934 107.192 112.724C107.402 113.46 108.428 111.396 108.962 112.529C109.639 113.043 108.949 111.292 109 111.044C110.606 111.346 115.403 108.914 114.308 111.747C114.725 112.948 116.393 113.558 114.999 114.365C118.005 115.674 119.953 112.854 121.153 118.823C121.684 119.925 122.933 118.088 121.807 117.728C120.613 116.902 122.382 115.816 122.807 114.991C124.926 112.466 123.367 109.445 124.768 106.665C125.068 104.558 124.772 100.335 126.961 100.803C128.934 101.131 131.752 102.837 132.845 100.021C133.473 98.5137 131.436 97.8634 130.461 97.7938C130.375 95.9763 131.273 93.1051 130.769 91.422C129.411 90.2104 128.581 89.7191 130.615 89.2336C131.823 88.7161 136.127 88.9573 135.385 87.5142C136.921 83.66 137.008 81.4177 131.845 78.6805C128.28 80.204 127.823 78.0715 127.769 75.5141C129.763 74.623 136.34 74.5683 134.115 71.0193C135.18 69.5219 130.58 65.3663 128.615 65.6255C127.168 65.7087 128.64 64.0913 127.768 63.7884C126.741 63.0442 128.145 62.0108 126.769 61.3647C126.578 60.7835 125.844 60.1898 125.268 60.4271C124.952 60.2125 125.916 58.7276 124.883 59.9971C124.829 58.839 124.078 58.8972 123.807 57.9252C122.028 58.191 121.958 56.2003 121.192 55.5023C121.622 54.8913 122.397 54.2007 121.46 53.5871C123.025 52.5532 121.745 51.2517 120.422 52.9226C119.374 52.4067 116.958 53.3846 117.807 51.1243C116.81 49.7223 115.575 51.3166 115.692 52.4923C113.137 52.6994 114.94 52.9527 114.576 51.1633C113.894 51.5612 113.836 50.0021 113.345 49.4831C112.035 49.2032 111.353 49.0691 111.115 47.2153C111.647 46.1913 112.066 42.8885 110.153 43.8547C111.127 41.5006 108.678 43.1011 109.729 41.1969C108.328 41.2805 106.268 42.6274 106.461 40.0634C111.625 39.7077 105.281 38.9065 108.192 36.5453C110.774 34.5797 106.903 32.566 106.73 30.7614C105.433 31.8507 105.458 31.8304 105.345 30.1356C105.425 30.5824 108.156 29.2992 107.345 30.566C108.182 31.3121 108.3 29.3281 108.538 28.9631C108.87 29.3226 110.003 29.3985 109.845 28.6117C111.605 25.3656 112.115 22.5616 113.691 19.0353C112.827 17.2678 113.138 18.1089 111.883 18.0593C113.232 16.0593 109.915 14.8277 111.498 13.6805C112.29 13.4042 111.418 12.2864 111.306 11.453C111.464 9.54761 113.55 8.18391 115.076 6.60641C110.718 6.04983 108.996 4.06623 105.191 2.50124C104.673 4.08304 104.419 4.28941 103.269 3.47956C102.88 3.4006 102.278 4.98827 101.462 4.2214C95.8361 5.25639 91.4061 -1.60159 89.2311 0.664213C86.5688 -1.20799 84.7431 2.17331 81.9615 1.36932C80.0973 2.68377 75.1327 4.65369 76.2688 6.56654C75.7161 7.22983 75.3642 6.69475 74.9619 6.44968C74.4231 6.20618 72.7815 7.44676 72.7311 6.41098C72.1023 4.38517 71.4319 4.91478 69.7308 5.62966C67.6658 7.79931 67.3692 3.0801 65.6538 5.78522C63.1446 9.65119 59.3115 5.54172 55.7696 5.90326C47.2238 9.50071 41.2927 4.08929 38.1161 15.088C41.7523 21.3449 34.4077 23.7697 29.8846 26.2661C27.9023 27.0549 27.7019 29.8136 26.1927 31.2296C24.2223 31.8656 23.1246 33.9582 21.6165 34.6313C19.3231 32.3272 12.7392 34.7509 16.9235 30.6441C17.6077 30.1368 16.7977 29.9562 16.4619 29.7452C14.5858 28.9122 12.7627 28.9404 10.8081 29.3539C9.99384 28.9806 11.2392 27.4164 10.2696 26.8915C7.3 28.5968 4.22115 27.9726 2.03884 30.2525C0.846153 30.8388 0.0623071 31.4935 1.69346 32.2076C1.47846 33.9129 2.8523 33.3039 3.61615 34.3569C3.80538 36.992 0.658842 36.2889 3.92461 39.6725C5.94807 43.1394 2.06076 41.0558 1.19269 41.5092C1.54538 41.8375 1.87999 42.6606 2.61538 43.1512C3.60807 42.8436 3.45807 42.4625 4.15423 43.4255C4.48576 44.568 3.95922 44.5719 3.0773 45.4967C2.49576 45.2669 3.16576 47.3685 4 46.6685C4.94961 47.6851 4.92615 45.6405 4.96192 47.6069C4.00038 47.6836 5.18615 49.4709 5.80768 48.819C6.02845 49.0863 4.78807 49.6726 5.80807 49.6007C5.86961 49.9579 5.22115 49.9927 5.88538 50.3433C4.87307 50.8526 5.03 50.9628 4.50038 51.2814C5.44423 52.1256 4.20923 52.1784 4.96192 53.2357C5.16154 53.8134 4.15269 53.41 3.84615 53.6656C4.14692 54.0737 4.13961 54.4231 3.6923 54.0178C3.14692 55.265 3.52308 55.6418 2.23077 57.0661C2.83461 57.3186 2.34538 57.2627 2.26922 57.8091C2.20807 58.0331 3.16192 58.6897 2.46115 58.5513C2.6123 59.2955 3.37923 59.5605 2.84576 60.1538C2.96076 61.2725 4.74961 59.5511 4.88461 60.5838C6.59538 61.3381 7.25538 62.9078 7.1923 65.0396C8.84076 65.8338 7.03884 67.2432 8.3073 67.2291C8.77346 67.4648 9.10346 67.5801 9.1923 68.1668C10.0038 68.3775 10.2442 68.5221 10.4227 69.3398C12.075 69.2397 11.4519 70.793 12.4611 71.1381C12.2958 72.4037 13.7092 71.2175 14.0765 72.3103C15.1023 71.9073 15.4188 74.9974 14.2308 74.7324C13.3769 75.1792 15.0369 76.5929 14.3077 77.1174C14.88 77.6044 15.1196 77.8882 15.3073 79.1894C15.9969 78.1501 16.3215 80.204 17 79.1108C17.3146 79.9523 17.4092 80.8146 17.4231 81.8859C17.6269 81.8343 17.3215 82.9639 18.115 82.6285C18.7315 82.6739 17.2877 83.2215 17.5381 83.5666C18.0838 84.5555 19.1035 84.8513 17.4227 85.0128C19.7362 86.3682 20.1469 87.275 20.6527 90.4074C21.7508 90.7466 21.9108 92.9593 23.4227 93.3775C24.475 94.3679 24.6311 95.75 26.0381 95.5663C27.3988 96.1522 28.0504 97.4881 29.5769 97.6769C31.0608 97.5409 28.1196 100.53 27.2692 100.373C24.1788 100.917 24.5027 99.7465 21.8846 100.1C20.2354 101.382 19.3996 103.847 20.615 105.807C21.1438 106.485 21.6354 106.055 22.9235 106.08C23.5188 106.343 23.6723 107.784 23 106.823C22.5896 108.008 23.4204 107.845 23.115 109.95C24.2488 111.737 27.1677 108.869 25.6919 113.272C25.5073 114.137 25.4496 114.289 26.5773 114.562C27.1081 115.661 26.6873 116.345 26.615 117.18C27.6335 118.791 28.1769 117.428 28.7308 116.984C29.0231 116.555 29.6546 117.329 29.7692 117.219C30.3838 117.151 29.9138 116.821 30.5769 117.337C31.6246 117.637 31.3354 119.59 31.7308 119.369C32.4042 119.414 32.2281 119.651 32.9231 119.76C33.4646 120.082 32.7242 120.73 33.5 120.855C33.6385 122.227 34.1223 121.258 34.6154 122.418C42.7692 125.069 37.1388 120.411 41.8077 121.245C42.7654 119.175 45.2646 122.489 43.8081 123.16C43.9854 124.523 45.9261 126.389 47.5 126.17C48.45 125.035 50.4192 123.984 51.3465 125.897C52.6811 127.058 51.6381 129.811 52.7304 130.236C53.1623 131.452 54.5015 129.32 54.5765 132.112C55.3084 133.049 52.3008 133.352 54.6915 133.518C54.7935 134.652 54.1069 136.771 54.9608 137.388C55.7958 137.556 56.6969 137.883 57.4996 137.466C57.6638 137.954 57.84 138.573 58.8461 138.56C61.0354 139.756 61.5342 140.965 60.9984 143.368C63.7465 144.196 65.9473 142.707 68.6534 142.625C69.5527 141.106 70.2781 141.979 70.4608 143.094C74.1169 143.393 72.7919 142.19 73.1138 139.889C73.9269 138.817 76.2219 142.632 77.4231 143.445C82.3969 142.13 76.4988 147.825 82.6538 148.175ZM54.0769 130.235C53.9442 129.736 54.0511 129.595 54.5 129.922C54.6531 130.179 54.1965 130.104 54.0769 130.235Z" fill="#DBDBDB"/>
</svg>
