<svg width="144" height="172" viewBox="0 0 144 172" fill="none" xmlns="http://www.w3.org/2000/svg">
<path d="M14.3846 171.603C15.1154 168.628 15.2958 167.628 19.0008 167.383C19.0481 163.936 24.4185 163.087 20.0004 161.442C19.5989 153.969 24.5908 161.655 27.23 156.985C29.8892 160.229 31.7562 156.152 34.5389 157.063C35.3835 154.902 36.6469 157.218 38.385 156.165C42.8269 157.237 43.4304 151.482 46.4231 149.832C48.2181 149.444 48.2046 151.174 49.9231 151.201C51.005 153.764 52.2092 150.166 53.6154 149.793C60.3554 153.932 57.3769 150.521 61.9608 148.933C61.6112 150.246 61.8438 152.05 60.4235 152.335C59.4346 152.038 60.6623 153.463 59.9612 154.132C59.1935 155.737 61.8873 155.635 62.3842 157.103C63.4827 156.759 64.3158 156.553 65.4231 156.126C66.8096 155.089 66.2677 153.624 67.5773 152.491C67.6369 151.568 69.4069 151.413 69.5 150.419C69.8823 149.941 71.0973 150.542 70.7692 149.481C72.1831 148.764 73.9654 150.182 74.9231 148.739C74.2269 150.735 75.8127 148.628 77.1535 149.286C77.0873 148.92 76.7885 147.153 77.9235 147.449C77.3208 147.475 77.9681 146.059 78.4996 146.433C78.9885 145.971 77.8592 145.762 78.5385 145.3C78.7115 144.963 80.1719 145.94 79.4996 144.478C80.5946 144.78 80.7811 144.289 79.9996 143.462C81.8565 143.11 82.1135 141.779 82.6919 140.14C86.1646 140.476 84.6604 139.636 86.3065 138.184C87.6119 138.875 87.2527 136.382 87.6154 135.645C89.1527 136.342 88.8223 135.011 88.8842 133.847C88.9385 133.033 90.2062 134.062 90.1535 132.87C89.8081 132.576 89.3111 132.289 89.9227 132.049C89.585 130.11 91.1038 130.167 90.3458 132.049C91.6596 131.714 92.4212 132.107 92.8846 130.877C90.7154 132.128 91.4592 129.582 92.1531 129.586C92.4554 128.344 92.5996 128.402 94 128.493C95.0935 127.551 94.4758 125.847 96.3846 127.868C99.2473 123.574 98.7462 125.211 103.423 126.734C105.877 122.246 105.312 124.706 108.538 123.96C106.648 122.498 110.531 120.182 111.153 120.949C110.793 124.326 113.679 123.426 116.923 122.903C115.638 120.557 117.205 119.456 114.653 118.018C115.219 117.232 116.069 116.919 115.884 115.281C114.604 113.931 116.709 113.557 117.654 113.64C117.943 111.695 118.932 111.046 119.231 109.302C119.153 107.998 118.511 107.47 119.116 105.901C118.588 105.543 117.64 105.422 117.346 104.572C117.992 103.522 116.893 103.017 117.153 102.266C117.104 101.468 117.772 100.239 117.231 99.6083C117.461 98.1242 117.842 95.8737 118.114 94.6835C118.584 93.507 116.51 93.0318 116.385 92.4165C115.45 90.9665 117.478 91.1099 117.346 89.7978C116.272 89.2084 116.482 87.0434 115.423 85.7724C114.78 84.2875 118.045 84.2054 116.346 82.5669C124.634 81.4972 119.55 79.598 123.961 76.5864C124.514 71.4248 126.223 67.2477 130.116 63.8457C130.087 62.8369 128.389 63.2109 128.846 62.2819C127.752 54.3189 130.291 60.145 132.77 54.3869C133.503 53.178 132.538 52.1743 131.268 51.9245C130.712 50.0891 131.841 47.6212 131.808 45.8662C132.074 43.9264 133.615 45.3097 133.345 46.8434C134.715 47.7177 136.498 50.4702 137.73 49.1889C136.842 47.1354 135.465 45.8674 135.847 42.739C140.26 42.3821 140.557 39.994 141.576 37.0329C145.911 34.2699 143.538 29.9513 139.345 31.0133C137.969 32.3039 135.643 29.1493 134.038 28.6685C133.522 30.3402 133.302 29.3361 132.538 28.6294C131.318 30.323 133.283 32.0983 131.268 32.9285C130.229 32.8656 130.407 31.614 130.961 31.0922C129.552 30.8261 126.677 32.1972 125 31.0528C120.753 30.6521 115.214 33.9775 119.347 27.1446C109.013 23.4803 124.484 13.8132 104.307 16.8662C103.122 19.4893 99.0346 20.1838 96.0381 17.1383C93.6454 17.6495 93.4719 18.5223 92.1927 16.9424C90.1212 16.2385 91.8081 15.5287 90.77 14.2463C91.4204 12.8095 88.9862 12.9701 88.2312 12.8791C87.0862 10.9021 83.9419 12.5547 82.3081 11.5099C79.4554 16.8701 70.6462 13.37 71.4612 7.05453C68.3335 10.7892 64.0669 6.1239 60.8081 8.42292C59.8815 7.98438 58.1373 8.58317 58.4616 7.368C57.9419 7.21595 56.9315 7.07798 56.5392 5.76431C55.8008 5.32577 55.3581 4.7215 55.0004 4.00584C53.9327 3.81511 52.3177 4.4096 52.1542 2.91144C49.2685 2.18758 48.0062 2.6523 46.5 3.73263C44.3689 3.26282 42.105 3.15338 40.0769 2.52137C41.0973 0.458816 38.3181 1.15415 37.1539 0.64447C37.1512 1.05331 38.5773 3.43363 37.5389 3.18504C35.0962 3.91712 28.8473 2.61986 27.9996 3.53486C28.425 4.89426 31.3204 4.82391 32.8465 5.06116C35.8354 6.16337 27.9612 9.2101 30.8473 11.9008C28.7608 14.4132 32.0192 14.0094 30.885 17.0609C31.9304 17.1758 32.2981 16.3452 32.5769 18.0384C31.4116 21.7445 30.3519 24.0357 29.115 27.3009C28.7223 28.2359 28.4612 28.3488 27.5381 27.9654C27.3846 28.5325 27.1369 30.1776 26.3462 29.5679C26.4254 28.3832 23.5181 29.0184 24.4619 30.6619C24.6696 30.649 25.2858 30.4895 24.9996 30.1933C25.965 29.503 29.9327 34.7061 26.7689 35.9772C24.9415 38.4028 30.4727 38.5275 25.4619 39.0653C25.2962 41.7091 27.3192 40.2176 28.7312 40.1992C27.605 42.0999 30.2139 40.4795 29.1535 42.8566C31.9292 42.012 29.4515 46.7554 30.6927 48.2114C32.2992 47.7318 33.2689 49.9007 33.6539 50.8696C33.4819 51.5778 32.7685 52.0457 34.2312 51.2999C35.2835 51.8808 34.5858 50.4061 34.9619 49.697C37.9685 48.99 35.5989 51.5923 38.0385 51.9644C39.2989 51.9558 40.73 50.2923 41.4612 51.8464C40.2339 52.3123 40.82 52.553 40.8085 53.4106C40.0173 54.6813 40.7466 56.6785 42.6539 56.9674C43.5308 57.0706 42.7342 58.3346 43.8462 58.1009C43.9292 59.1648 43.6735 58.8294 44.4231 58.4917C44.6262 58.8161 43.8166 59.563 44.3846 59.3516C46.195 59.7577 46.5262 61.2449 46.3462 62.4785C47.75 63.1679 46.0254 65.1496 49.6931 64.9401C54.0689 69.0945 55.8346 72.6251 48.8458 74.2042C45.9846 73.0789 47.2966 75.9243 46.9623 77.0965C46.9912 78.357 49.8216 78.3422 50.8462 77.6828C54.5019 79.562 57.1362 83.0454 54.23 85.8904C55.3296 88.1765 53.0604 87.0411 51.7308 87.8056C45.6689 88.5142 51.5581 90.3004 49.4608 96.7961C52.3408 96.8614 52.3296 99.0236 50.9235 100.548C48.9854 100.565 47.7846 100.404 46.5773 99.9226C44.82 99.5528 44.59 99.8964 44.2704 101.877C43.4054 104.924 43.2589 108.255 43.0396 111.218C43.1673 113.225 39.5981 115.076 40.8077 116.729C41.7796 117.232 41.1119 117.64 40.6546 118.293C39.3931 117.246 39.4758 113.459 37.1931 113.446C36.2227 114.203 32.4296 113.922 34.8085 112.743C33.6804 111.778 33.4062 110.936 33.3473 109.616C32.7027 108.816 29.4273 110.236 28.0008 110.045C28.7242 112.378 27.7112 110.6 26.6546 111.687C24.9415 112.263 21.9396 113.503 20.5396 113.446C21.2489 115.394 18.5815 114.05 17.6935 114.033C16.8908 113.725 16.9527 112.571 16.2319 112.079C15.3339 112.743 16.9419 113.066 16.6546 114.306C16.5346 116.172 14.6254 114.973 14.6166 116.417C15.8992 116.066 14.3085 116.915 15.4239 117.043C16.6627 116.918 16.3719 118.077 17.2319 118.918C16.3954 119.844 13.0342 119.136 12.5012 117.512C8.70425 116.981 15.6604 123.86 11.385 125.289C10.0508 126.141 9.08425 125.865 8.03963 125.133C7.37579 125.012 5.2927 125.455 5.92385 124.274C4.65078 124.268 3.19424 125.032 2.15501 124.039C1.64116 126.103 3.12539 126.632 4.07847 127.948C4.77847 131.042 3.39654 131.987 0.770389 131.113C-1.3173 130.737 5.09732 132.892 3.65462 133.537C2.87078 134.117 2.68886 135.394 4.11694 134.866C4.18078 136.015 5.09617 136.466 4.76963 137.798C5.98617 137.582 7.51078 138.71 6.61654 139.987C6.38154 141.302 4.68231 140.42 4.69385 139.166C3.14231 139.867 3.00385 141.717 4.53962 143.387C3.25154 144.324 1.78039 144.854 1.50039 145.615C0.38539 146.493 2.33617 148.365 4.15463 146.904C7.77693 147.005 6.6927 150.221 5.50039 151.595C2.83424 155.572 6.95693 154.211 6.96386 157.223C5.7077 159.055 6.83117 162.721 8.92463 164.767C10.7885 167.044 11.9365 170.047 14.3846 171.603Z" fill="#DBDBDB"/>
</svg>
