<svg width="140" height="184" viewBox="0 0 140 184" fill="none" xmlns="http://www.w3.org/2000/svg">
<path d="M34.8461 170.742C35.2607 168.682 38.2434 169.356 39.7688 167.967C42.8919 167.139 43.6888 166.51 46.9231 167.656C49.2127 167.998 51.7511 166.702 53.2304 166.324C56.085 165.708 56.355 166.429 58.115 165.348C57.9735 161.934 58.8758 165.592 60.1919 165.348C63.6085 164.907 67.3854 168.715 67.615 163.237C68.2539 162.993 69.5938 163.634 70.3462 163.199C70.4042 165.114 72.0669 164.094 73.2308 163.55C74.5723 164.795 77.5 170.686 77.5777 164.254C79.6177 163.965 79.1239 163.548 81.1154 164.449C82.3592 165.787 83.4285 163.141 84.2696 165.427C85.8262 163.701 85.7488 163.51 85.6538 161.323C87.8988 161.715 88.3519 159.915 90.7312 159.994C91.0115 158.524 91.5346 156.614 93.0388 157.883C93.5496 158.347 94.4877 159.269 93.9242 159.682C94.3865 160.175 96.02 160.36 96.0769 161.127C97.5208 161.685 95.1535 163.868 97.0769 163.355C97.5704 164.808 97.065 165.555 96.1531 166.599C97.4708 166.754 97.3573 168.025 97.3073 169.023C97.7877 169.172 99.6185 170.279 99.4612 170.976C98.9265 171.696 98.5596 173.68 97.2696 173.87C96.4577 175.69 95.7565 175.274 97.5777 176.644C101.887 181.012 95.6254 181.899 100.692 183.055C103.883 182.503 105.861 183.127 108.923 183.21C110.389 183.157 111.255 183.248 112.346 181.921C115.18 185.807 112.928 178.238 117.038 179.851C118.17 182.014 117.863 179.145 119.653 180.476C120.704 179.894 120.65 176.261 122.423 177.662C123.006 176.426 125.542 178.124 126.692 178.051C127.876 176.188 125.543 177.128 125.845 175.55C125.645 173.68 126.993 172.255 124.577 172.58C121.642 172.722 124.009 170.003 124.346 168.398C124.507 167.392 122.148 164.307 123.73 164.841C124.718 162.993 124.961 165.18 125.769 164.568C126.323 164.236 125.889 161.467 127.231 162.496C129.42 164.454 128.292 161.901 130.192 161.948C130.922 161.466 131.892 161.648 132.076 160.345C133.102 160.979 133.219 160.017 133.807 159.603C136.58 158.394 135.117 159.16 133.5 158.119C133.39 155.789 138.709 154.986 138.693 152.959C140.114 152.64 137.738 151.606 138.962 151.005C138.932 150.313 137.974 151.211 137.923 150.34C138.741 149.559 137.012 148.905 136.808 148.151C137.247 147.197 136.883 147.836 136.308 146.744C135.429 144.756 138.721 143.007 136.154 140.843C132.937 138.183 136.574 138.537 134.885 137.794C136.6 134.713 137.9 135.35 134.422 132.752C134.192 131.975 135.547 131.032 136 130.133C136.413 129.172 136.328 128.26 137.423 128.062C136.012 126.554 136.062 125.382 135.462 124.27C138.112 124.197 134.603 122.234 136.847 120.714C136.766 119.627 133.382 120.589 132.616 118.603C133.244 118.145 134.843 116.151 133.615 115.828C132.467 116.993 133.016 115.632 131.653 115.593C130.932 110.122 127.602 111.417 123.961 113.289C122.038 110.572 126.25 112.88 126.346 109.887C126.712 108.572 124.785 109.041 123.808 108.949C123.415 108.988 123.955 106.507 124.423 107.621C126.947 109.235 127.087 105.987 126.615 104.533C126.17 104.246 123.88 103.664 124.462 102.892C124.958 102.34 123.638 101.366 124.5 101.211C127.099 102.135 126.782 98.083 126 96.364C124.692 95.0832 122.262 93.7597 124.923 93.5498C124.112 92.7404 125.962 92.2557 125.269 91.166C125.784 90.1091 128.488 91.5381 127.962 89.2113C129.321 87.9074 130.929 87.6288 131.654 85.0682C131.483 84.0047 130.023 82.6809 130.347 81.3942C128.816 79.8128 126.911 82.1458 125.077 80.8861C125.66 80.9349 127.773 80.8384 126.77 80.0649C126.953 79.7753 128.05 79.1288 127.231 79.1264C122.812 75.3851 130.24 78.8528 128.731 76.0785C124.688 76.872 128.05 73.6552 127.155 71.6611C124.597 70.3169 125.268 67.0114 122.654 65.7982C120.862 65.6774 121.328 61.5363 123.346 62.0464C125.371 63.7442 124.232 59.9893 124.654 59.3104C125.489 57.0872 128.542 55.4116 125.038 53.8388C123.127 51.6351 121.691 48.7889 118.846 47.3896C116.183 45.4345 117.948 49.7789 116.693 49.7738C115.319 46.0193 114.581 41.4459 113.846 37.5396C115.56 37.0733 117.093 36.0567 117.423 37.2269C119.941 36.5371 118.922 34.1876 118.308 32.7321C120.587 32.3311 121.012 30.6957 120.615 27.5325C118.39 28.3318 119.195 26.8469 117.577 26.9478C115.653 28.5487 117.035 23.3734 115.692 21.749C115.945 20.8453 114.788 20.2102 114.039 20.6155C112.806 18.3055 112.36 15.9373 113.27 13.4237C113.576 9.44129 111.188 11.7704 110.576 9.94589C110.158 8.92379 110.492 7.85051 109 7.24819C108.709 6.4059 109.616 5.6449 107.73 5.56829C107.573 4.51688 109.262 3.7082 108.154 3.18328C107.26 4.33709 105.973 2.14282 105.192 3.26145C104.072 5.29313 101.382 6.43678 100.884 8.77215C97.3888 12.8707 98.3984 7.75161 95.4231 9.20208C93.2358 8.44382 92.5465 10.162 91.0769 11.1181C88.9015 11.428 88.1357 13.6766 87.3077 15.8474C85.315 18.6698 88.3857 21.6067 85.7684 24.4068C85.5084 23.348 84.5769 23.269 84.7304 21.9839C84.4719 21.3667 85.3785 19.4093 84.2308 20.186C80.1154 26.8297 81.2054 9.63906 79.0388 11.4706C82.8631 9.78329 73.7315 11.0016 72.5385 8.81123C69.0854 7.97675 67.5281 12.5537 64.4612 12.8378C63.47 12.9539 64.3 11.0348 63.3834 9.94511C61.4961 8.87612 61.0827 5.1614 58.6535 6.03731C58.5188 4.41291 60.5481 -1.20957 57.4988 1.85436C54.8288 2.75881 53.8892 5.06291 52.6154 7.28845C50.9065 6.81473 51.8296 9.25056 50.5765 9.51595C49.4019 10.4974 48.4535 9.68519 47.1154 10.9238C41.0938 11.4167 41.4923 13.3565 43.0011 8.30468C40.5696 11.5281 40.7923 9.28378 40.2311 6.74047C38.3669 5.66601 34.1142 3.97242 35.8458 7.63983C34.9027 9.1118 35.5842 11.7661 36.3458 12.3692C37.34 13.7009 34.6715 13.8513 33.8462 13.9326C33.0665 15.4343 32.3554 18.1562 31.3854 19.2096C29.6546 18.3782 27.9788 16.6733 26.4611 15.301C26.4592 15.9678 27.2754 17.5856 26.1542 16.825C21.3365 19.3827 20.3565 19.9245 23.7696 24.9161C23.13 26.7656 21.1977 24.1743 20.0773 23.5481C18.8223 23.2135 19.5373 20.9446 19.0781 21.0462C16.8269 20.4271 18.2692 23.7373 17.1538 24.9939C16.6281 27.8014 18.6146 27.955 19.0785 29.8409C16.155 36.5891 13.5511 29.9363 15.0015 39.1042C18.5358 40.1541 11.0154 42.7771 12.3469 44.9663C10.4746 47.3603 10.5146 49.6664 9.96307 52.5888C8.81577 53.4803 7.70308 53.9372 7.61615 56.3801C8.54077 57.734 4.00846 58.1272 2.34615 58.3735C4.0073 60.4646 -0.0730867 60.513 1.92345 62.7507C2.71614 64.2723 2.79769 65.6426 3.34654 66.542C2.56654 67.2307 1.66538 67.3327 2.38538 68.6526C4.68654 69.2389 4.05844 71.9878 3.53883 74.0855C2.60998 75.3484 3.91345 76.4444 3.15384 77.7592C2.81884 78.836 3.99 79.3484 3.34692 80.5734C3.63384 81.2124 4.41499 81.7733 5.0773 81.7459C4.86345 83.2824 4.73539 83.9117 5.30885 85.1073C5.18231 86.3749 4.51614 87.0178 4.00114 87.9997C4.6396 90.2244 1.92883 89.0925 1.3469 90.618C2.67806 91.3732 1.34501 93.0257 1.34732 93.5498C-0.366531 93.7335 1.64577 94.9921 2.42423 95.3869C2.38731 96.3824 2.02614 97.8157 2.92499 98.9042C0.388832 98.4852 0.766144 101.733 2.65537 102.344C2.67807 103.069 4.40037 103.174 4.69383 103.907C4.41152 104.755 4.84653 106.06 5.84807 105.275C7.55653 104.818 5.80614 107.5 6.11768 108.637C2.83576 113.005 4.00307 114.139 7.81076 116.453C6.87076 121.589 9.2827 117.345 13.04 121.418C13.3146 122.811 12.6135 122.476 11.8862 123.137C13.0531 124.301 13.115 124.302 14.5788 124.192C14.6554 124.968 14.2135 125.746 15.4638 125.56C16.785 125.83 17.0196 127.842 18.7327 128.531C19.5727 128.394 19.5488 126.12 20.9631 126.734C22.9727 123.711 23.3827 127.435 22.6165 129.352C23.7592 129.036 23.4561 130.442 23.6558 131.15C24.51 130.488 24.1608 130.985 24.2327 131.697C23.9338 136.551 26.5823 127.86 26.4635 132.987C27.8792 134.838 26.3635 134.867 24.8092 135.333C24.7012 136.416 24.0307 137.405 25.1557 138.029C23.7404 138.154 24.9281 139.454 23.8477 140.53C28.2723 139.872 27.9908 147.569 26.0785 145.066C24.8523 144.266 24.3231 146.636 23.6554 147.449C22.7211 146.935 21.2831 145.539 20.6942 146.941C19.0369 147.43 21.4723 150.302 21.3469 151.748C21.3708 153.017 19.4965 154.042 20.2719 156.517C22.2973 154.778 21.8858 157.91 24.3865 157.22C23.4085 158.392 23.7854 160.083 24.5015 160.816C23.8785 162.281 25.4061 162.971 25.4631 164.412C26.0723 164.669 26.0608 165.378 26.4631 165.506C26.5819 163.508 31.8377 164.685 29.0404 166.639C27.7296 168.402 30.97 168.116 31.5404 169.297C31.8811 170.63 33.7331 172.286 34.8461 170.742Z" fill="#DBDBDB"/>
</svg>
