<svg width="158" height="204" viewBox="0 0 158 204" fill="none" xmlns="http://www.w3.org/2000/svg">
<path d="M25.3077 199.815C26.1273 200.546 26.3258 199.549 25.7692 200.635C23.3165 204.649 30.4773 203.568 33.2692 203.41C32.9719 201.865 33.6523 202.008 34.6542 200.87C34.6419 200.14 35.9784 197.891 37.115 197.978C38.2208 196.361 35.965 193.555 37.0765 192.74C37.6296 193.862 38.7954 191.919 39.808 192.428C40.3773 192.751 39.8054 190.793 40.7311 191.333C41.2196 190.604 42.98 191.708 43.885 191.841C44.5346 192.658 43.9404 193.55 44.3846 194.343C44.5538 195.43 45.7323 197.041 46.2692 195.398C46.7769 194.184 44.4011 193.017 46.5388 192.857C47.2523 189.926 47.8654 191.918 50.5392 191.372C49.5111 194.881 50.4234 197.111 53.8857 196.218C56.3165 196.982 59.9331 196.955 60.0769 199.15C60.8838 195.95 63.7723 184.488 66.7307 190.199C67.9673 192.035 69.4996 191.583 70.0769 189.886C70.7838 189.3 71.9888 189.268 72.6154 187.893C73.84 188.509 75.3742 189.159 76.5004 189.104C78.4019 191.621 80.6958 190.428 83.0392 189.261C84.7361 188.877 86.7285 190.146 87.8465 188.402C89.6458 189.171 89.0869 187.306 90 187.032C90.9908 184.575 89.0565 182.601 93.7315 183.36C94.4596 183.107 95.3461 177.103 95.8477 180.233C96.9385 180.937 96.2 179.633 96.2308 178.982C97.4904 178.472 98.9215 177.488 99.3461 176.559C99.5019 176.505 98.5977 175.197 99.5392 174.839C99.4015 171.701 100.042 171.749 102.308 172.064C100.793 168.791 101.798 166.094 105.079 161.784C104.13 159.898 105.773 161.151 105.578 160.573C106.113 159.814 104.075 159.344 105.348 157.876C105.941 156.7 106.112 156.519 105.385 155.101C105.339 153.779 106.24 152.766 104.384 151.974C104.776 150.59 106.794 148.599 105.539 147.284C105.028 146.482 107.938 144.453 108.154 146.15C109.006 145.408 109.752 143.761 111.039 143.571C111.786 142.272 116.768 143.659 113.654 140.365C113.284 139.79 111.402 139.322 112.578 138.606C113.168 137.765 110.298 136.458 109.77 138.021C110.072 136.261 111.464 136.611 109.769 136.066C111.184 135.162 113.161 135.108 114.885 134.581C123.25 135.333 111.413 140.508 122.039 147.362C121.896 146.075 122.755 144.265 124.039 144.861C125.128 143.8 125.952 140.462 127.385 142.515C126.83 146.913 129.083 146.008 132.808 146.775C133.768 144.446 136.59 143.221 136.001 140.796C137.233 140.148 138.32 138.255 138.347 136.887C140.407 137.029 142.678 136.655 143.115 138.802C146.286 131.786 139.282 133.848 147.77 129.462C146.154 129.025 144.456 128.711 143.462 129.227C142.882 127.003 143.992 124.415 146.423 123.598C148.853 123.033 142.425 119.887 145.962 120.666C148.057 120.796 147.361 115.989 149.423 116.211C151.767 120.418 152.018 114.279 154.385 114.998C154.908 113.858 154.166 113.701 153.346 112.653C154.186 111.216 153.115 109.443 153.576 109.175C156.05 108.402 156.993 105.806 156.193 103.391C158.791 101.779 154.91 100.081 154 101.866C150.196 103.116 156.592 95.3064 152.155 99.208C149.602 100.044 151.298 92.9738 147 93.5425C146.361 92.9852 147.591 92.6678 147.231 92.2902C147.1 92.4731 146.21 92.0576 146.616 91.7821C147.317 91.342 147.762 92.9351 147.655 91.5081C147.658 90.7502 148.83 90.9375 148.885 91.8603C151.463 91.562 151.622 89.641 151.845 88.1467C151.465 85.4107 145.501 89.0066 144.925 84.9409C144.02 82.9135 141.959 79.9383 140.155 79.5084C138.596 79.789 137.969 79.8273 138.269 81.503C135.982 81.0726 137.051 82.2952 136.962 83.8481C135.49 88.1225 129.757 82.3429 128.846 88.5775C128.027 89.6156 125.048 87.3494 124.731 89.0852C123.85 89.0738 123.385 88.393 122.654 87.9904C122.345 86.8241 122.785 89.2646 121.885 88.8894C120.988 88.3273 119.224 90.0557 118.269 90.1792C117.092 92.2703 114.793 84.3394 112.039 90.649C111.742 87.974 110.236 87.9333 108.115 87.0922C108.067 85.7074 107.619 84.4922 105.692 84.629C104.373 84.1135 104.27 83.2583 103.077 82.6743C102.392 79.9258 105.932 82.5325 106.462 80.8377C104.347 76.9463 105.078 78.8623 106.078 74.8967C105.933 73.8625 105.408 72.564 104.616 73.0593C103.973 72.4159 105.163 70.5582 103.231 71.1061C102.872 69.318 99.7907 69.4309 100.924 66.7668C98.1804 65.2058 98.4692 67.7972 96.2311 67.7448C93.3685 67.4383 90.2373 68.7227 88.2311 67.1972C87.2623 66.0957 86.7977 71.943 84.9238 68.759C85.3834 68.3229 85.6527 68.1016 85.6161 66.8446C85.6715 66.2654 87.6327 66.6332 87.0008 65.7506C85.0777 65.8331 86.0619 68.1544 84.1931 67.5099C83.2507 67.5407 81.85 66.367 81.2311 66.6887C80.1492 66.7082 79.8354 67.3094 79.7315 66.0629C80.5961 65.6431 80.2865 64.7727 80.2696 64.109C80.3154 63.5935 79.0838 63.81 79.6542 63.2882C80.5296 62.0609 81.5223 65.4325 81.5004 61.8026C82.3219 61.7338 81.5846 60.7058 81.5777 60.2005C82.5115 59.4363 81.2831 58.7003 81.5385 58.0507C79.8658 56.9317 78.8604 55.2307 76.5388 55.5887C75.9127 52.9469 75.1865 49.9287 74.5773 47.1849C74.5515 46.2207 73.2396 46.0463 72.4619 46.1687C72.5796 44.8886 72.0261 44.2683 70.6538 44.7229C67.5661 46.0905 65.4212 44.5001 67.2308 41.4385C68.2873 39.6754 63.7823 38.8968 67.3081 38.1166C68.4854 36.4195 65.4807 34.6951 66.3861 32.2929C66.7681 30.8197 67.9112 32.2389 68.7696 31.6683C69.4935 31.2469 68.7346 30.5008 68.1154 30.9256C66.9454 30.5395 68.9531 29.644 68.5384 29.1277C68.4196 28.387 66.5065 27.1261 67.5381 26.5867C68.5931 25.6714 70.8704 27.8277 69.9615 25.2184C71.2965 22.8986 65.8046 22.2365 64.4234 22.6008C65.7669 18.3412 63.6127 20.9287 61.3457 19.4739C54.4334 12.7625 60.6869 16.6371 58.4234 9.58446C55.6077 6.73706 52.7965 4.14451 49.345 1.65123C47.9508 1.91272 49.235 4.94342 47.4615 3.1744C45.3131 0.368832 47.3669 5.28542 44.8846 3.40892C43.1804 3.31941 40.3508 1.46948 40.3077 3.60434C39.0842 4.80505 38.2719 3.31355 37.8465 5.3249C36.4269 5.423 36.5611 2.99813 34.615 3.95651C32.4561 3.85371 34.0846 8.69839 32 7.27918C31.1031 7.47618 31.3442 6.16133 30.3077 7.00519C29.2084 7.7615 29.6004 5.97255 28.3077 6.49708C28.5607 8.16565 28.3546 7.81935 27.1154 7.39605C21.7246 5.97176 30.1808 -4.76469 21.5 2.6272C17.6535 1.17243 18.5027 8.63194 15.3461 5.12947C14.6046 4.14841 14.0773 4.62253 14.1923 5.8721C12.8538 7.96631 13.82 9.76425 12.2685 11.8905C9.60884 11.1053 4.95997 9.32923 4.76882 13.846C7.7719 12.3685 7.53729 19.565 4.15421 18.4167C4.8996 19.9406 5.27458 20.9529 4.7692 22.4046C-2.15118 23.4755 0.0657578 23.7593 1.5773 31.9032C2.01076 32.9874 1.81843 35.5252 3.11497 35.8501C2.87536 32.8045 4.03689 32.2788 6.30843 34.4437C17.3769 46.1757 11.1888 38.2765 10.538 47.6145C10.9969 49.4312 9.13151 47.5836 8.34612 48.2011C7.11228 49.009 7.31729 51.8846 9.0769 52.0308C10.7157 53.0595 10.795 54.5225 11.23 55.8623C12.2307 57.1131 14.4604 57.9843 12.9608 59.8483C10.4969 62.5585 17.0396 61.9996 14.3077 63.4055C11.7992 61.912 11.1988 64.4428 13.5769 65.203C13.0627 66.0481 12.7665 65.6611 12.9619 66.6492C12.5384 66.8313 10.4157 66.9083 11.4992 67.0006C12.8161 68.2697 13.6411 66.238 14.9615 66.8438C16.865 66.9365 16.2461 68.7207 17.1154 70.0887C18.5873 71.4517 16.2034 73.8234 15 74.2311C14.0846 74.5774 14.3665 76.1212 13.385 76.6161C12.5604 76.7618 10.4061 76.4922 11.615 77.945C10.6965 79.4392 9.71422 79.5944 9.65307 80.407C11.9877 81.4701 13.5538 84.9608 12 86.8569C11.7773 88.0986 9.23345 86.2495 10.615 88.3418C9.39422 89.9212 12.7473 90.0428 12.6157 90.8042C14.0346 96.234 10.2342 92.2148 9.65345 94.4384C10.6496 95.8583 14.025 93.9029 11.4223 97.7618C10.2477 97.5762 8.1119 98.0358 10.3081 99.208C13.8007 97.0583 17.0242 96.5517 17.653 101.593C18.955 101.718 18.7323 103.031 19.7692 101.631C20.3027 102.521 19.96 104.055 18.6923 104.328C18.68 106.501 22.7696 105.621 22.8469 106.712C21.9165 107.634 21.8504 108.876 22.6938 110.034C20.4819 109.975 22.2296 112.323 23.4231 114.061C22.3261 114.238 22.4342 115.196 22.0004 116.132C21.5969 117.058 20.1227 117.935 20.423 118.75C23.8892 121.286 22.6054 120.778 20.8838 123.793C21.9188 123.982 21.6884 124.355 20.8465 124.535C19.9184 125.602 24.6369 128.129 22.9223 130.203C22.0296 130.981 21.7808 131.299 22.3084 132.509C23.0119 133.952 22.7219 134.414 24.2308 135.831C23.6942 136.44 24.1377 137.049 24.8465 136.651C24.7073 137.554 24.5988 137.797 25.2315 138.762C24.8211 140.137 17.2442 143.453 20.4223 144.469C22.4092 144.754 20.7473 145.499 20.0008 145.328C19.4058 145.611 19.4273 146.637 18.7315 146.579C17.4134 145.979 18.1038 148.041 16.4231 147.673C16.4619 148.243 15.3834 147.87 14.9619 148.104C15.0465 148.501 15.0196 149.813 14.5 149.276C11.9569 146.977 12.6073 149.632 11.3469 150.84C11.0354 149.403 9.02883 150.901 9.23037 151.269C10.3727 153.083 10.4527 155.055 9.42266 156.937C7.39228 159.033 12.9031 158.166 11.9238 159.008C11.7404 161.926 12.3535 163.768 14.3458 165.106C13.1946 165.995 12.5331 167.886 12.3854 168.78C15.0827 171.278 13.6569 176.379 17.0765 176.206C17.5015 178.052 15.4761 176.132 15.3073 177.613C13.2865 179.287 19.9231 181.041 16.3846 182.42C16.5131 185.378 10.0258 185.507 13.5385 188.674C12.7338 193.243 18.0881 190.773 18.6546 193.598C17.7338 193.792 18.8504 194.805 18.8842 195.358C18.8319 196.184 18.3269 196.571 19.2685 197.312C19.7427 198.039 20.4007 198.719 21.2688 198.015C22.5761 198.523 22.848 199.733 23.038 197.545C24.2396 196.413 23.8592 199.909 25.3077 199.815ZM66.6535 106.166C66.0781 105.69 66.3896 105.743 66.5769 105.345C66.7777 104.52 64.9165 105.796 65.6535 104.641C64.7992 101.287 64.8154 104.024 63.3454 102.805C64.0615 100.089 61.8623 99.6231 59.8065 97.684C58.9773 96.5728 59.3754 94.7663 58.115 95.4561C57.2661 96.1902 55.0831 94.8804 54.9608 95.6899C55.1823 96.8374 51.7196 97.9741 52.6915 96.4724C53.3904 95.8834 52.4846 95.3354 52.7685 94.5963C53.4277 93.7653 53.7657 93.4229 53.2296 92.6811C53.2819 91.6222 55.18 91.1114 53.845 89.906C54.0046 88.4895 56.86 88.3304 56.0377 86.5837C55.3115 85.0007 57.4427 86.9065 57.5373 86.4274C58.2923 85.4275 57.6496 85.3732 56.3454 84.5899C59.0058 84.7768 63.6154 81.0159 64.9227 84.4723C66.1981 84.1999 66.5277 85.03 66.7296 86.1147C67.3784 87.0062 69.0369 86.9448 69.2685 88.1467C68.7865 89.2466 69.9442 88.3543 70.0761 89.2802C71.5485 89.3932 69.215 87.8798 69.9219 87.2868C72.2881 87.4365 75.1773 88.6791 76.1519 85.9966C77.7304 85.1954 78.9081 86.8444 78.3062 84.1205C78.7958 80.8932 86.8411 85.9869 83.6146 87.7946C82.6681 88.6271 79.8854 88.5446 81.1142 89.9439C80.0658 90.3602 79.5042 91.0309 80.4219 91.7809C81.4396 91.2712 80.2527 92.8194 79.9988 93.3834C80.7861 93.2584 80.4834 93.5965 80.6908 94.1261C79.2881 94.5017 82.6754 96.2652 83.3058 97.0966C82.5488 98.463 83.8335 98.2727 84.6142 99.0505C84.1627 101.303 81.3634 98.2742 81.96 100.888C78.9354 103.323 78.2204 98.3766 78.3442 103.506C77.415 104.349 75.2762 102.909 76.4981 102.138C76.1388 102.076 74.13 102.617 74.4212 103.193C74.2204 103.954 74.48 105.543 73.9211 104.21C72.6838 102.997 73.0781 104.974 73.7677 105.734C73.6915 107.376 77.1377 110.102 75.3838 110.424C75.9004 111.004 71.8585 108.168 73.19 110.62C73.8965 112.028 74.5958 113.079 74.6515 114.489C74.03 114.547 71.5977 116.211 71.8442 114.997C72.0758 113.681 69.9538 108.681 69.7673 110.697C68.6485 110.295 70.2704 108.44 68.6519 108.9C68.545 108.277 68.9427 105.181 66.6535 106.166Z" fill="#DBDBDB"/>
<path d="M54.3461 90.8436C54.1 91.7715 53.2742 91.7563 53.2308 92.6807C53.0115 93.0985 54.1288 93.1814 53.4227 93.6578C52.7308 94.4028 52.5554 95.0848 53.0388 95.9639C52.685 96.2856 52.1515 97.1161 52.9615 97.371C53.8523 96.325 55.0154 97.4159 54.9611 95.2994C55.9946 95.6547 57.9254 95.9619 58.6154 95.1825C59.2081 97.2889 61.8111 99.3808 63.6931 100.966C62.9273 101.619 63.1027 103.267 64.2304 103.312C64.7123 102.095 65.1427 103.158 65.3454 103.625C65.5131 105.066 65.3892 105.054 66.4611 105.149C66.1631 106.471 67.3219 105.696 68.6923 106.596C68.2969 108.979 68.9031 108.297 69.4619 109.565C68.9304 111.611 70.3304 108.937 70.5377 111.051C71.4584 112.119 71.8361 113.954 71.9223 115.546C73.6334 115.016 74.7746 114.523 74.6915 113.162C71.235 108.082 73.2234 110.062 76.0765 110.231C75.99 109.315 71.6196 104.041 73.7684 103.859C74.2885 105.759 74.535 103.809 74.3077 102.765C75.4007 102.797 76.9373 101.136 76.038 102.882C76.2011 102.919 76.6038 102.911 76.3073 103.313C79.7554 105.818 77.3642 98.9942 79.3077 101.592C80.5619 102.012 82.3069 101.097 81.8842 99.8341C82.7181 99.2135 84.1523 100.976 84.3842 99.3256C85.0488 98.5224 83.2961 98.6627 83.038 98.0358C83.9527 96.7948 81.9342 96.726 81.9219 95.6125C80.3338 95.0399 80.1569 94.5267 80.6538 93.6191C80.6334 93.0375 79.4984 93.7794 80.4611 92.9156C80.0192 92.438 80.4661 92.0405 80.9996 92.1339C80.7838 91.2935 79.9904 91.9236 79.8842 90.9609C80.1169 90.1452 81.7946 90.1284 80.5765 89.0848C86.2034 87.9169 84.6615 84.4305 80.7304 83.4561C78.4992 82.2362 78.1631 83.6726 78.5 85.8798C77.3358 85.6542 75.9592 85.3873 75.3077 87.3259C74.5577 88.7393 70.4484 86.3808 69.7692 87.7555C71.2634 89.5112 69.9677 89.3318 69.1919 88.5376C69.63 87.0551 67.3634 87.0461 66.7307 86.1143C66.3692 84.4285 64.9861 83.9818 64.0004 83.2602C61.2377 83.0703 54.4661 84.3081 58.1923 85.8008C57.5554 85.5944 57.6004 86.4266 57.3842 86.7006C57.1165 86.051 55.1335 85.5503 56.1154 86.5446C56.8319 88.6357 52.7042 88.6572 54.3461 90.8436ZM79.4619 89.6711C77.9619 89.46 79.5981 88.4262 80.5004 88.5771C80.8196 89.3029 79.8354 89.2368 79.4619 89.6711ZM57.1157 91.8599C56.5265 89.7813 58.2308 91.6852 58.6923 91.1954C58.545 91.7129 57.9592 92.5474 57.1157 91.8599Z" fill="#DBDBDB"/>
</svg>
