<svg width="180" height="151" viewBox="0 0 180 151" fill="none" xmlns="http://www.w3.org/2000/svg">
<path d="M19.8846 149.446C25.963 147.277 23.6615 149.845 28.1919 150.933C28.0854 149.804 29.1423 149.872 29.6154 149.016C30.1465 146.115 30.9277 147.017 33.2315 148.469C35.7827 149.329 35.2677 145.614 38.1538 146.086C41.2969 144.528 43.11 145.033 43.5758 140.885C46.9208 139.228 48.6165 142.972 51.0773 141.16C54.1427 142.219 51.2596 139.145 52.6927 138.228C48.8454 135.913 51.7715 134.386 54.2707 133.069C55.9423 130.071 52.2423 129.244 53.653 128.418C55.7542 129.136 55.9707 125 58.9234 124.941C61.348 125.328 62.5088 124.517 64.5004 125.212C65.7604 126.247 65.8073 123.245 66.7307 125.604C66.9007 126.889 68.3265 125.731 69.2692 126.191C69.9769 127.166 70.5661 126.359 70.4996 125.408C70.9631 124.702 73.9361 126.002 72.9615 124.705C73.11 123.539 74.3719 126.078 75.4227 124.939C76.3381 125.785 76.6023 125.181 77.6157 125.291C78.3611 124.877 78.3761 126.533 78.8846 125.722C79.7838 125.815 80.1473 128.9 81.0769 126.933C82.5496 127.709 81.6115 128.891 82.9227 126.932C83.1938 127.815 83.4546 126.457 83.8461 126.425C84.6711 127.886 84.7965 125.591 85.5769 125.174C86.3011 125.216 87.2165 125.793 87.7692 125.448C87.5623 124.016 88.2365 125.083 88.9619 124.783C90.0257 124.458 89.6965 125.441 90.0388 126.073C91.5496 126.011 93.1342 124.337 93.3846 127.129C93.1061 128.436 95.9792 128.557 95.2307 126.972C96.1588 126.477 95.9946 128.333 97.0004 127.988C96.8031 127.527 97.5684 125.826 97.6927 126.581C96.765 128.087 98.6388 126.998 98.6542 126.073C98.0196 125.036 99.4915 126.163 99 126.698C100.618 126.076 98.4442 125.113 99.6923 124.47C102.161 122.199 105.066 121.693 106.654 119.037C106.079 118.375 106.72 116.019 107.73 115.677C107.258 114.865 107.228 114.371 107.347 113.722C106.564 113.481 107.817 111.958 108.423 113.019C108.178 113.22 106.849 115.115 108.115 114.348C109.004 113.827 108.853 113.39 110.155 113.019C111.097 113.027 111.735 113.802 113.116 113.41C114.509 114.973 113.264 110.191 114.923 110.792C117.906 111.875 119.357 108.776 121.231 110.556C122.412 111.258 127.075 112.473 125.732 114.66C126.623 116.129 126.932 112.879 127.923 112.98C128.679 112.669 131.161 112.681 131.923 110.947C132.765 111.906 133.567 112.373 134.847 111.768C135.413 112.246 136.032 112.15 135.231 113.097C136.445 113.489 135.843 112.589 137.077 112.549C139.037 113.109 139.185 110.536 138.5 109.344C137.253 109.337 138 108.896 137.808 107.976C141.887 107.874 138.889 104.558 142.192 105.983C143.218 105.75 142.214 99.0561 144.538 100.082C145.549 100.005 143.762 98.9635 144.885 98.2838C146.358 98.0997 145.843 98.6367 147.192 98.8314C148.616 97.4509 151.428 99.2648 150.692 101.527C151.37 103.678 154.049 102.78 154.576 100.706C155.545 102.559 156.18 101.612 156.23 104.459C157.724 103.88 157.343 103.97 157.922 105.75C158.58 106.922 158.044 108.043 158.73 109.267C158.81 110.326 159.334 110.518 160.5 110.048C159.723 109.148 160.226 108.804 159.807 107.898C161.638 108.194 162.086 110.112 163.191 108.289C164.157 107.957 163.041 109.331 164.269 108.954C165.31 108.786 168.046 109.528 167.268 107.703C166.112 106.012 168.4 106.059 168.461 107.312C169.32 107.103 170.603 106.667 170.383 108.094C173.234 107.741 175.542 107.084 177.191 105.827C179.741 105.479 175.318 104.784 175.461 103.795C177.045 104.562 175.766 98.7227 174.846 98.7528C185.848 93.5184 174.189 95.4133 171.845 91.9136C171.703 88.9149 175.593 87.0669 177.23 84.4474C175.463 83.4394 173.804 84.9626 172.038 85.4633C171.272 83.9545 168.763 82.6678 167.076 83.9002C165.862 84.9368 165.633 83.1205 164.576 83.1181C162.825 84.7754 163.591 81.0114 161.46 81.2819C159.842 79.3936 155.172 78.5306 156.23 76.318C154.428 76.3793 156.373 75.274 156.46 74.7546C156.836 73.4092 157.441 71.7891 158.114 70.8065C158.945 70.1635 159.003 72.137 159.653 72.4872C161.19 73.1759 162.899 72.7108 164.73 74.2074C166.338 75.5828 172.505 76.0952 170.076 73.3862C168.518 72.1573 166.898 72.5384 167.538 69.6336C167.037 68.5603 164.638 68.4285 167.115 67.2106C165.166 59.9055 172.568 65.0148 171.421 56.8529C171.378 55.9101 170.579 54.462 168.728 54C169.476 53.5087 169.641 51.6256 168.806 51.2246C168.682 49.9261 169.343 49.9875 168.614 49.2316C168.132 49.4661 166.965 48.3041 167.306 47.9804C167.258 47.3988 165.97 48.0836 166.652 47.3551C161.833 46.6648 161.539 44.0644 161.115 40.0843C156.259 38.7374 159.842 35.8154 154.96 37.4273C155.132 34.5389 149.662 31.6528 151.881 29.8841C152.827 31.5105 154.829 29.4147 153.036 28.2429C153.656 26.0283 153.21 25.9556 153.69 23.9036C152.296 21.8794 149.863 20.4207 150.345 17.0629C146.115 11.7058 150.256 21.0773 144.997 13.3896C144.567 11.5002 146.328 12.081 144.073 10.1846C149.392 9.2379 146.288 7.30081 143.074 6.58867C139.743 6.37644 139.166 3.35002 136.574 1.62438C138.599 -1.42235 133.827 1.77136 133.536 3.77411C132.525 3.87534 131.997 2.8634 131.42 2.21067C130.821 2.38734 129.249 2.72036 130.497 3.2273C129.072 4.66057 129.325 7.85895 126.882 6.31467C127.005 8.36745 130.89 8.59689 127.613 10.1064C125.375 10.5922 125.196 13.8176 125.536 15.3443C126.459 13.8172 131.738 16.4168 128.766 16.1264C122.727 17.7285 127.732 20.8667 125.113 24.8034C124.617 22.6502 122.48 23.0469 120.343 22.8874C120.658 24.8421 118.097 26.0221 118.035 27.46C118.169 28.7639 118.463 29.2611 116.997 29.102C116.024 30.2172 115.668 33.3409 113.997 32.5807C112.583 32.1562 110.94 32.1429 109.497 32.3461C110.217 30.4173 108.722 25.7137 107.573 28.9453C106.558 28.9054 106.601 31.462 105.227 30.7034C104.682 31.2873 104.508 31.2529 104.074 32.1116C103.615 32.653 104.718 33.326 103.688 33.557C93.51 25.4761 106.18 19.5663 95.2273 21.0492C94.0411 20.9593 90.0696 22.3386 92.6884 22.3003C91.818 23.9881 91.2138 23.9537 93.0734 23.1215C94.6861 24.0869 94.7069 23.9556 94.265 25.4667C96.5038 26.359 97.8042 29.3072 94.3807 29.0231C92.2107 28.4044 90.9269 33.167 89.4969 31.3299C86.3946 32.2981 88.6892 34.2473 87.1507 36.3716C86.2661 37.7611 86.5176 38.302 87.8434 39.1076C87.1507 40.3994 87.4361 41.8358 88.0354 42.8207C86.2854 44.2685 87.5634 45.5532 87.5746 46.8462C86.8442 46.2806 84.8334 52.1419 83.4573 53.9195C82.7619 56.2756 84.3808 55.6514 84.4192 58.0251C83.58 57.9653 83.4261 58.4058 82.5354 57.5944C82.33 58.3562 80.9512 58.6219 81.6123 59.7445C81.715 60.5012 81.2058 61.1555 81.0358 61.8942C81.4165 62.4695 81.3969 62.7693 80.7662 63.2622C80.0569 64.6935 77.5892 64.2796 78.4208 66.4281C77.7238 66.5551 77.9842 65.8809 77.7661 65.3337C77.0296 65.4408 76.0465 67.3775 76.3819 68.4215C76.4942 70.1542 70.0188 68.5907 72.6504 70.6889C72.4246 72.5712 71.63 72.835 71.1119 74.7924C69.4254 73.7747 68.1977 76.3793 66.1504 75.0657C63.0523 75.9494 60.8065 77.7673 58.1892 75.1048C57.29 74.7385 55.8788 75.0512 54.6888 73.7762C54.2765 74.5079 53.44 75.8826 52.6127 75.2224C51.463 76.0162 51.8146 77.9998 50.3815 77.2162C48.1807 77.5464 48.0157 72.5063 45.5734 75.3408C45.8257 76.2621 45.6242 77.2584 44.1504 77.1767C44.3911 77.8767 41.8319 86.963 41.5738 84.0175C39.3577 82.1238 34.8869 82.6276 31.9585 81.867C33.2758 77.9056 31.7177 77.1466 29.2265 77.0997C28.9134 77.6844 28.8454 79.2822 27.7658 79.0137C27.0981 79.6305 28.3269 80.0694 28.3423 80.7339C28.1646 81.1173 28.0588 82.5631 27.5346 82.1019C25.6396 81.2197 26.8773 78.7139 25.6123 77.763C24.2461 77.3741 21.9865 76.1843 22.035 78.4665C20.8285 78.4739 19.1023 78.9051 18.7654 79.0907C18.4588 80.3297 20.8604 84.354 17.9573 84.134C17.4365 86.7773 14.8958 87.3499 15.2654 89.4101C12.1977 89.7404 4.58192 90.3822 8.14961 86.1652C8.0773 86.0777 7.04845 85.6556 6.76538 86.4005C5.51499 86.1136 5.41536 86.1664 5.88113 87.6126C8.19767 89.3636 4.26459 92.6519 7.11228 94.7641C5.77843 95.2065 3.49498 94.8602 4.38037 96.9928C4.77652 97.9605 3.12614 97.0248 2.72614 96.7192C2.11768 98.2615 1.77692 100.296 1.53422 101.135C-0.823084 99.0858 1.23266 101.792 1.30382 103.246C2.32766 104.704 3.24652 103.4 4.49613 102.855C5.31113 105.136 3.05267 107.513 2.68767 110.438C4.25536 111.822 4.88497 112.52 7.2269 112.861C6.91997 113.71 5.19152 113.292 6.1496 114.112C7.21844 116.601 9.36613 119.542 8.87998 123.102C10.0907 123.918 12.9965 124.259 14.3035 125.368C16.4054 128.769 13.2688 126.741 14.1869 129.317C15.085 132.132 20.9819 133.811 21.0342 136.938C21.3915 137.843 20.4538 137.729 19.6496 137.837C17.7104 138.624 19.4688 140.496 21.2269 140.455C22.4484 140.976 21.4623 142.165 22.0342 142.996C22.3565 143.864 22.8927 144.184 22.7254 145.342C22.4831 145.611 20.2073 145.271 21.5338 145.928C23.7546 147.416 18.1304 147.757 19.8846 149.446Z" fill="#DBDBDB"/>
</svg>
