<svg width="186" height="157" viewBox="0 0 186 157" fill="none" xmlns="http://www.w3.org/2000/svg">
<path d="M42.2308 112.447C44.4819 114.751 46.9892 112.688 49.1542 113.07C48.5846 116.928 49.8743 114.834 51.3089 117.019C52.6039 118.153 55.23 116.56 56.5 118.349C56.1727 119.674 58.1062 120.898 58.5381 122.179C58.0577 122.938 58.2477 124.476 58.7685 125.111C61.132 124.218 59.8646 126.371 61.0381 126.987C63.9858 126.416 63.7308 123.608 63.2304 120.185C61.7781 116.801 67.075 124 66 124.172C65.8065 125.352 64.5985 124.623 64.1919 125.383C65.4604 125.445 65.8585 127.414 67.1919 127.846C67.1212 129.351 68.8096 131.372 66.115 132.224C66.7354 133.998 67.4377 136.092 67.3454 137.5C67.7496 137.622 69.3058 136.366 69.1154 137.461C70.9481 138.265 72.1512 140.626 71.6154 137.148C73.6985 137.798 76.7357 135.231 75.7308 140.393C76.9707 139.619 79.3373 137.652 79.7311 140.511C81.7661 140.369 82.5858 139.85 83.1539 137.07C86.8281 132.054 85.71 138.374 89.9623 138.087C93.9877 136.93 97.6454 140.773 100.616 143.207C102.243 143.646 103.682 144.737 105.5 144.77C106.197 145.606 106.276 146.599 107.424 147.037C108.123 149.029 110.105 146.663 111.038 148.562C109.742 152.13 112.352 151.794 114.616 152.352C115.93 153.81 117.862 154.388 119.846 154.737C121.12 155.131 119.396 157.168 120.846 156.105C120.397 155.025 121.115 155.013 121.347 154.112C121.334 153.07 121.478 152.561 122.655 151.611C123.467 151.349 121.571 150.069 121.424 151.22C119.897 151.557 120.013 147.082 122.115 148.21C124.24 147.951 121.321 147.904 122.039 146.256C125.644 146.695 121.103 143.513 121.307 142.425C118.445 139.731 125.931 134.493 122.078 133.24C123.616 129.617 128.085 129.785 126.231 125.188C128.013 126.549 130.957 128.412 132.154 127.299C133.078 126.979 133.94 129.334 135.077 128.236C136.021 127.663 134.312 124.365 136.385 125.188C137.117 125.656 136.157 124.075 136.501 123.703C137.332 123.93 137.37 123.427 138.347 122.765C139.73 121.48 139.657 123.174 141.192 122.961C141.418 120.936 142.407 122.913 143.577 121.592C145.074 120.908 146.883 121.529 145.615 119.091C146.242 118.644 148.415 117.207 148.154 118.895C148.713 119.529 148.727 118.229 149.423 118.27C149.556 118.259 148.547 117.534 149.192 117.215C150.671 116.563 151.357 118.019 152.846 118.075C153.454 117.838 153.609 118.648 152.884 118.974C152.377 119.007 151.996 118.285 151.577 119.052C151.839 120.086 153.408 120.697 154.153 120.028C154.716 117.913 155.185 117.06 156.5 116.902C156.686 117.03 156.31 117.298 156.461 117.41C157.11 116.752 156.365 117.971 157.346 117.762C158.15 118.504 159.08 119.803 159.345 120.147C159.345 116.496 155.985 109.7 160.771 105.059C163.882 107.944 167.595 108.346 171.923 107.99C175.319 111.977 172.902 105.701 176 103.769C181.237 97.8934 176.978 101.114 178.385 95.2876C175.681 95.0527 176.051 93.5936 176.77 91.105C178.183 88.8994 186.595 95.4193 185.192 89.5807C183.465 88.7337 182.321 88.9194 181.885 87.2742C182.333 86.0516 181.161 86.7493 180.768 85.9852C180.846 85.1879 182.082 85.5549 182.615 85.3598C188.182 85.696 181.253 77.588 182.04 75.9797C178.212 78.0203 176.903 74.3162 173.385 74.9623C170.426 73.8585 173.798 72.8297 172.884 70.8203C168.871 71.0717 170.679 67.1271 169.846 65.387C169.385 64.5944 170.706 65.0091 170.884 64.5666C169.953 64.0628 171.089 62.7933 170.461 62.4165C169.324 61.8212 167.977 60.635 166.385 60.0323C165.173 61.3483 159.466 59.3596 162.231 58.1175C161.266 56.5263 159.132 59.5488 157.654 57.4522C155.343 58.9301 155.102 52.5509 152.961 53.8181C152.428 52.7612 151.313 52.7045 150.96 52.06C151.488 52.1651 152.447 51.4416 151.846 51.0043C148.616 47.834 157.855 43.141 156.345 39.9043C153.254 38.1517 158.152 32.5629 150.153 34.276C148.17 33.8652 147.151 35.069 145.153 35.3321C144.992 35.5553 144.943 32.7501 143.538 34.9397C141.752 34.3776 142.613 37.2727 142.307 38.0274C142.078 39.2543 140.758 38.2725 141.077 37.0507C141.589 35.6526 140.589 37.5795 140.385 38.1842C140.602 38.7028 139.282 37.7558 138.692 38.3405C138.164 37.9739 136.454 36.6293 135.923 37.1281C133.592 37.8519 133.48 33.7722 132.846 32.6731C134.085 31.1311 136.553 27.3066 134.653 27.9425C134.994 27.1526 133.66 26.3553 133.077 26.4577C133.186 26.8196 133.738 26.9447 133.038 27.2398C131.692 26.5436 132.91 25.8894 132.538 24.9728C132.756 22.4561 130.082 23.808 128.345 22.5108C127.239 21.8272 125.545 20.3216 126.692 18.9935C125.875 18.202 124.155 17.1725 125.615 16.2567C123.84 14.7183 120.675 13.5715 119.384 11.0978C116.225 9.81653 120.202 0.865517 115.692 2.41956C114.037 2.75101 110.55 2.79713 110.73 5.2736C110.34 6.87533 109.763 6.26481 108.807 5.74262C109.178 5.3799 110.282 4.89251 109.692 4.2175C109.227 3.60073 106.561 2.97927 107.615 3.9056C105.128 6.47705 103.096 -2.80855 100.077 2.96754C99.7681 3.99315 98.8535 2.86474 98.7304 2.34255C97.6223 0.636072 95.4427 3.76138 94.4231 3.16337C93.3392 4.02052 95.3692 4.04787 95.9611 4.37501C96.3565 5.50068 94.2881 6.76668 92.7696 6.64199C92.7266 10.8402 83.6585 5.53938 81.1154 5.1966C78.2946 5.96151 79.3973 7.07233 76.8846 5.35138C76.2285 7.57888 76.28 5.4229 75.1923 5.35177C72.8738 6.3852 73.2458 7.49914 72.3073 4.76509C69.32 5.38303 71.0469 1.91027 67.2689 2.92923C67.4931 1.62729 65.9877 1.44867 65.3458 0.739653C65.4431 -0.615057 64.2739 0.690402 63.8458 0.740041C62.9966 1.31265 62.8115 2.90383 62.845 3.82743C62.2138 4.01309 60.2381 4.75805 59.6147 2.88936C57.7866 2.2124 56.8323 5.64218 55.4608 3.20206C53.3854 2.53096 52.4685 4.26909 51.1531 4.84365C51.1265 7.51672 50.1454 6.71391 48.3073 6.95428C48.9535 8.05025 48.2185 8.43993 48 9.53433C47.4262 9.46085 45.9446 9.66097 46.4996 10.5896C46.7215 11.0165 45.5204 10.7581 45.3081 11.2936C44.7669 11.4652 45.7104 12.6694 45.115 12.9344C42.9661 13.1787 41.4454 16.1254 38.9608 15.865C37.5319 16.1926 39.1385 16.7937 38.8461 17.5469C38.5611 18.6214 36.4235 17.0919 36.115 16.9997C35.9285 18.1023 35.8246 17.1654 35.5385 17.1174C34.8831 17.0916 31.2277 17.6896 32.0385 16.0624C29.7031 16.7202 28.4565 17.3042 25.8454 17.233C24.6869 17.7924 23.7765 18.6179 23.115 16.7652C21.5658 16.3505 21.9846 14.9794 22.345 13.9119C21.7354 12.8238 19.0623 13.9839 17.3446 12.3082C16.0677 13.6719 14.1266 8.91756 12.6912 11.8803C13.5381 13.14 13.105 12.95 12.1535 13.2873C11.2362 13.5957 11.7758 15.4382 10.6535 15.1244C11.1689 16.4017 8.58576 14.9669 9.38384 16.1402C10.475 16.4943 8.85964 17.4863 9.53771 17.4695C10.8912 17.8662 7.76425 18.1219 7.46117 17.156C5.03386 17.1639 3.2504 17.4062 3.23155 20.245C2.55655 20.7453 2.47387 20.9208 3.11541 21.6521C2.57926 22.4377 -0.296923 23.1362 0.345 23.8401C1.97346 23.8389 -0.625344 26.7762 0.96081 27.1233C0.471963 28.0582 3.52731 28.2873 1.57539 29.6244C3.84 30.8595 4.16884 33.3641 6.34499 34.1204C9.41499 34.5762 15.4385 37.1957 9.15308 38.029C8.87115 38.824 10.5892 39.1828 10.4612 39.6702C8.67001 41.3298 11.5573 43.2809 12.5762 44.6341C13.305 44.0627 13.9639 41.7683 14.3462 44.2041C15.0085 45.4107 16.1108 47.4741 16.1143 49.598C16.7946 50.3066 19.3012 50.8386 18.6146 52.0991C18.6985 53.9568 17.1458 55.6992 19.1519 57.5714C17.7977 59.2822 16.9439 57.3913 15.8454 58.7436C18.7835 60.6111 18.6173 66.5881 22.4215 64.8809C23.5361 65.2545 23.0242 68.3263 25.7304 67.4199C27.3642 77.3973 28.0754 71.8467 33.3846 77.2707C34.6619 77.5622 33.4389 77.9164 33.9223 78.9127C35.0446 80.0586 33.1208 82.1603 34.7296 82.4695C37.5004 83.9101 36.3746 87.0214 36.0769 88.8795C34.9815 90.9874 31.405 89.9923 31.9992 92.7877C31.1412 93.6257 32.8419 95.3732 31.5385 95.5632C29.7419 96.595 32.5708 96.7866 32.5385 97.6343C32.365 98.8671 32.465 101.328 34.2692 100.527C37.2584 103.01 34.8273 103.585 32.0381 103.224C30.1158 102.643 28.4066 101.174 26.3458 100.801C25.617 100.548 25.3181 101.316 24.4608 100.253C23.7654 100.029 24.0308 98.0799 23.1146 98.8069C22.0492 100.192 21.9112 102.59 20.4996 103.927C21.2489 104.831 21.7039 103.876 20.8839 105.373C23.0431 107.954 27.6765 108.258 28.5 111.587C29.7658 111.097 30.0465 111.111 31.1538 112.214C32.0688 111.947 33.1204 111.328 34.2308 111.392C35.5827 111.669 36.3669 112.506 37.0381 113.464C38.7989 112.969 40.4681 111.435 42.2308 112.447Z" fill="#DBDBDB"/>
</svg>
