<svg width="176" height="165" viewBox="0 0 176 165" fill="none" xmlns="http://www.w3.org/2000/svg">
<path d="M8.76923 112.381C10.6862 112.545 9.98422 110.419 10.8842 110.348C12.1361 110.088 11.1311 112.031 12.1154 111.443C11.8604 111.884 12.2469 113.989 12.4627 112.811C13.4373 111.102 14.7631 111.532 15.615 112.46C16.4604 111.696 17.2234 111.202 18.3077 111.6C19.93 112.654 18.4927 112.128 18.0381 112.889C18.5565 114.328 21.1396 113.735 19.1535 115.038C16.6646 115.849 19.5788 115.819 20.1919 116.641C20.8311 115.732 20.49 115.492 21.5769 115.626C22.7619 116.436 22.0742 117.743 23.615 117.188C24.7104 117.398 25.215 118.319 24.1915 119.26C25.1 119.649 26.8 119.977 26.2685 121.097C27.2219 121.834 28.1265 121.923 28.8838 122.895C30.285 122.024 29.525 123.442 29.6916 123.755C30.2304 124.555 31.9269 123.353 31.4612 124.654C31.8454 125.218 32.4646 125.085 32.8073 125.474C32.15 126.24 33.1323 125.961 33.4227 126.334C33.6738 127.088 34.0707 126.542 34.3461 126.92C33.7877 127.525 34.5593 127.135 34.9612 127.037C35.8981 126.432 37.2073 126.794 38.2689 127.311C38.9896 126.784 38.6081 126.963 39.0381 127.351C39.5031 127.226 39.48 125.848 39.8454 126.412C40.2169 126.234 40.7166 127.015 41.4223 126.569C42.4431 126.285 41.1731 128.806 42.6531 128.171C43.2788 126.713 43.4743 127.817 44.73 127.585C46.262 127.077 45.0869 130.673 45.6531 129.579C46.6119 129.809 46.58 129.265 46.7296 128.366C47.0458 127.787 48.3927 127.841 47.845 128.718C48.6665 130.912 49.0058 128.024 49.9604 129.5C50.6912 128.964 50.8465 128.62 50.8069 129.735C52.0027 129.877 50.7827 130.195 50.8835 130.633C51.4385 131.523 52.5181 131.385 51.8069 130.242C52.0327 129.995 52.7554 130.189 52.8834 129.344C54.8592 130.756 54.8816 126.84 57.0377 127.39C57.6443 127.625 57.5208 128.034 58.0377 127.311C58.3438 127.088 59.0654 128.007 58.8069 127.311C59.6465 126.726 57.9446 127.161 58.8069 126.139C58.5677 123.337 61.875 128.79 61.5362 128.953C62.0743 130.269 63.6161 131.224 64.4227 132.509C61.8658 135.072 64.4788 134.711 63.7285 137.708C65.0862 138.595 66.8919 138.592 65.9216 140.445C65.6854 142.513 69.565 140.028 70.5365 142.869C70.7542 143.628 71.1738 144.871 69.8069 144.821C71.1531 145.823 70.8731 147.069 69.96 148.3C71.7389 150.682 78.6919 152.832 76.6923 154.749C76.725 155.561 76.805 156.557 75.8454 156.665C77.3962 158.858 81.07 159.309 77.8442 162.215C75.5781 166.935 81.3212 160.288 81.4985 164.404C83.5181 162.377 82.8193 160.932 84.4993 158.854C84.9708 157.865 85.2904 157.558 86.23 157.681C84.9535 157.025 87.0804 156.541 85.1142 155.766C86.8815 156.524 87.4931 154.522 88.4608 153.382C90.2377 154.522 91.9111 156.835 93.6911 157.408C94.8277 160.777 99.3958 155.26 100.499 156.859C103.708 156.918 101.512 154.657 101.845 153.655C101.088 153.54 102.089 152.713 101.23 152.561C101.104 151.87 101.582 151.81 101.192 151.115C100.585 151.023 102.233 150.855 102.23 150.021C100.795 146.576 98.19 140.062 104.23 142.125C106.536 140.897 103.866 143.054 105.308 143.141C105.889 144.503 108.552 144.662 108.691 141.929C111.104 142.121 113.18 142.105 115.307 142.789C115.897 144.273 117.15 144.77 118.038 145.994C120.133 146.688 117.748 143.573 116.345 143.024C117.224 142.09 117.507 140.919 118.307 140.521C124.476 141.424 118.44 134.071 127.077 140.719C127.578 138.842 126.419 135.9 127.576 134.855C128.991 134.192 128.418 132.321 130.423 132.862C131.818 133.538 130.564 131.133 132.115 131.61C132.977 131.792 135.211 132.035 134.5 130.633C133.503 129.866 132.994 129.858 134.077 128.795C133.593 128.82 132.83 128.235 133.5 127.936C133.29 127.826 132.162 127.959 132.846 127.506C133.024 126.411 134.005 127.114 134.231 126.373C132.334 126.561 135.822 124.577 136.192 125.239C137.117 127.685 136.298 122.078 137.692 123.051C138.455 123.259 137.312 121.689 137.539 121.37C137.616 120.52 139.247 121.108 139.346 119.963C140.08 120.214 141.395 119.792 141.077 120.471C147.487 119.698 140.954 116.377 144.653 116.094C147.045 115.531 149.91 114.209 146.653 113.241C145.591 112.836 146.805 112.306 146.961 113.162C147.89 113.817 146.905 111.101 146.577 110.895C145.497 110.356 144.615 110.203 143.961 109.332C147.379 102.198 155.805 107.843 160.462 107.574C161.787 107.977 162.999 108.62 162.922 106.361C163.277 105.217 164.718 105.603 163.768 104.29C166.985 104.003 164.658 101.089 168.462 101.241C169.487 98.717 164.974 99.487 164.691 98.1147C163.99 95.709 166.655 91.7148 164.384 89.6718C165.272 86.645 162.16 88.2616 162.768 86.0759C161.809 78.6407 163.197 83.2102 167.001 79.1972C167.108 77.7972 163.531 79.5944 165.54 76.8122C166.104 76.2134 167.61 77.4466 168.5 76.6946C167.33 75.608 167.273 73.3426 168.962 73.1769C170.216 73.5963 169.24 71.6814 170.77 71.8487C168.704 69.4328 174.444 70.1641 173.039 68.8782C172.81 69.4704 172.315 68.793 172.808 68.5265C172.208 67.9234 171.535 67.4254 171.846 66.9239C170.869 65.3464 171.502 66.0476 171.963 64.5788C170.344 64.2474 168.966 65.5364 168.385 63.0928C169.862 57.2068 170.199 63.878 172.308 59.3409C173.828 58.4298 174.597 58.2438 172.691 56.9571C170.098 55.2303 172.817 53.0149 175.077 54.026C177.637 52.6178 171.953 49.4178 172.04 47.1067C175.399 43.8602 168.389 42.7725 167.731 38.6251C166.905 35.1863 163.085 35.6648 160.923 33.5444C160.024 31.7753 157.804 34.1588 157.346 32.3722C156.145 30.7912 155.348 28.9518 154.193 27.6811C153.07 26.618 151.024 25.1355 151.615 23.4993C149.365 20.9822 150.911 17.4817 150.923 14.2747C152.552 12.6534 148.44 11.8975 148 13.5325C147.365 13.0181 146.97 10.8793 145.73 11.149C137.839 6.59553 144.833 1.37368 142.617 0.242935C140.191 2.56189 137.685 2.73543 134.539 2.23552C132.933 2.89725 133.508 5.49839 131.5 5.71493C128.87 6.635 126.325 9.79353 123.27 8.84179C119.372 11.6349 111.227 7.3792 107.539 12.9462C103.9 13.1811 102.671 16.2184 100.116 16.9325C99.0054 16.4404 99.3604 22.6344 97.0385 20.8016C95.2073 20.4037 91.6827 18.9951 93.5004 17.4801C94.0346 17.2945 93.4392 16.5565 93.4235 16.1508C94.5165 16.5772 94.7054 15.6345 93.8461 15.2518C91.4281 16.0566 90.3973 14.8583 88.8462 13.3757C87.8208 12.1817 85.5942 14.1277 85.8085 11.382C83.74 13.0185 82.9769 15.6865 80.1538 14.9786C77.9892 14.9814 76.5577 12.8997 77.615 10.9915C75.1042 7.97917 72.1204 5.86424 70.9608 2.78429C66.9104 0.606432 63.1308 1.01566 59.0765 2.51069C57.8311 2.75654 56.0369 1.03325 55.2689 3.40927C53.5931 2.69478 52.7435 2.37037 51.192 3.79973C52.1162 5.6137 50.7473 6.42981 48.9604 8.13864C48.5058 10.4146 43.6519 8.5162 43.9988 9.77984C46.3169 9.67509 45.1985 11.9499 43.7304 11.7349C43.2485 14.852 41.8639 11.5496 40.0766 11.3441C39.2731 13.3366 34.1977 11.2092 36.8838 13.8838C36.8131 14.458 36.5169 14.4557 36.3073 14.9005C34.3331 14.0261 32.225 13.6556 30.9227 11.1869C30.3219 10.8172 30.3458 12.6667 29.3839 12.4377C28.4373 12.2411 28.0708 12.5209 28.7308 13.5332C28.9058 16.3005 25.5319 10.9004 25.2689 13.0634C22.3531 15.5211 27.0512 15.6013 24.6158 16.8942C18.9069 17.1721 25.0962 20.8513 18.615 19.6693C18.7462 20.1852 16.72 20.0074 15.8458 19.0815C13.2877 22.0504 11.2935 22.1962 10.0773 25.6885C8.72463 25.7968 10.2046 24.1083 8.38348 24.0856C8.1231 24.9908 4.95194 22.9154 6.07617 25.1401C6.91694 26.548 5.54191 26.5945 4.57653 26.8216C3.27653 29.8957 5.03465 31.617 5.76965 33.6221C3.43811 35.9212 -0.414593 39.6652 0.421561 43.0805C2.24118 43.1063 -0.0899862 44.0236 -0.000755396 44.3312C5.46001 46.4559 3.8454 51.4812 11.2689 49.7638C8.03117 53.6864 17.5985 51.0333 18.4992 54.064C20.4389 54.0468 18.9412 55.6028 19.8839 56.5654C19.4454 57.0642 19.0919 56.4904 18.6916 57.1908C19.845 58.5983 18.215 61.0474 19.9604 62.5846C24.2715 62.5424 20.4573 65.1416 21.345 66.415C22.5185 67.4352 24.0004 66.5077 25.4608 67.119C26.4358 68.6187 27.1793 68.8743 29.0385 68.4862C29.1862 68.1606 31.8188 67.6329 31.4219 68.6034C29.8288 69.3359 33.3423 72.1388 33.0365 73.9195C35.86 78.0587 31.7939 76.5582 29.7681 77.9836C31.9262 78.5555 30.1758 80.5234 32.2685 80.799C34.7789 80.892 35.1158 83.9982 32.8842 84.1213C30.5954 83.5924 28.185 82.9284 25.8843 82.4402C25.3477 84.9456 24.3396 87.1453 27.385 87.286C27.9954 88.0549 25.4454 91.2814 28.0381 91.3119C28.0196 93.9146 21.7565 96.7858 23.4612 100.067C22.5777 100.493 22.9754 102.238 21.8458 101.279C21.2816 98.5197 14.6743 100.753 12.3462 99.4018C9.99696 94.4153 7.87234 99.6696 7.11542 102.725C6.22695 105.721 8.34039 109.322 8.76923 112.381Z" fill="#DBDBDB"/>
</svg>
